<?xml version="1.0" encoding="UTF-8" standalone="no"?>
<!DOCTYPE svg PUBLIC "-//W3C//DTD SVG 1.1//EN"
 "http://www.w3.org/Graphics/SVG/1.1/DTD/svg11.dtd">
<!-- Generated by graphviz version 2.38.0 (20140413.2041)
 -->
<!-- Title: gr::Utils::OneRingNeighborhood::get Pages: 1 -->
<svg width="420pt" height="46pt"
 viewBox="0.00 0.00 420.00 46.00" xmlns="http://www.w3.org/2000/svg" xmlns:xlink="http://www.w3.org/1999/xlink">
<g id="graph0" class="graph" transform="scale(1 1) rotate(0) translate(4 42)">
<title>gr::Utils::OneRingNeighborhood::get</title>
<polygon fill="white" stroke="none" points="-4,4 -4,-42 416,-42 416,4 -4,4"/>
<!-- Node1 -->
<g id="node1" class="node"><title>Node1</title>
<polygon fill="#bfbfbf" stroke="black" points="0,-0.5 0,-19.5 188,-19.5 188,-0.5 0,-0.5"/>
<text text-anchor="middle" x="94" y="-7.5" font-family="Helvetica,sans-Serif" font-size="10.00">gr::Utils::OneRingNeighborhood::get</text>
</g>
<!-- Node2 -->
<g id="node2" class="node"><title>Node2</title>
<g id="a_node2"><a xlink:href="a00038.html#a764838074033e02e9bbb2a0112bfc30e" target="_top" xlink:title="gr::Utils::OneRingNeighborhood::get">
<polygon fill="white" stroke="black" points="224,-0.5 224,-19.5 412,-19.5 412,-0.5 224,-0.5"/>
<text text-anchor="middle" x="318" y="-7.5" font-family="Helvetica,sans-Serif" font-size="10.00">gr::Utils::OneRingNeighborhood::get</text>
</a>
</g>
</g>
<!-- Node1&#45;&gt;Node2 -->
<g id="edge1" class="edge"><title>Node1&#45;&gt;Node2</title>
<path fill="none" stroke="midnightblue" d="M188.183,-10C196.535,-10 205.024,-10 213.456,-10"/>
<polygon fill="midnightblue" stroke="midnightblue" points="213.7,-13.5001 223.7,-10 213.699,-6.5001 213.7,-13.5001"/>
</g>
<!-- Node2&#45;&gt;Node2 -->
<g id="edge2" class="edge"><title>Node2&#45;&gt;Node2</title>
<path fill="none" stroke="midnightblue" d="M283.755,-19.6119C266.554,-28.4613 277.969,-38 318,-38 348.023,-38 361.95,-32.6345 359.781,-26.2184"/>
<polygon fill="midnightblue" stroke="midnightblue" points="362.072,-23.5727 352.245,-19.6119 357.457,-28.8362 362.072,-23.5727"/>
</g>
</g>
</svg>
