<?xml version="1.0" encoding="UTF-8" standalone="no"?>
<!DOCTYPE svg PUBLIC "-//W3C//DTD SVG 1.1//EN"
 "http://www.w3.org/Graphics/SVG/1.1/DTD/svg11.dtd">
<!-- Generated by graphviz version 2.38.0 (20140413.2041)
 -->
<!-- Title: gr::FunctorSuper4PCS::FindCongruentQuadrilaterals Pages: 1 -->
<svg width="473pt" height="61pt"
 viewBox="0.00 0.00 473.00 61.00" xmlns="http://www.w3.org/2000/svg" xmlns:xlink="http://www.w3.org/1999/xlink">
<g id="graph0" class="graph" transform="scale(1 1) rotate(0) translate(4 57)">
<title>gr::FunctorSuper4PCS::FindCongruentQuadrilaterals</title>
<polygon fill="white" stroke="none" points="-4,4 -4,-57 469,-57 469,4 -4,4"/>
<!-- Node1 -->
<g id="node1" class="node"><title>Node1</title>
<polygon fill="#bfbfbf" stroke="black" points="0,-22.5 0,-52.5 158,-52.5 158,-22.5 0,-22.5"/>
<text text-anchor="start" x="8" y="-40.5" font-family="Helvetica,sans-Serif" font-size="10.00">gr::FunctorSuper4PCS</text>
<text text-anchor="middle" x="79" y="-29.5" font-family="Helvetica,sans-Serif" font-size="10.00">::FindCongruentQuadrilaterals</text>
</g>
<!-- Node2 -->
<g id="node2" class="node"><title>Node2</title>
<g id="a_node2"><a xlink:href="a00047.html#ad9be386818677a9d5e574b6d6a50c93f" target="_top" xlink:title="gr::SamplerConcept\l::operator()">
<polygon fill="white" stroke="black" points="352,-22.5 352,-52.5 465,-52.5 465,-22.5 352,-22.5"/>
<text text-anchor="start" x="360" y="-40.5" font-family="Helvetica,sans-Serif" font-size="10.00">gr::SamplerConcept</text>
<text text-anchor="middle" x="408.5" y="-29.5" font-family="Helvetica,sans-Serif" font-size="10.00">::operator()</text>
</a>
</g>
</g>
<!-- Node1&#45;&gt;Node2 -->
<g id="edge1" class="edge"><title>Node1&#45;&gt;Node2</title>
<path fill="none" stroke="midnightblue" d="M158.183,-39.8296C170.178,-40.1083 182.419,-40.3476 194,-40.5 248.218,-41.2133 261.785,-41.3885 316,-40.5 324.338,-40.3633 333.102,-40.1567 341.767,-39.9145"/>
<polygon fill="midnightblue" stroke="midnightblue" points="341.97,-43.4101 351.862,-39.6158 341.763,-36.4131 341.97,-43.4101"/>
</g>
<!-- Node3 -->
<g id="node3" class="node"><title>Node3</title>
<g id="a_node3"><a xlink:href="a00027.html#a96dd282b059781037f2c4a01b0c941b2" target="_top" xlink:title="Get closest points in euclidean space. ">
<polygon fill="white" stroke="black" points="194,-0.5 194,-30.5 316,-30.5 316,-0.5 194,-0.5"/>
<text text-anchor="start" x="202" y="-18.5" font-family="Helvetica,sans-Serif" font-size="10.00">gr::IndexedNormalSet</text>
<text text-anchor="middle" x="255" y="-7.5" font-family="Helvetica,sans-Serif" font-size="10.00">::getNeighbors</text>
</a>
</g>
</g>
<!-- Node1&#45;&gt;Node3 -->
<g id="edge2" class="edge"><title>Node1&#45;&gt;Node3</title>
<path fill="none" stroke="midnightblue" d="M158.093,-27.6262C166.636,-26.5461 175.294,-25.4514 183.734,-24.3842"/>
<polygon fill="midnightblue" stroke="midnightblue" points="184.416,-27.826 193.898,-23.0991 183.538,-20.8812 184.416,-27.826"/>
</g>
<!-- Node3&#45;&gt;Node2 -->
<g id="edge3" class="edge"><title>Node3&#45;&gt;Node2</title>
<path fill="none" stroke="midnightblue" d="M316.312,-24.2582C324.642,-25.4679 333.233,-26.7153 341.657,-27.9386"/>
<polygon fill="midnightblue" stroke="midnightblue" points="341.422,-31.4412 351.821,-29.4147 342.428,-24.5138 341.422,-31.4412"/>
</g>
</g>
</svg>
