<?xml version="1.0" encoding="UTF-8" standalone="no"?>
<!DOCTYPE svg PUBLIC "-//W3C//DTD SVG 1.1//EN"
 "http://www.w3.org/Graphics/SVG/1.1/DTD/svg11.dtd">
<!-- Generated by graphviz version 2.38.0 (20140413.2041)
 -->
<!-- Title: gr::CongruentSetExplorationBase::Verify Pages: 1 -->
<svg width="309pt" height="78pt"
 viewBox="0.00 0.00 309.00 77.50" xmlns="http://www.w3.org/2000/svg" xmlns:xlink="http://www.w3.org/1999/xlink">
<g id="graph0" class="graph" transform="scale(1 1) rotate(0) translate(4 73.5)">
<title>gr::CongruentSetExplorationBase::Verify</title>
<polygon fill="white" stroke="none" points="-4,4 -4,-73.5 305,-73.5 305,4 -4,4"/>
<!-- Node1 -->
<g id="node1" class="node"><title>Node1</title>
<polygon fill="#bfbfbf" stroke="black" points="0,-17 0,-47 152,-47 152,-17 0,-17"/>
<text text-anchor="start" x="8" y="-35" font-family="Helvetica,sans-Serif" font-size="10.00">gr::CongruentSetExploration</text>
<text text-anchor="middle" x="76" y="-24" font-family="Helvetica,sans-Serif" font-size="10.00">Base::Verify</text>
</g>
<!-- Node2 -->
<g id="node2" class="node"><title>Node2</title>
<g id="a_node2"><a xlink:href="a00047.html#ad9be386818677a9d5e574b6d6a50c93f" target="_top" xlink:title="gr::SamplerConcept\l::operator()">
<polygon fill="white" stroke="black" points="188,-39 188,-69 301,-69 301,-39 188,-39"/>
<text text-anchor="start" x="196" y="-57" font-family="Helvetica,sans-Serif" font-size="10.00">gr::SamplerConcept</text>
<text text-anchor="middle" x="244.5" y="-46" font-family="Helvetica,sans-Serif" font-size="10.00">::operator()</text>
</a>
</g>
</g>
<!-- Node1&#45;&gt;Node2 -->
<g id="edge1" class="edge"><title>Node1&#45;&gt;Node2</title>
<path fill="none" stroke="midnightblue" d="M152.455,-41.9701C160.897,-43.0855 169.446,-44.2152 177.752,-45.3126"/>
<polygon fill="midnightblue" stroke="midnightblue" points="177.367,-48.7921 187.74,-46.6323 178.284,-41.8524 177.367,-48.7921"/>
</g>
<!-- Node3 -->
<g id="node3" class="node"><title>Node3</title>
<g id="a_node3"><a xlink:href="a00031.html#a16bcf56cc682369cb33981bae3b9ca49" target="_top" xlink:title="Used to build the tree: split the subset [start..end[ according to dim and splitValue, and returns the index of the first element of the second subset. ">
<polygon fill="white" stroke="black" points="200,-0.5 200,-19.5 289,-19.5 289,-0.5 200,-0.5"/>
<text text-anchor="middle" x="244.5" y="-7.5" font-family="Helvetica,sans-Serif" font-size="10.00">gr::KdTree::split</text>
</a>
</g>
</g>
<!-- Node1&#45;&gt;Node3 -->
<g id="edge2" class="edge"><title>Node1&#45;&gt;Node3</title>
<path fill="none" stroke="midnightblue" d="M152.455,-22.0299C164.967,-20.3768 177.715,-18.6924 189.556,-17.1278"/>
<polygon fill="midnightblue" stroke="midnightblue" points="190.244,-20.5673 199.7,-15.7874 189.327,-13.6276 190.244,-20.5673"/>
</g>
</g>
</svg>
