<?xml version="1.0" encoding="UTF-8" standalone="no"?>
<!DOCTYPE svg PUBLIC "-//W3C//DTD SVG 1.1//EN"
 "http://www.w3.org/Graphics/SVG/1.1/DTD/svg11.dtd">
<!-- Generated by graphviz version 2.38.0 (20140413.2041)
 -->
<!-- Title: gr::CongruentSetExplorationBase::CongruentSetExplorationBase Pages: 1 -->
<svg width="348pt" height="39pt"
 viewBox="0.00 0.00 348.00 39.00" xmlns="http://www.w3.org/2000/svg" xmlns:xlink="http://www.w3.org/1999/xlink">
<g id="graph0" class="graph" transform="scale(1 1) rotate(0) translate(4 35)">
<title>gr::CongruentSetExplorationBase::CongruentSetExplorationBase</title>
<polygon fill="white" stroke="none" points="-4,4 -4,-35 344,-35 344,4 -4,4"/>
<!-- Node1 -->
<g id="node1" class="node"><title>Node1</title>
<polygon fill="#bfbfbf" stroke="black" points="0,-0.5 0,-30.5 191,-30.5 191,-0.5 0,-0.5"/>
<text text-anchor="start" x="8" y="-18.5" font-family="Helvetica,sans-Serif" font-size="10.00">gr::CongruentSetExploration</text>
<text text-anchor="middle" x="95.5" y="-7.5" font-family="Helvetica,sans-Serif" font-size="10.00">Base::CongruentSetExplorationBase</text>
</g>
<!-- Node2 -->
<g id="node2" class="node"><title>Node2</title>
<g id="a_node2"><a xlink:href="a00047.html#ad9be386818677a9d5e574b6d6a50c93f" target="_top" xlink:title="gr::SamplerConcept\l::operator()">
<polygon fill="white" stroke="black" points="227,-0.5 227,-30.5 340,-30.5 340,-0.5 227,-0.5"/>
<text text-anchor="start" x="235" y="-18.5" font-family="Helvetica,sans-Serif" font-size="10.00">gr::SamplerConcept</text>
<text text-anchor="middle" x="283.5" y="-7.5" font-family="Helvetica,sans-Serif" font-size="10.00">::operator()</text>
</a>
</g>
</g>
<!-- Node1&#45;&gt;Node2 -->
<g id="edge1" class="edge"><title>Node1&#45;&gt;Node2</title>
<path fill="none" stroke="midnightblue" d="M191.135,-15.5C199.716,-15.5 208.28,-15.5 216.532,-15.5"/>
<polygon fill="midnightblue" stroke="midnightblue" points="216.796,-19.0001 226.796,-15.5 216.796,-12.0001 216.796,-19.0001"/>
</g>
</g>
</svg>
