<?xml version="1.0" encoding="UTF-8" standalone="no"?>
<!DOCTYPE svg PUBLIC "-//W3C//DTD SVG 1.1//EN"
 "http://www.w3.org/Graphics/SVG/1.1/DTD/svg11.dtd">
<!-- Generated by graphviz version 2.38.0 (20140413.2041)
 -->
<!-- Title: gr::KdTree::KdTree Pages: 1 -->
<svg width="248pt" height="46pt"
 viewBox="0.00 0.00 248.00 46.00" xmlns="http://www.w3.org/2000/svg" xmlns:xlink="http://www.w3.org/1999/xlink">
<g id="graph0" class="graph" transform="scale(1 1) rotate(0) translate(4 42)">
<title>gr::KdTree::KdTree</title>
<polygon fill="white" stroke="none" points="-4,4 -4,-42 244,-42 244,4 -4,4"/>
<!-- Node1 -->
<g id="node1" class="node"><title>Node1</title>
<polygon fill="#bfbfbf" stroke="black" points="0,-0.5 0,-19.5 101,-19.5 101,-0.5 0,-0.5"/>
<text text-anchor="middle" x="50.5" y="-7.5" font-family="Helvetica,sans-Serif" font-size="10.00">gr::KdTree::KdTree</text>
</g>
<!-- Node1&#45;&gt;Node1 -->
<g id="edge1" class="edge"><title>Node1&#45;&gt;Node1</title>
<path fill="none" stroke="midnightblue" d="M29.2302,-19.7571C18.8827,-28.5653 25.9727,-38 50.5,-38 66.2128,-38 74.7693,-34.128 76.1695,-29.0292"/>
<polygon fill="midnightblue" stroke="midnightblue" points="79.2189,-27.2911 71.7698,-19.7571 72.8948,-30.292 79.2189,-27.2911"/>
</g>
<!-- Node2 -->
<g id="node2" class="node"><title>Node2</title>
<g id="a_node2"><a xlink:href="a00031.html#a52789df74356819d37563f2722b6e4cf" target="_top" xlink:title="Finalize the creation of the KdTree. ">
<polygon fill="white" stroke="black" points="137,-0.5 137,-19.5 240,-19.5 240,-0.5 137,-0.5"/>
<text text-anchor="middle" x="188.5" y="-7.5" font-family="Helvetica,sans-Serif" font-size="10.00">gr::KdTree::finalize</text>
</a>
</g>
</g>
<!-- Node1&#45;&gt;Node2 -->
<g id="edge2" class="edge"><title>Node1&#45;&gt;Node2</title>
<path fill="none" stroke="midnightblue" d="M101.369,-10C109.561,-10 118.132,-10 126.557,-10"/>
<polygon fill="midnightblue" stroke="midnightblue" points="126.726,-13.5001 136.726,-10 126.726,-6.5001 126.726,-13.5001"/>
</g>
</g>
</svg>
