<?xml version="1.0" encoding="UTF-8" standalone="no"?>
<!DOCTYPE svg PUBLIC "-//W3C//DTD SVG 1.1//EN"
 "http://www.w3.org/Graphics/SVG/1.1/DTD/svg11.dtd">
<!-- Generated by graphviz version 2.38.0 (20140413.2041)
 -->
<!-- Title: TBase Pages: 1 -->
<svg width="674pt" height="237pt"
 viewBox="0.00 0.00 673.50 237.00" xmlns="http://www.w3.org/2000/svg" xmlns:xlink="http://www.w3.org/1999/xlink">
<g id="graph0" class="graph" transform="scale(1 1) rotate(0) translate(4 233)">
<title>TBase</title>
<polygon fill="white" stroke="none" points="-4,4 -4,-233 669.5,-233 669.5,4 -4,4"/>
<!-- Node1 -->
<g id="node1" class="node"><title>Node1</title>
<polygon fill="#bfbfbf" stroke="black" points="310,-171.5 310,-228.5 356,-228.5 356,-171.5 310,-171.5"/>
<text text-anchor="middle" x="333" y="-216.5" font-family="Helvetica,sans-Serif" font-size="10.00">TBase</text>
<polyline fill="none" stroke="black" points="310,-209.5 356,-209.5 "/>
<text text-anchor="middle" x="333" y="-197.5" font-family="Helvetica,sans-Serif" font-size="10.00"> </text>
<polyline fill="none" stroke="black" points="310,-190.5 356,-190.5 "/>
<text text-anchor="middle" x="333" y="-178.5" font-family="Helvetica,sans-Serif" font-size="10.00"> </text>
</g>
<!-- Node2 -->
<g id="node2" class="node"><title>Node2</title>
<g id="a_node2"><a xlink:href="a00039.html" target="_top" xlink:title="{gr::AdaptivePointFilter\l::Options\&lt; Derived, TBase \&gt;\n|+ max_normal_difference\l+ max_color_distance\l|}">
<polygon fill="white" stroke="black" points="0,-28 0,-107 154,-107 154,-28 0,-28"/>
<text text-anchor="start" x="8" y="-95" font-family="Helvetica,sans-Serif" font-size="10.00">gr::AdaptivePointFilter</text>
<text text-anchor="middle" x="77" y="-84" font-family="Helvetica,sans-Serif" font-size="10.00">::Options&lt; Derived, TBase &gt;</text>
<polyline fill="none" stroke="black" points="0,-77 154,-77 "/>
<text text-anchor="start" x="8" y="-65" font-family="Helvetica,sans-Serif" font-size="10.00">+ max_normal_difference</text>
<text text-anchor="start" x="8" y="-54" font-family="Helvetica,sans-Serif" font-size="10.00">+ max_color_distance</text>
<polyline fill="none" stroke="black" points="0,-47 154,-47 "/>
<text text-anchor="middle" x="77" y="-35" font-family="Helvetica,sans-Serif" font-size="10.00"> </text>
</a>
</g>
</g>
<!-- Node1&#45;&gt;Node2 -->
<g id="edge1" class="edge"><title>Node1&#45;&gt;Node2</title>
<path fill="none" stroke="midnightblue" d="M300.006,-189.79C264.79,-179.238 207.987,-160.113 163,-135 148.827,-127.088 134.472,-116.988 121.655,-107.061"/>
<polygon fill="none" stroke="midnightblue" points="299.191,-193.199 309.772,-192.662 301.166,-186.483 299.191,-193.199"/>
</g>
<!-- Node3 -->
<g id="node3" class="node"><title>Node3</title>
<g id="a_node3"><a xlink:href="a00017.html" target="_top" xlink:title="{gr::CongruentSetExploration\lOptions\&lt; Derived, TBase \&gt;\n||+ configureOverlap()\l+ getTerminateThreshold()\l+ getOverlapEstimation()\l}">
<polygon fill="white" stroke="black" points="172,-22.5 172,-112.5 324,-112.5 324,-22.5 172,-22.5"/>
<text text-anchor="start" x="180" y="-100.5" font-family="Helvetica,sans-Serif" font-size="10.00">gr::CongruentSetExploration</text>
<text text-anchor="middle" x="248" y="-89.5" font-family="Helvetica,sans-Serif" font-size="10.00">Options&lt; Derived, TBase &gt;</text>
<polyline fill="none" stroke="black" points="172,-82.5 324,-82.5 "/>
<text text-anchor="middle" x="248" y="-70.5" font-family="Helvetica,sans-Serif" font-size="10.00"> </text>
<polyline fill="none" stroke="black" points="172,-63.5 324,-63.5 "/>
<text text-anchor="start" x="180" y="-51.5" font-family="Helvetica,sans-Serif" font-size="10.00">+ configureOverlap()</text>
<text text-anchor="start" x="180" y="-40.5" font-family="Helvetica,sans-Serif" font-size="10.00">+ getTerminateThreshold()</text>
<text text-anchor="start" x="180" y="-29.5" font-family="Helvetica,sans-Serif" font-size="10.00">+ getOverlapEstimation()</text>
</a>
</g>
</g>
<!-- Node1&#45;&gt;Node3 -->
<g id="edge2" class="edge"><title>Node1&#45;&gt;Node3</title>
<path fill="none" stroke="midnightblue" d="M309.255,-162.544C299.155,-147.039 287.289,-128.82 276.703,-112.568"/>
<polygon fill="none" stroke="midnightblue" points="306.583,-164.855 314.974,-171.324 312.449,-161.035 306.583,-164.855"/>
</g>
<!-- Node4 -->
<g id="node4" class="node"><title>Node4</title>
<g id="a_node4"><a xlink:href="a00041.html" target="_top" xlink:title="{gr::DummyPointFilter\l::Options\&lt; Derived, TBase \&gt;\n|+ dummyFilteringResponse\l|}">
<polygon fill="white" stroke="black" points="342,-33.5 342,-101.5 496,-101.5 496,-33.5 342,-33.5"/>
<text text-anchor="start" x="350" y="-89.5" font-family="Helvetica,sans-Serif" font-size="10.00">gr::DummyPointFilter</text>
<text text-anchor="middle" x="419" y="-78.5" font-family="Helvetica,sans-Serif" font-size="10.00">::Options&lt; Derived, TBase &gt;</text>
<polyline fill="none" stroke="black" points="342,-71.5 496,-71.5 "/>
<text text-anchor="start" x="350" y="-59.5" font-family="Helvetica,sans-Serif" font-size="10.00">+ dummyFilteringResponse</text>
<polyline fill="none" stroke="black" points="342,-52.5 496,-52.5 "/>
<text text-anchor="middle" x="419" y="-40.5" font-family="Helvetica,sans-Serif" font-size="10.00"> </text>
</a>
</g>
</g>
<!-- Node1&#45;&gt;Node4 -->
<g id="edge3" class="edge"><title>Node1&#45;&gt;Node4</title>
<path fill="none" stroke="midnightblue" d="M356.819,-162.856C369.435,-143.713 384.821,-120.365 397.132,-101.684"/>
<polygon fill="none" stroke="midnightblue" points="353.819,-161.048 351.238,-171.324 359.664,-164.9 353.819,-161.048"/>
</g>
<!-- Node5 -->
<g id="node5" class="node"><title>Node5</title>
<g id="a_node5"><a xlink:href="a00040.html" target="_top" xlink:title="{gr::MatchBase\&lt; _Transform\lVisitor, OptExts \&gt;::Options\l\&lt; Derived, TBase \&gt;\n|+ delta\l+ sample_size\l+ max_time_seconds\l+ randomSeed\l+ max_angle\l+ max_translation_distance\l|}">
<polygon fill="white" stroke="black" points="514.5,-0.5 514.5,-134.5 665.5,-134.5 665.5,-0.5 514.5,-0.5"/>
<text text-anchor="start" x="522.5" y="-122.5" font-family="Helvetica,sans-Serif" font-size="10.00">gr::MatchBase&lt; _Transform</text>
<text text-anchor="start" x="522.5" y="-111.5" font-family="Helvetica,sans-Serif" font-size="10.00">Visitor, OptExts &gt;::Options</text>
<text text-anchor="middle" x="590" y="-100.5" font-family="Helvetica,sans-Serif" font-size="10.00">&lt; Derived, TBase &gt;</text>
<polyline fill="none" stroke="black" points="514.5,-93.5 665.5,-93.5 "/>
<text text-anchor="start" x="522.5" y="-81.5" font-family="Helvetica,sans-Serif" font-size="10.00">+ delta</text>
<text text-anchor="start" x="522.5" y="-70.5" font-family="Helvetica,sans-Serif" font-size="10.00">+ sample_size</text>
<text text-anchor="start" x="522.5" y="-59.5" font-family="Helvetica,sans-Serif" font-size="10.00">+ max_time_seconds</text>
<text text-anchor="start" x="522.5" y="-48.5" font-family="Helvetica,sans-Serif" font-size="10.00">+ randomSeed</text>
<text text-anchor="start" x="522.5" y="-37.5" font-family="Helvetica,sans-Serif" font-size="10.00">+ max_angle</text>
<text text-anchor="start" x="522.5" y="-26.5" font-family="Helvetica,sans-Serif" font-size="10.00">+ max_translation_distance</text>
<polyline fill="none" stroke="black" points="514.5,-19.5 665.5,-19.5 "/>
<text text-anchor="middle" x="590" y="-7.5" font-family="Helvetica,sans-Serif" font-size="10.00"> </text>
</a>
</g>
</g>
<!-- Node1&#45;&gt;Node5 -->
<g id="edge4" class="edge"><title>Node1&#45;&gt;Node5</title>
<path fill="none" stroke="midnightblue" d="M366.119,-189.995C401.756,-179.562 459.446,-160.484 505,-135 508.107,-133.262 511.221,-131.416 514.323,-129.487"/>
<polygon fill="none" stroke="midnightblue" points="364.889,-186.707 356.243,-192.831 366.821,-193.435 364.889,-186.707"/>
</g>
</g>
</svg>
