<?xml version="1.0" encoding="UTF-8" standalone="no"?>
<!DOCTYPE svg PUBLIC "-//W3C//DTD SVG 1.1//EN"
 "http://www.w3.org/Graphics/SVG/1.1/DTD/svg11.dtd">
<!-- Generated by graphviz version 2.38.0 (20140413.2041)
 -->
<!-- Title: gr::Utils::UnrollIndexLoop Pages: 1 -->
<svg width="368pt" height="46pt"
 viewBox="0.00 0.00 368.00 46.00" xmlns="http://www.w3.org/2000/svg" xmlns:xlink="http://www.w3.org/1999/xlink">
<g id="graph0" class="graph" transform="scale(1 1) rotate(0) translate(4 42)">
<title>gr::Utils::UnrollIndexLoop</title>
<polygon fill="white" stroke="none" points="-4,4 -4,-42 364,-42 364,4 -4,4"/>
<!-- Node1 -->
<g id="node1" class="node"><title>Node1</title>
<polygon fill="#bfbfbf" stroke="black" points="0,-0.5 0,-19.5 136,-19.5 136,-0.5 0,-0.5"/>
<text text-anchor="middle" x="68" y="-7.5" font-family="Helvetica,sans-Serif" font-size="10.00">gr::Utils::UnrollIndexLoop</text>
</g>
<!-- Node2 -->
<g id="node2" class="node"><title>Node2</title>
<g id="a_node2"><a xlink:href="a00038.html#a764838074033e02e9bbb2a0112bfc30e" target="_top" xlink:title="gr::Utils::OneRingNeighborhood::get">
<polygon fill="white" stroke="black" points="172,-0.5 172,-19.5 360,-19.5 360,-0.5 172,-0.5"/>
<text text-anchor="middle" x="266" y="-7.5" font-family="Helvetica,sans-Serif" font-size="10.00">gr::Utils::OneRingNeighborhood::get</text>
</a>
</g>
</g>
<!-- Node1&#45;&gt;Node2 -->
<g id="edge1" class="edge"><title>Node1&#45;&gt;Node2</title>
<path fill="none" stroke="midnightblue" d="M136.178,-10C144.461,-10 153.072,-10 161.738,-10"/>
<polygon fill="midnightblue" stroke="midnightblue" points="161.919,-13.5001 171.919,-10 161.919,-6.5001 161.919,-13.5001"/>
</g>
<!-- Node2&#45;&gt;Node2 -->
<g id="edge2" class="edge"><title>Node2&#45;&gt;Node2</title>
<path fill="none" stroke="midnightblue" d="M235.482,-19.7571C220.636,-28.5653 230.809,-38 266,-38 290.744,-38 303.119,-33.3356 303.125,-27.5043"/>
<polygon fill="midnightblue" stroke="midnightblue" points="305.67,-25.0944 296.518,-19.7571 300.344,-29.6369 305.67,-25.0944"/>
</g>
</g>
</svg>
