<?xml version="1.0" encoding="UTF-8" standalone="no"?>
<!DOCTYPE svg PUBLIC "-//W3C//DTD SVG 1.1//EN"
 "http://www.w3.org/Graphics/SVG/1.1/DTD/svg11.dtd">
<!-- Generated by graphviz version 2.38.0 (20140413.2041)
 -->
<!-- Title: gr::PairFilterConcept Pages: 1 -->
<svg width="264pt" height="160pt"
 viewBox="0.00 0.00 264.00 160.00" xmlns="http://www.w3.org/2000/svg" xmlns:xlink="http://www.w3.org/1999/xlink">
<g id="graph0" class="graph" transform="scale(1 1) rotate(0) translate(4 156)">
<title>gr::PairFilterConcept</title>
<polygon fill="white" stroke="none" points="-4,4 -4,-156 260,-156 260,4 -4,4"/>
<!-- Node1 -->
<g id="node1" class="node"><title>Node1</title>
<polygon fill="#bfbfbf" stroke="black" points="72.5,-94.5 72.5,-151.5 184.5,-151.5 184.5,-94.5 72.5,-94.5"/>
<text text-anchor="middle" x="128.5" y="-139.5" font-family="Helvetica,sans-Serif" font-size="10.00">gr::PairFilterConcept</text>
<polyline fill="none" stroke="black" points="72.5,-132.5 184.5,-132.5 "/>
<text text-anchor="middle" x="128.5" y="-120.5" font-family="Helvetica,sans-Serif" font-size="10.00"> </text>
<polyline fill="none" stroke="black" points="72.5,-113.5 184.5,-113.5 "/>
<text text-anchor="middle" x="128.5" y="-101.5" font-family="Helvetica,sans-Serif" font-size="10.00"> </text>
</g>
<!-- Node2 -->
<g id="node2" class="node"><title>Node2</title>
<g id="a_node2"><a xlink:href="a00014.html" target="_top" xlink:title="Functor used in n&#45;pcs algorithm to filters pairs of points according to the exploration basis...">
<polygon fill="white" stroke="black" points="0,-0.5 0,-57.5 121,-57.5 121,-0.5 0,-0.5"/>
<text text-anchor="middle" x="60.5" y="-45.5" font-family="Helvetica,sans-Serif" font-size="10.00">gr::AdaptivePointFilter</text>
<polyline fill="none" stroke="black" points="0,-38.5 121,-38.5 "/>
<text text-anchor="middle" x="60.5" y="-26.5" font-family="Helvetica,sans-Serif" font-size="10.00"> </text>
<polyline fill="none" stroke="black" points="0,-19.5 121,-19.5 "/>
<text text-anchor="start" x="8" y="-7.5" font-family="Helvetica,sans-Serif" font-size="10.00">+ operator()()</text>
</a>
</g>
</g>
<!-- Node1&#45;&gt;Node2 -->
<g id="edge1" class="edge"><title>Node1&#45;&gt;Node2</title>
<path fill="none" stroke="midnightblue" d="M102.066,-86.2364C95.0322,-76.7201 87.5433,-66.588 80.8878,-57.5836"/>
<polygon fill="none" stroke="midnightblue" points="99.3392,-88.4356 108.098,-94.397 104.968,-84.2748 99.3392,-88.4356"/>
</g>
<!-- Node3 -->
<g id="node3" class="node"><title>Node3</title>
<g id="a_node3"><a xlink:href="a00019.html" target="_top" xlink:title="Functor used in n&#45;pcs algorithm to filters pairs of points according to the exploration basis...">
<polygon fill="white" stroke="black" points="139,-0.5 139,-57.5 256,-57.5 256,-0.5 139,-0.5"/>
<text text-anchor="middle" x="197.5" y="-45.5" font-family="Helvetica,sans-Serif" font-size="10.00">gr::DummyPointFilter</text>
<polyline fill="none" stroke="black" points="139,-38.5 256,-38.5 "/>
<text text-anchor="middle" x="197.5" y="-26.5" font-family="Helvetica,sans-Serif" font-size="10.00"> </text>
<polyline fill="none" stroke="black" points="139,-19.5 256,-19.5 "/>
<text text-anchor="start" x="147" y="-7.5" font-family="Helvetica,sans-Serif" font-size="10.00">+ operator()()</text>
</a>
</g>
</g>
<!-- Node1&#45;&gt;Node3 -->
<g id="edge2" class="edge"><title>Node1&#45;&gt;Node3</title>
<path fill="none" stroke="midnightblue" d="M155.323,-86.2364C162.46,-76.7201 170.059,-66.588 176.812,-57.5836"/>
<polygon fill="none" stroke="midnightblue" points="152.402,-84.2969 149.202,-94.397 158.002,-88.497 152.402,-84.2969"/>
</g>
</g>
</svg>
