<?xml version="1.0" encoding="UTF-8" standalone="no"?>
<!DOCTYPE svg PUBLIC "-//W3C//DTD SVG 1.1//EN"
 "http://www.w3.org/Graphics/SVG/1.1/DTD/svg11.dtd">
<!-- Generated by graphviz version 2.38.0 (20140413.2041)
 -->
<!-- Title: gr::KdTree&lt; _Scalar, _Index &gt;::QueryNode Pages: 1 -->
<svg width="131pt" height="193pt"
 viewBox="0.00 0.00 131.00 193.00" xmlns="http://www.w3.org/2000/svg" xmlns:xlink="http://www.w3.org/1999/xlink">
<g id="graph0" class="graph" transform="scale(1 1) rotate(0) translate(4 189)">
<title>gr::KdTree&lt; _Scalar, _Index &gt;::QueryNode</title>
<polygon fill="white" stroke="none" points="-4,4 -4,-189 127,-189 127,4 -4,4"/>
<!-- Node1 -->
<g id="node1" class="node"><title>Node1</title>
<polygon fill="#bfbfbf" stroke="black" points="0,-0.5 0,-79.5 122,-79.5 122,-0.5 0,-0.5"/>
<text text-anchor="start" x="8" y="-67.5" font-family="Helvetica,sans-Serif" font-size="10.00">gr::KdTree&lt; _Scalar,</text>
<text text-anchor="middle" x="61" y="-56.5" font-family="Helvetica,sans-Serif" font-size="10.00"> _Index &gt;::QueryNode</text>
<polyline fill="none" stroke="black" points="0,-49.5 122,-49.5 "/>
<text text-anchor="middle" x="61" y="-37.5" font-family="Helvetica,sans-Serif" font-size="10.00"> </text>
<polyline fill="none" stroke="black" points="0,-30.5 122,-30.5 "/>
<text text-anchor="start" x="8" y="-18.5" font-family="Helvetica,sans-Serif" font-size="10.00">+ QueryNode()</text>
<text text-anchor="start" x="8" y="-7.5" font-family="Helvetica,sans-Serif" font-size="10.00">+ QueryNode()</text>
</g>
<!-- Node2 -->
<g id="node2" class="node"><title>Node2</title>
<polygon fill="white" stroke="#bfbfbf" points="6,-127.5 6,-184.5 58,-184.5 58,-127.5 6,-127.5"/>
<text text-anchor="middle" x="32" y="-172.5" font-family="Helvetica,sans-Serif" font-size="10.00">_Scalar</text>
<polyline fill="none" stroke="#bfbfbf" points="6,-165.5 58,-165.5 "/>
<text text-anchor="middle" x="32" y="-153.5" font-family="Helvetica,sans-Serif" font-size="10.00"> </text>
<polyline fill="none" stroke="#bfbfbf" points="6,-146.5 58,-146.5 "/>
<text text-anchor="middle" x="32" y="-134.5" font-family="Helvetica,sans-Serif" font-size="10.00"> </text>
</g>
<!-- Node2&#45;&gt;Node1 -->
<g id="edge1" class="edge"><title>Node2&#45;&gt;Node1</title>
<path fill="none" stroke="#404040" d="M38.6734,-127.435C40.9633,-118.083 43.5634,-107.579 46,-98 46.5439,-95.8617 47.1026,-93.6792 47.6698,-91.4751"/>
<polygon fill="none" stroke="#404040" points="47.7342,-91.2263 45.3689,-84.4142 50.7473,-79.6108 53.1126,-86.4229 47.7342,-91.2263"/>
<text text-anchor="middle" x="57.5" y="-101" font-family="Helvetica,sans-Serif" font-size="10.00"> +sq</text>
</g>
<!-- Node3 -->
<g id="node3" class="node"><title>Node3</title>
<g id="a_node3"><a xlink:href="a00109.html" target="_top" xlink:title="{int\n||}">
<polygon fill="white" stroke="black" points="76.5,-127.5 76.5,-184.5 105.5,-184.5 105.5,-127.5 76.5,-127.5"/>
<text text-anchor="middle" x="91" y="-172.5" font-family="Helvetica,sans-Serif" font-size="10.00">int</text>
<polyline fill="none" stroke="black" points="76.5,-165.5 105.5,-165.5 "/>
<text text-anchor="middle" x="91" y="-153.5" font-family="Helvetica,sans-Serif" font-size="10.00"> </text>
<polyline fill="none" stroke="black" points="76.5,-146.5 105.5,-146.5 "/>
<text text-anchor="middle" x="91" y="-134.5" font-family="Helvetica,sans-Serif" font-size="10.00"> </text>
</a>
</g>
</g>
<!-- Node3&#45;&gt;Node1 -->
<g id="edge2" class="edge"><title>Node3&#45;&gt;Node1</title>
<path fill="none" stroke="#404040" d="M83.7378,-127.404C80.8731,-116.518 77.4897,-103.661 74.2207,-91.2388"/>
<polygon fill="none" stroke="#404040" points="74.1962,-91.1454 68.8009,-86.361 71.1423,-79.5406 76.5375,-84.325 74.1962,-91.1454"/>
<text text-anchor="middle" x="101" y="-101" font-family="Helvetica,sans-Serif" font-size="10.00"> +nodeId</text>
</g>
</g>
</svg>
