<?xml version="1.0" encoding="UTF-8" standalone="no"?>
<!DOCTYPE svg PUBLIC "-//W3C//DTD SVG 1.1//EN"
 "http://www.w3.org/Graphics/SVG/1.1/DTD/svg11.dtd">
<!-- Generated by graphviz version 2.38.0 (20140413.2041)
 -->
<!-- Title: gr::DummyPointFilter::Options&lt; Derived, TBase &gt; Pages: 1 -->
<svg width="233pt" height="182pt"
 viewBox="0.00 0.00 233.00 182.00" xmlns="http://www.w3.org/2000/svg" xmlns:xlink="http://www.w3.org/1999/xlink">
<g id="graph0" class="graph" transform="scale(1 1) rotate(0) translate(4 178)">
<title>gr::DummyPointFilter::Options&lt; Derived, TBase &gt;</title>
<polygon fill="white" stroke="none" points="-4,4 -4,-178 229,-178 229,4 -4,4"/>
<!-- Node1 -->
<g id="node1" class="node"><title>Node1</title>
<polygon fill="#bfbfbf" stroke="black" points="0,-0.5 0,-68.5 154,-68.5 154,-0.5 0,-0.5"/>
<text text-anchor="start" x="8" y="-56.5" font-family="Helvetica,sans-Serif" font-size="10.00">gr::DummyPointFilter</text>
<text text-anchor="middle" x="77" y="-45.5" font-family="Helvetica,sans-Serif" font-size="10.00">::Options&lt; Derived, TBase &gt;</text>
<polyline fill="none" stroke="black" points="0,-38.5 154,-38.5 "/>
<text text-anchor="middle" x="77" y="-26.5" font-family="Helvetica,sans-Serif" font-size="10.00"> </text>
<polyline fill="none" stroke="black" points="0,-19.5 154,-19.5 "/>
<text text-anchor="middle" x="77" y="-7.5" font-family="Helvetica,sans-Serif" font-size="10.00"> </text>
</g>
<!-- Node2 -->
<g id="node2" class="node"><title>Node2</title>
<g id="a_node2"><a xlink:href="a00048.html" target="_top" xlink:title="{TBase\n||}">
<polygon fill="white" stroke="black" points="24,-116.5 24,-173.5 70,-173.5 70,-116.5 24,-116.5"/>
<text text-anchor="middle" x="47" y="-161.5" font-family="Helvetica,sans-Serif" font-size="10.00">TBase</text>
<polyline fill="none" stroke="black" points="24,-154.5 70,-154.5 "/>
<text text-anchor="middle" x="47" y="-142.5" font-family="Helvetica,sans-Serif" font-size="10.00"> </text>
<polyline fill="none" stroke="black" points="24,-135.5 70,-135.5 "/>
<text text-anchor="middle" x="47" y="-123.5" font-family="Helvetica,sans-Serif" font-size="10.00"> </text>
</a>
</g>
</g>
<!-- Node2&#45;&gt;Node1 -->
<g id="edge1" class="edge"><title>Node2&#45;&gt;Node1</title>
<path fill="none" stroke="midnightblue" d="M57.4082,-106.357C60.8131,-94.0427 64.5672,-80.4652 67.8704,-68.5186"/>
<polygon fill="none" stroke="midnightblue" points="53.9395,-105.769 54.6479,-116.34 60.6864,-107.635 53.9395,-105.769"/>
</g>
<!-- Node3 -->
<g id="node3" class="node"><title>Node3</title>
<polygon fill="white" stroke="#bfbfbf" points="88.5,-116.5 88.5,-173.5 125.5,-173.5 125.5,-116.5 88.5,-116.5"/>
<text text-anchor="middle" x="107" y="-161.5" font-family="Helvetica,sans-Serif" font-size="10.00">bool</text>
<polyline fill="none" stroke="#bfbfbf" points="88.5,-154.5 125.5,-154.5 "/>
<text text-anchor="middle" x="107" y="-142.5" font-family="Helvetica,sans-Serif" font-size="10.00"> </text>
<polyline fill="none" stroke="#bfbfbf" points="88.5,-135.5 125.5,-135.5 "/>
<text text-anchor="middle" x="107" y="-123.5" font-family="Helvetica,sans-Serif" font-size="10.00"> </text>
</g>
<!-- Node3&#45;&gt;Node1 -->
<g id="edge2" class="edge"><title>Node3&#45;&gt;Node1</title>
<path fill="none" stroke="#404040" d="M99.3521,-116.34C96.3315,-105.416 92.7824,-92.5798 89.4129,-80.3935"/>
<polygon fill="none" stroke="#404040" points="89.3276,-80.0846 83.8732,-75.3676 86.1296,-68.5186 91.5839,-73.2355 89.3276,-80.0846"/>
<text text-anchor="middle" x="159.5" y="-90" font-family="Helvetica,sans-Serif" font-size="10.00"> +dummyFilteringResponse</text>
</g>
</g>
</svg>
