<?xml version="1.0" encoding="UTF-8" standalone="no"?>
<!DOCTYPE svg PUBLIC "-//W3C//DTD SVG 1.1//EN"
 "http://www.w3.org/Graphics/SVG/1.1/DTD/svg11.dtd">
<!-- Generated by graphviz version 2.38.0 (20140413.2041)
 -->
<!-- Title: gr::KdTree&lt; _Scalar, _Index &gt;::RangeQuery&lt; _stackSize &gt; Pages: 1 -->
<svg width="346pt" height="320pt"
 viewBox="0.00 0.00 346.00 320.00" xmlns="http://www.w3.org/2000/svg" xmlns:xlink="http://www.w3.org/1999/xlink">
<g id="graph0" class="graph" transform="scale(1 1) rotate(0) translate(4 316)">
<title>gr::KdTree&lt; _Scalar, _Index &gt;::RangeQuery&lt; _stackSize &gt;</title>
<polygon fill="white" stroke="none" points="-4,4 -4,-316 342,-316 342,4 -4,4"/>
<!-- Node1 -->
<g id="node1" class="node"><title>Node1</title>
<polygon fill="#bfbfbf" stroke="black" points="95,-0.5 95,-79.5 221,-79.5 221,-0.5 95,-0.5"/>
<text text-anchor="start" x="103" y="-67.5" font-family="Helvetica,sans-Serif" font-size="10.00">gr::KdTree&lt; _Scalar,</text>
<text text-anchor="start" x="103" y="-56.5" font-family="Helvetica,sans-Serif" font-size="10.00"> _Index &gt;::RangeQuery</text>
<text text-anchor="middle" x="158" y="-45.5" font-family="Helvetica,sans-Serif" font-size="10.00">&lt; _stackSize &gt;</text>
<polyline fill="none" stroke="black" points="95,-38.5 221,-38.5 "/>
<text text-anchor="middle" x="158" y="-26.5" font-family="Helvetica,sans-Serif" font-size="10.00"> </text>
<polyline fill="none" stroke="black" points="95,-19.5 221,-19.5 "/>
<text text-anchor="middle" x="158" y="-7.5" font-family="Helvetica,sans-Serif" font-size="10.00"> </text>
</g>
<!-- Node2 -->
<g id="node2" class="node"><title>Node2</title>
<polygon fill="white" stroke="#bfbfbf" points="0,-138.5 0,-195.5 122,-195.5 122,-138.5 0,-138.5"/>
<text text-anchor="middle" x="61" y="-183.5" font-family="Helvetica,sans-Serif" font-size="10.00">Matrix&lt; Scalar, 3, 1 &gt;</text>
<polyline fill="none" stroke="#bfbfbf" points="0,-176.5 122,-176.5 "/>
<text text-anchor="middle" x="61" y="-164.5" font-family="Helvetica,sans-Serif" font-size="10.00"> </text>
<polyline fill="none" stroke="#bfbfbf" points="0,-157.5 122,-157.5 "/>
<text text-anchor="middle" x="61" y="-145.5" font-family="Helvetica,sans-Serif" font-size="10.00"> </text>
</g>
<!-- Node2&#45;&gt;Node1 -->
<g id="edge1" class="edge"><title>Node2&#45;&gt;Node1</title>
<path fill="none" stroke="#404040" d="M64.9198,-138.401C67.785,-125.281 72.6839,-109.903 81,-98 83.2861,-94.7277 85.8203,-91.568 88.536,-88.5286"/>
<polygon fill="none" stroke="#404040" points="88.737,-88.3246 90.1003,-81.2436 97.1611,-79.7785 95.7978,-86.8596 88.737,-88.3246"/>
<text text-anchor="middle" x="112.5" y="-101" font-family="Helvetica,sans-Serif" font-size="10.00"> +queryPoint</text>
</g>
<!-- Node3 -->
<g id="node3" class="node"><title>Node3</title>
<polygon fill="white" stroke="#bfbfbf" points="162,-254.5 162,-311.5 214,-311.5 214,-254.5 162,-254.5"/>
<text text-anchor="middle" x="188" y="-299.5" font-family="Helvetica,sans-Serif" font-size="10.00">_Scalar</text>
<polyline fill="none" stroke="#bfbfbf" points="162,-292.5 214,-292.5 "/>
<text text-anchor="middle" x="188" y="-280.5" font-family="Helvetica,sans-Serif" font-size="10.00"> </text>
<polyline fill="none" stroke="#bfbfbf" points="162,-273.5 214,-273.5 "/>
<text text-anchor="middle" x="188" y="-261.5" font-family="Helvetica,sans-Serif" font-size="10.00"> </text>
</g>
<!-- Node3&#45;&gt;Node1 -->
<g id="edge2" class="edge"><title>Node3&#45;&gt;Node1</title>
<path fill="none" stroke="#404040" d="M178.646,-254.192C174.342,-240.198 169.62,-222.876 167,-207 160.686,-168.745 158.52,-124.928 157.888,-91.9204"/>
<polygon fill="none" stroke="#404040" points="157.886,-91.832 153.801,-85.8898 157.715,-79.8333 161.8,-85.7755 157.886,-91.832"/>
<text text-anchor="middle" x="187" y="-164.5" font-family="Helvetica,sans-Serif" font-size="10.00"> +sqdist</text>
</g>
<!-- Node4 -->
<g id="node4" class="node"><title>Node4</title>
<g id="a_node4"><a xlink:href="a00045.html" target="_top" xlink:title="element of the stack ">
<polygon fill="white" stroke="black" points="216,-127.5 216,-206.5 338,-206.5 338,-127.5 216,-127.5"/>
<text text-anchor="start" x="224" y="-194.5" font-family="Helvetica,sans-Serif" font-size="10.00">gr::KdTree&lt; _Scalar,</text>
<text text-anchor="middle" x="277" y="-183.5" font-family="Helvetica,sans-Serif" font-size="10.00"> _Index &gt;::QueryNode</text>
<polyline fill="none" stroke="black" points="216,-176.5 338,-176.5 "/>
<text text-anchor="middle" x="277" y="-164.5" font-family="Helvetica,sans-Serif" font-size="10.00"> </text>
<polyline fill="none" stroke="black" points="216,-157.5 338,-157.5 "/>
<text text-anchor="start" x="224" y="-145.5" font-family="Helvetica,sans-Serif" font-size="10.00">+ QueryNode()</text>
<text text-anchor="start" x="224" y="-134.5" font-family="Helvetica,sans-Serif" font-size="10.00">+ QueryNode()</text>
</a>
</g>
</g>
<!-- Node3&#45;&gt;Node4 -->
<g id="edge4" class="edge"><title>Node3&#45;&gt;Node4</title>
<path fill="none" stroke="#404040" d="M209.544,-254.404C218.481,-242.956 229.119,-229.33 239.275,-216.322"/>
<polygon fill="none" stroke="#404040" points="239.527,-215.999 240.066,-208.808 246.911,-206.541 246.372,-213.731 239.527,-215.999"/>
<text text-anchor="middle" x="244.5" y="-228" font-family="Helvetica,sans-Serif" font-size="10.00"> +sq</text>
</g>
<!-- Node4&#45;&gt;Node1 -->
<g id="edge3" class="edge"><title>Node4&#45;&gt;Node1</title>
<path fill="none" stroke="#404040" d="M240.325,-127.476C228.562,-115.12 215.396,-101.29 203.102,-88.3764"/>
<polygon fill="none" stroke="#404040" points="203.033,-88.3034 195.999,-86.7158 194.759,-79.6121 201.793,-81.1997 203.033,-88.3034"/>
<text text-anchor="middle" x="253.5" y="-101" font-family="Helvetica,sans-Serif" font-size="10.00"> +nodeStack</text>
</g>
<!-- Node5 -->
<g id="node5" class="node"><title>Node5</title>
<g id="a_node5"><a xlink:href="a00109.html" target="_top" xlink:title="{int\n||}">
<polygon fill="white" stroke="black" points="262.5,-254.5 262.5,-311.5 291.5,-311.5 291.5,-254.5 262.5,-254.5"/>
<text text-anchor="middle" x="277" y="-299.5" font-family="Helvetica,sans-Serif" font-size="10.00">int</text>
<polyline fill="none" stroke="black" points="262.5,-292.5 291.5,-292.5 "/>
<text text-anchor="middle" x="277" y="-280.5" font-family="Helvetica,sans-Serif" font-size="10.00"> </text>
<polyline fill="none" stroke="black" points="262.5,-273.5 291.5,-273.5 "/>
<text text-anchor="middle" x="277" y="-261.5" font-family="Helvetica,sans-Serif" font-size="10.00"> </text>
</a>
</g>
</g>
<!-- Node5&#45;&gt;Node4 -->
<g id="edge5" class="edge"><title>Node5&#45;&gt;Node4</title>
<path fill="none" stroke="#404040" d="M277,-254.404C277,-243.63 277,-230.926 277,-218.623"/>
<polygon fill="none" stroke="#404040" points="277,-218.541 273,-212.541 277,-206.541 281,-212.541 277,-218.541"/>
<text text-anchor="middle" x="299" y="-228" font-family="Helvetica,sans-Serif" font-size="10.00"> +nodeId</text>
</g>
</g>
</svg>
