<?xml version="1.0" encoding="UTF-8" standalone="no"?>
<!DOCTYPE svg PUBLIC "-//W3C//DTD SVG 1.1//EN"
 "http://www.w3.org/Graphics/SVG/1.1/DTD/svg11.dtd">
<!-- Generated by graphviz version 2.38.0 (20140413.2041)
 -->
<!-- Title: gr::PairCreationFunctor&lt; _Scalar, FilterFunctor, Options &gt; Pages: 1 -->
<svg width="1137pt" height="755pt"
 viewBox="0.00 0.00 1137.00 755.00" xmlns="http://www.w3.org/2000/svg" xmlns:xlink="http://www.w3.org/1999/xlink">
<g id="graph0" class="graph" transform="scale(1 1) rotate(0) translate(4 751)">
<title>gr::PairCreationFunctor&lt; _Scalar, FilterFunctor, Options &gt;</title>
<polygon fill="white" stroke="none" points="-4,4 -4,-751 1133,-751 1133,4 -4,4"/>
<!-- Node1 -->
<g id="node1" class="node"><title>Node1</title>
<polygon fill="#bfbfbf" stroke="black" points="668,-0.5 668,-189.5 808,-189.5 808,-0.5 668,-0.5"/>
<text text-anchor="start" x="676" y="-177.5" font-family="Helvetica,sans-Serif" font-size="10.00">gr::PairCreationFunctor</text>
<text text-anchor="start" x="676" y="-166.5" font-family="Helvetica,sans-Serif" font-size="10.00">&lt; _Scalar, FilterFunctor,</text>
<text text-anchor="middle" x="738" y="-155.5" font-family="Helvetica,sans-Serif" font-size="10.00"> Options &gt;</text>
<polyline fill="none" stroke="black" points="668,-148.5 808,-148.5 "/>
<text text-anchor="middle" x="738" y="-136.5" font-family="Helvetica,sans-Serif" font-size="10.00"> </text>
<polyline fill="none" stroke="black" points="668,-129.5 808,-129.5 "/>
<text text-anchor="start" x="676" y="-117.5" font-family="Helvetica,sans-Serif" font-size="10.00">+ PairCreationFunctor()</text>
<text text-anchor="start" x="676" y="-106.5" font-family="Helvetica,sans-Serif" font-size="10.00">+ unitToWorld()</text>
<text text-anchor="start" x="676" y="-95.5" font-family="Helvetica,sans-Serif" font-size="10.00">+ unitToWorld()</text>
<text text-anchor="start" x="676" y="-84.5" font-family="Helvetica,sans-Serif" font-size="10.00">+ getPointInWorldCoord()</text>
<text text-anchor="start" x="676" y="-73.5" font-family="Helvetica,sans-Serif" font-size="10.00">+ synch3DContent()</text>
<text text-anchor="start" x="676" y="-62.5" font-family="Helvetica,sans-Serif" font-size="10.00">+ setRadius()</text>
<text text-anchor="start" x="676" y="-51.5" font-family="Helvetica,sans-Serif" font-size="10.00">+ getNormalizedEpsilon()</text>
<text text-anchor="start" x="676" y="-40.5" font-family="Helvetica,sans-Serif" font-size="10.00">+ setBase()</text>
<text text-anchor="start" x="676" y="-29.5" font-family="Helvetica,sans-Serif" font-size="10.00">+ beginPrimitiveCollect()</text>
<text text-anchor="start" x="676" y="-18.5" font-family="Helvetica,sans-Serif" font-size="10.00">+ endPrimitiveCollect()</text>
<text text-anchor="start" x="676" y="-7.5" font-family="Helvetica,sans-Serif" font-size="10.00">+ process()</text>
</g>
<!-- Node2 -->
<g id="node2" class="node"><title>Node2</title>
<polygon fill="white" stroke="#bfbfbf" points="199,-265 199,-333 367,-333 367,-265 199,-265"/>
<text text-anchor="start" x="207" y="-321" font-family="Helvetica,sans-Serif" font-size="10.00">std::vector&lt; gr::Accelerators</text>
<text text-anchor="middle" x="283" y="-310" font-family="Helvetica,sans-Serif" font-size="10.00">::PairExtraction::HyperSphere &gt;</text>
<polyline fill="none" stroke="#bfbfbf" points="199,-303 367,-303 "/>
<text text-anchor="middle" x="283" y="-291" font-family="Helvetica,sans-Serif" font-size="10.00"> </text>
<polyline fill="none" stroke="#bfbfbf" points="199,-284 367,-284 "/>
<text text-anchor="middle" x="283" y="-272" font-family="Helvetica,sans-Serif" font-size="10.00"> </text>
</g>
<!-- Node2&#45;&gt;Node1 -->
<g id="edge1" class="edge"><title>Node2&#45;&gt;Node1</title>
<path fill="none" stroke="#404040" d="M343.478,-264.862C376.614,-247.179 418.637,-225.516 457,-208 523.147,-177.799 599.943,-147.503 656.518,-126.05"/>
<polygon fill="none" stroke="#404040" points="656.688,-125.986 660.887,-120.124 667.913,-121.745 663.714,-127.608 656.688,-125.986"/>
<text text-anchor="middle" x="486" y="-222" font-family="Helvetica,sans-Serif" font-size="10.00"> +primitives</text>
</g>
<!-- Node3 -->
<g id="node3" class="node"><title>Node3</title>
<g id="a_node3"><a xlink:href="a00025.html" target="_top" xlink:title="{gr::Accelerators::PairExtraction\l::HyperSphere\&lt; Point, _dim,\l Scalar \&gt;\n||+ HyperSphere()\l+ HyperSphere()\l+ quantified()\l+ operator\&lt;()\l+ operator Point()\l+ intersect()\l+ intersectFast()\l+ intersectPoint()\l+ center()\l+ radius()\l+ radius()\l+ intersectPoint()\l}">
<polygon fill="white" stroke="black" points="0,-419.5 0,-619.5 164,-619.5 164,-419.5 0,-419.5"/>
<text text-anchor="start" x="8" y="-607.5" font-family="Helvetica,sans-Serif" font-size="10.00">gr::Accelerators::PairExtraction</text>
<text text-anchor="start" x="8" y="-596.5" font-family="Helvetica,sans-Serif" font-size="10.00">::HyperSphere&lt; Point, _dim,</text>
<text text-anchor="middle" x="82" y="-585.5" font-family="Helvetica,sans-Serif" font-size="10.00"> Scalar &gt;</text>
<polyline fill="none" stroke="black" points="0,-578.5 164,-578.5 "/>
<text text-anchor="middle" x="82" y="-566.5" font-family="Helvetica,sans-Serif" font-size="10.00"> </text>
<polyline fill="none" stroke="black" points="0,-559.5 164,-559.5 "/>
<text text-anchor="start" x="8" y="-547.5" font-family="Helvetica,sans-Serif" font-size="10.00">+ HyperSphere()</text>
<text text-anchor="start" x="8" y="-536.5" font-family="Helvetica,sans-Serif" font-size="10.00">+ HyperSphere()</text>
<text text-anchor="start" x="8" y="-525.5" font-family="Helvetica,sans-Serif" font-size="10.00">+ quantified()</text>
<text text-anchor="start" x="8" y="-514.5" font-family="Helvetica,sans-Serif" font-size="10.00">+ operator&lt;()</text>
<text text-anchor="start" x="8" y="-503.5" font-family="Helvetica,sans-Serif" font-size="10.00">+ operator Point()</text>
<text text-anchor="start" x="8" y="-492.5" font-family="Helvetica,sans-Serif" font-size="10.00">+ intersect()</text>
<text text-anchor="start" x="8" y="-481.5" font-family="Helvetica,sans-Serif" font-size="10.00">+ intersectFast()</text>
<text text-anchor="start" x="8" y="-470.5" font-family="Helvetica,sans-Serif" font-size="10.00">+ intersectPoint()</text>
<text text-anchor="start" x="8" y="-459.5" font-family="Helvetica,sans-Serif" font-size="10.00">+ center()</text>
<text text-anchor="start" x="8" y="-448.5" font-family="Helvetica,sans-Serif" font-size="10.00">+ radius()</text>
<text text-anchor="start" x="8" y="-437.5" font-family="Helvetica,sans-Serif" font-size="10.00">+ radius()</text>
<text text-anchor="start" x="8" y="-426.5" font-family="Helvetica,sans-Serif" font-size="10.00">+ intersectPoint()</text>
</a>
</g>
</g>
<!-- Node3&#45;&gt;Node2 -->
<g id="edge2" class="edge"><title>Node3&#45;&gt;Node2</title>
<path fill="none" stroke="#404040" d="M91.969,-419.135C98.2741,-396.572 108.266,-374.214 124,-357 140.747,-338.678 163.803,-326.24 187.165,-317.799"/>
<polygon fill="none" stroke="#404040" points="187.25,-317.77 191.673,-312.075 198.632,-313.968 194.208,-319.663 187.25,-317.77"/>
<text text-anchor="middle" x="152.5" y="-365.5" font-family="Helvetica,sans-Serif" font-size="10.00"> +elements</text>
</g>
<!-- Node4 -->
<g id="node4" class="node"><title>Node4</title>
<g id="a_node4"><a xlink:title="STL class. ">
<polygon fill="white" stroke="#bfbfbf" points="565.5,-491 565.5,-548 660.5,-548 660.5,-491 565.5,-491"/>
<text text-anchor="middle" x="613" y="-536" font-family="Helvetica,sans-Serif" font-size="10.00">std::vector&lt; T &gt;</text>
<polyline fill="none" stroke="#bfbfbf" points="565.5,-529 660.5,-529 "/>
<text text-anchor="middle" x="613" y="-517" font-family="Helvetica,sans-Serif" font-size="10.00"> </text>
<polyline fill="none" stroke="#bfbfbf" points="565.5,-510 660.5,-510 "/>
<text text-anchor="middle" x="613" y="-498" font-family="Helvetica,sans-Serif" font-size="10.00"> </text>
</a>
</g>
</g>
<!-- Node4&#45;&gt;Node1 -->
<g id="edge16" class="edge"><title>Node4&#45;&gt;Node1</title>
<path fill="none" stroke="#404040" d="M608.861,-490.677C602.745,-442.138 594.739,-339.483 622,-259 630.784,-233.066 645.159,-207.647 660.847,-184.885"/>
<polygon fill="none" stroke="#404040" points="660.943,-184.75 661.151,-177.542 667.885,-174.962 667.677,-182.17 660.943,-184.75"/>
<text text-anchor="middle" x="639.5" y="-296.5" font-family="Helvetica,sans-Serif" font-size="10.00"> +pairs</text>
</g>
<!-- Node4&#45;&gt;Node2 -->
<g id="edge3" class="edge"><title>Node4&#45;&gt;Node2</title>
<path fill="none" stroke="orange" d="M555.11,-509.516C483.215,-495.165 362.225,-459.939 298,-379 287.847,-366.205 283.842,-348.604 282.485,-333.263"/>
<polygon fill="orange" stroke="orange" points="554.868,-513.034 565.349,-511.485 556.19,-506.16 554.868,-513.034"/>
<text text-anchor="start" x="298" y="-371" font-family="Helvetica,sans-Serif" font-size="10.00"> &lt; gr::Accelerators</text>
<text text-anchor="middle" x="374" y="-360" font-family="Helvetica,sans-Serif" font-size="10.00">::PairExtraction::HyperSphere &gt;</text>
</g>
<!-- Node8 -->
<g id="node8" class="node"><title>Node8</title>
<polygon fill="white" stroke="#bfbfbf" points="394,-259.5 394,-338.5 522,-338.5 522,-259.5 394,-259.5"/>
<text text-anchor="start" x="402" y="-326.5" font-family="Helvetica,sans-Serif" font-size="10.00">std::vector&lt; typename</text>
<text text-anchor="start" x="402" y="-315.5" font-family="Helvetica,sans-Serif" font-size="10.00"> gr::PairCreationFunctor</text>
<text text-anchor="middle" x="458" y="-304.5" font-family="Helvetica,sans-Serif" font-size="10.00">::Point &gt;</text>
<polyline fill="none" stroke="#bfbfbf" points="394,-297.5 522,-297.5 "/>
<text text-anchor="middle" x="458" y="-285.5" font-family="Helvetica,sans-Serif" font-size="10.00"> </text>
<polyline fill="none" stroke="#bfbfbf" points="394,-278.5 522,-278.5 "/>
<text text-anchor="middle" x="458" y="-266.5" font-family="Helvetica,sans-Serif" font-size="10.00"> </text>
</g>
<!-- Node4&#45;&gt;Node8 -->
<g id="edge9" class="edge"><title>Node4&#45;&gt;Node8</title>
<path fill="none" stroke="orange" d="M557.292,-485.307C522.005,-460.844 479.322,-424.057 459,-379 453.417,-366.622 452.003,-352.003 452.367,-338.727"/>
<polygon fill="orange" stroke="orange" points="555.379,-488.238 565.62,-490.951 559.305,-482.444 555.379,-488.238"/>
<text text-anchor="start" x="459" y="-371" font-family="Helvetica,sans-Serif" font-size="10.00"> &lt; typename gr::PairCreation</text>
<text text-anchor="middle" x="529" y="-360" font-family="Helvetica,sans-Serif" font-size="10.00">Functor::Point &gt;</text>
</g>
<!-- Node10 -->
<g id="node10" class="node"><title>Node10</title>
<polygon fill="white" stroke="#bfbfbf" points="666.5,-270.5 666.5,-327.5 809.5,-327.5 809.5,-270.5 666.5,-270.5"/>
<text text-anchor="middle" x="738" y="-315.5" font-family="Helvetica,sans-Serif" font-size="10.00">std::vector&lt; gr::Point3D &gt;</text>
<polyline fill="none" stroke="#bfbfbf" points="666.5,-308.5 809.5,-308.5 "/>
<text text-anchor="middle" x="738" y="-296.5" font-family="Helvetica,sans-Serif" font-size="10.00"> </text>
<polyline fill="none" stroke="#bfbfbf" points="666.5,-289.5 809.5,-289.5 "/>
<text text-anchor="middle" x="738" y="-277.5" font-family="Helvetica,sans-Serif" font-size="10.00"> </text>
</g>
<!-- Node4&#45;&gt;Node10 -->
<g id="edge12" class="edge"><title>Node4&#45;&gt;Node10</title>
<path fill="none" stroke="orange" d="M612.804,-480.518C614.399,-445.523 621.438,-393.624 647,-357 655.109,-345.382 666.423,-335.639 678.325,-327.681"/>
<polygon fill="orange" stroke="orange" points="609.297,-480.691 612.469,-490.8 616.293,-480.919 609.297,-480.691"/>
<text text-anchor="middle" x="686.5" y="-365.5" font-family="Helvetica,sans-Serif" font-size="10.00"> &lt; gr::Point3D &gt;</text>
</g>
<!-- Node12 -->
<g id="node12" class="node"><title>Node12</title>
<polygon fill="white" stroke="#bfbfbf" points="828,-265 828,-333 950,-333 950,-265 828,-265"/>
<text text-anchor="start" x="836" y="-321" font-family="Helvetica,sans-Serif" font-size="10.00">std::vector&lt; unsigned</text>
<text text-anchor="middle" x="889" y="-310" font-family="Helvetica,sans-Serif" font-size="10.00"> int &gt;</text>
<polyline fill="none" stroke="#bfbfbf" points="828,-303 950,-303 "/>
<text text-anchor="middle" x="889" y="-291" font-family="Helvetica,sans-Serif" font-size="10.00"> </text>
<polyline fill="none" stroke="#bfbfbf" points="828,-284 950,-284 "/>
<text text-anchor="middle" x="889" y="-272" font-family="Helvetica,sans-Serif" font-size="10.00"> </text>
</g>
<!-- Node4&#45;&gt;Node12 -->
<g id="edge15" class="edge"><title>Node4&#45;&gt;Node12</title>
<path fill="none" stroke="orange" d="M641.526,-483.035C679.306,-436.146 741.6,-359.149 745,-357 773.247,-339.146 786.87,-351.147 818,-339 822.586,-337.211 827.244,-335.182 831.871,-333.012"/>
<polygon fill="orange" stroke="orange" points="638.778,-480.867 635.231,-490.85 644.23,-485.257 638.778,-480.867"/>
<text text-anchor="middle" x="787.5" y="-365.5" font-family="Helvetica,sans-Serif" font-size="10.00"> &lt; unsigned int &gt;</text>
</g>
<!-- Node5 -->
<g id="node5" class="node"><title>Node5</title>
<polygon fill="white" stroke="#bfbfbf" points="598.5,-689.5 598.5,-746.5 627.5,-746.5 627.5,-689.5 598.5,-689.5"/>
<text text-anchor="middle" x="613" y="-734.5" font-family="Helvetica,sans-Serif" font-size="10.00">T</text>
<polyline fill="none" stroke="#bfbfbf" points="598.5,-727.5 627.5,-727.5 "/>
<text text-anchor="middle" x="613" y="-715.5" font-family="Helvetica,sans-Serif" font-size="10.00"> </text>
<polyline fill="none" stroke="#bfbfbf" points="598.5,-708.5 627.5,-708.5 "/>
<text text-anchor="middle" x="613" y="-696.5" font-family="Helvetica,sans-Serif" font-size="10.00"> </text>
</g>
<!-- Node5&#45;&gt;Node4 -->
<g id="edge4" class="edge"><title>Node5&#45;&gt;Node4</title>
<path fill="none" stroke="#404040" d="M613,-689.263C613,-655.616 613,-598.651 613,-560.32"/>
<polygon fill="none" stroke="#404040" points="613,-560.096 609,-554.096 613,-548.096 617,-554.096 613,-560.096"/>
<text text-anchor="middle" x="641.5" y="-663" font-family="Helvetica,sans-Serif" font-size="10.00"> +elements</text>
</g>
<!-- Node6 -->
<g id="node6" class="node"><title>Node6</title>
<polygon fill="white" stroke="#bfbfbf" points="968.5,-270.5 968.5,-327.5 1017.5,-327.5 1017.5,-270.5 968.5,-270.5"/>
<text text-anchor="middle" x="993" y="-315.5" font-family="Helvetica,sans-Serif" font-size="10.00">double</text>
<polyline fill="none" stroke="#bfbfbf" points="968.5,-308.5 1017.5,-308.5 "/>
<text text-anchor="middle" x="993" y="-296.5" font-family="Helvetica,sans-Serif" font-size="10.00"> </text>
<polyline fill="none" stroke="#bfbfbf" points="968.5,-289.5 1017.5,-289.5 "/>
<text text-anchor="middle" x="993" y="-277.5" font-family="Helvetica,sans-Serif" font-size="10.00"> </text>
</g>
<!-- Node6&#45;&gt;Node1 -->
<g id="edge5" class="edge"><title>Node6&#45;&gt;Node1</title>
<path fill="none" stroke="#404040" d="M970.32,-270.435C966.671,-266.464 962.831,-262.531 959,-259 915.256,-218.684 861.65,-178.944 818.189,-148.797"/>
<polygon fill="none" stroke="#404040" points="818.107,-148.741 810.897,-148.63 808.227,-141.931 815.437,-142.042 818.107,-148.741"/>
<text text-anchor="middle" x="993" y="-233" font-family="Helvetica,sans-Serif" font-size="10.00"> +pair_distance</text>
<text text-anchor="middle" x="993" y="-222" font-family="Helvetica,sans-Serif" font-size="10.00">+pair_distance_epsilon</text>
<text text-anchor="middle" x="993" y="-211" font-family="Helvetica,sans-Serif" font-size="10.00">+pair_normals_angle</text>
</g>
<!-- Node7 -->
<g id="node7" class="node"><title>Node7</title>
<polygon fill="white" stroke="#bfbfbf" points="1068.5,-270.5 1068.5,-327.5 1121.5,-327.5 1121.5,-270.5 1068.5,-270.5"/>
<text text-anchor="middle" x="1095" y="-315.5" font-family="Helvetica,sans-Serif" font-size="10.00">Options</text>
<polyline fill="none" stroke="#bfbfbf" points="1068.5,-308.5 1121.5,-308.5 "/>
<text text-anchor="middle" x="1095" y="-296.5" font-family="Helvetica,sans-Serif" font-size="10.00"> </text>
<polyline fill="none" stroke="#bfbfbf" points="1068.5,-289.5 1121.5,-289.5 "/>
<text text-anchor="middle" x="1095" y="-277.5" font-family="Helvetica,sans-Serif" font-size="10.00"> </text>
</g>
<!-- Node7&#45;&gt;Node1 -->
<g id="edge6" class="edge"><title>Node7&#45;&gt;Node1</title>
<path fill="none" stroke="#404040" d="M1088.21,-270.152C1082.06,-250.361 1071.12,-224.472 1053,-208 987.979,-148.88 889.682,-120.514 820.215,-107.204"/>
<polygon fill="none" stroke="#404040" points="819.831,-107.134 813.207,-109.984 808.028,-104.966 814.652,-102.116 819.831,-107.134"/>
<text text-anchor="middle" x="1103" y="-222" font-family="Helvetica,sans-Serif" font-size="10.00"> +options_</text>
</g>
<!-- Node8&#45;&gt;Node1 -->
<g id="edge7" class="edge"><title>Node8&#45;&gt;Node1</title>
<path fill="none" stroke="#404040" d="M497.958,-259.084C515.725,-242.57 537.278,-223.581 558,-208 589.187,-184.551 625.414,-161.315 657.157,-142.138"/>
<polygon fill="none" stroke="#404040" points="657.444,-141.966 660.533,-135.45 667.736,-135.796 664.647,-142.312 657.444,-141.966"/>
<text text-anchor="middle" x="578.5" y="-222" font-family="Helvetica,sans-Serif" font-size="10.00"> +points</text>
</g>
<!-- Node9 -->
<g id="node9" class="node"><title>Node9</title>
<polygon fill="white" stroke="#bfbfbf" points="182.5,-491 182.5,-548 223.5,-548 223.5,-491 182.5,-491"/>
<text text-anchor="middle" x="203" y="-536" font-family="Helvetica,sans-Serif" font-size="10.00">Point</text>
<polyline fill="none" stroke="#bfbfbf" points="182.5,-529 223.5,-529 "/>
<text text-anchor="middle" x="203" y="-517" font-family="Helvetica,sans-Serif" font-size="10.00"> </text>
<polyline fill="none" stroke="#bfbfbf" points="182.5,-510 223.5,-510 "/>
<text text-anchor="middle" x="203" y="-498" font-family="Helvetica,sans-Serif" font-size="10.00"> </text>
</g>
<!-- Node9&#45;&gt;Node8 -->
<g id="edge8" class="edge"><title>Node9&#45;&gt;Node8</title>
<path fill="none" stroke="#404040" d="M193.248,-490.839C182.613,-455.12 171.141,-393.251 204,-357 229.81,-328.526 339.004,-349.403 376,-339 378.127,-338.402 380.267,-337.752 382.412,-337.059"/>
<polygon fill="none" stroke="#404040" points="382.582,-336.998 386.893,-331.217 393.887,-332.973 389.577,-338.754 382.582,-336.998"/>
<text text-anchor="middle" x="232.5" y="-365.5" font-family="Helvetica,sans-Serif" font-size="10.00"> +elements</text>
</g>
<!-- Node10&#45;&gt;Node1 -->
<g id="edge10" class="edge"><title>Node10&#45;&gt;Node1</title>
<path fill="none" stroke="#404040" d="M738,-270.336C738,-252.147 738,-227.072 738,-201.606"/>
<polygon fill="none" stroke="#404040" points="738,-201.503 734,-195.504 738,-189.503 742,-195.503 738,-201.503"/>
<text text-anchor="middle" x="750.5" y="-222" font-family="Helvetica,sans-Serif" font-size="10.00"> +Q_</text>
</g>
<!-- Node11 -->
<g id="node11" class="node"><title>Node11</title>
<g id="a_node11"><a xlink:href="a00044.html" target="_top" xlink:title="The basic 3D point structure. A point potentially contains also directional information and color...">
<polygon fill="white" stroke="black" points="811.5,-397.5 811.5,-641.5 900.5,-641.5 900.5,-397.5 811.5,-397.5"/>
<text text-anchor="middle" x="856" y="-629.5" font-family="Helvetica,sans-Serif" font-size="10.00">gr::Point3D</text>
<polyline fill="none" stroke="black" points="811.5,-622.5 900.5,-622.5 "/>
<text text-anchor="middle" x="856" y="-610.5" font-family="Helvetica,sans-Serif" font-size="10.00"> </text>
<polyline fill="none" stroke="black" points="811.5,-603.5 900.5,-603.5 "/>
<text text-anchor="start" x="819.5" y="-591.5" font-family="Helvetica,sans-Serif" font-size="10.00">+ Point3D()</text>
<text text-anchor="start" x="819.5" y="-580.5" font-family="Helvetica,sans-Serif" font-size="10.00">+ Point3D()</text>
<text text-anchor="start" x="819.5" y="-569.5" font-family="Helvetica,sans-Serif" font-size="10.00">+ Point3D()</text>
<text text-anchor="start" x="819.5" y="-558.5" font-family="Helvetica,sans-Serif" font-size="10.00">+ Point3D()</text>
<text text-anchor="start" x="819.5" y="-547.5" font-family="Helvetica,sans-Serif" font-size="10.00">+ pos()</text>
<text text-anchor="start" x="819.5" y="-536.5" font-family="Helvetica,sans-Serif" font-size="10.00">+ pos()</text>
<text text-anchor="start" x="819.5" y="-525.5" font-family="Helvetica,sans-Serif" font-size="10.00">+ rgb()</text>
<text text-anchor="start" x="819.5" y="-514.5" font-family="Helvetica,sans-Serif" font-size="10.00">+ normal()</text>
<text text-anchor="start" x="819.5" y="-503.5" font-family="Helvetica,sans-Serif" font-size="10.00">+ set_rgb()</text>
<text text-anchor="start" x="819.5" y="-492.5" font-family="Helvetica,sans-Serif" font-size="10.00">+ set_normal()</text>
<text text-anchor="start" x="819.5" y="-481.5" font-family="Helvetica,sans-Serif" font-size="10.00">+ normalize()</text>
<text text-anchor="start" x="819.5" y="-470.5" font-family="Helvetica,sans-Serif" font-size="10.00">+ hasColor()</text>
<text text-anchor="start" x="819.5" y="-459.5" font-family="Helvetica,sans-Serif" font-size="10.00">+ x()</text>
<text text-anchor="start" x="819.5" y="-448.5" font-family="Helvetica,sans-Serif" font-size="10.00">+ y()</text>
<text text-anchor="start" x="819.5" y="-437.5" font-family="Helvetica,sans-Serif" font-size="10.00">+ z()</text>
<text text-anchor="start" x="819.5" y="-426.5" font-family="Helvetica,sans-Serif" font-size="10.00">+ x()</text>
<text text-anchor="start" x="819.5" y="-415.5" font-family="Helvetica,sans-Serif" font-size="10.00">+ y()</text>
<text text-anchor="start" x="819.5" y="-404.5" font-family="Helvetica,sans-Serif" font-size="10.00">+ z()</text>
</a>
</g>
</g>
<!-- Node11&#45;&gt;Node10 -->
<g id="edge11" class="edge"><title>Node11&#45;&gt;Node10</title>
<path fill="none" stroke="#404040" d="M851.723,-397.234C847.751,-382.945 842.049,-369.148 834,-357 828.382,-348.522 821.035,-341.125 812.903,-334.722"/>
<polygon fill="none" stroke="#404040" points="812.803,-334.65 805.596,-334.404 803.052,-327.656 810.259,-327.903 812.803,-334.65"/>
<text text-anchor="middle" x="873.5" y="-365.5" font-family="Helvetica,sans-Serif" font-size="10.00"> +elements</text>
</g>
<!-- Node12&#45;&gt;Node1 -->
<g id="edge13" class="edge"><title>Node12&#45;&gt;Node1</title>
<path fill="none" stroke="#404040" d="M864.065,-264.644C850.519,-246.522 832.953,-223.023 815.258,-199.352"/>
<polygon fill="none" stroke="#404040" points="815.132,-199.183 808.336,-196.772 807.947,-189.572 814.743,-191.982 815.132,-199.183"/>
<text text-anchor="middle" x="857.5" y="-222" font-family="Helvetica,sans-Serif" font-size="10.00"> +ids</text>
</g>
<!-- Node13 -->
<g id="node13" class="node"><title>Node13</title>
<g id="a_node13"><a xlink:href="a00109.html" target="_top" xlink:title="{int\n||}">
<polygon fill="white" stroke="black" points="921.5,-491 921.5,-548 950.5,-548 950.5,-491 921.5,-491"/>
<text text-anchor="middle" x="936" y="-536" font-family="Helvetica,sans-Serif" font-size="10.00">int</text>
<polyline fill="none" stroke="black" points="921.5,-529 950.5,-529 "/>
<text text-anchor="middle" x="936" y="-517" font-family="Helvetica,sans-Serif" font-size="10.00"> </text>
<polyline fill="none" stroke="black" points="921.5,-510 950.5,-510 "/>
<text text-anchor="middle" x="936" y="-498" font-family="Helvetica,sans-Serif" font-size="10.00"> </text>
</a>
</g>
</g>
<!-- Node13&#45;&gt;Node12 -->
<g id="edge14" class="edge"><title>Node13&#45;&gt;Node12</title>
<path fill="none" stroke="#404040" d="M934.574,-490.882C932.362,-458.342 926.918,-402.897 914,-357 912.853,-352.924 911.471,-348.76 909.953,-344.631"/>
<polygon fill="none" stroke="#404040" points="909.836,-344.336 903.901,-340.241 905.398,-333.187 911.333,-337.282 909.836,-344.336"/>
<text text-anchor="middle" x="948.5" y="-365.5" font-family="Helvetica,sans-Serif" font-size="10.00"> +elements</text>
</g>
</g>
</svg>
