<?xml version="1.0" encoding="UTF-8" standalone="no"?>
<!DOCTYPE svg PUBLIC "-//W3C//DTD SVG 1.1//EN"
 "http://www.w3.org/Graphics/SVG/1.1/DTD/svg11.dtd">
<!-- Generated by graphviz version 2.38.0 (20140413.2041)
 -->
<!-- Title: gr::KdTree&lt; _Scalar, _Index &gt;::KdNode Pages: 1 -->
<svg width="333pt" height="215pt"
 viewBox="0.00 0.00 333.00 215.00" xmlns="http://www.w3.org/2000/svg" xmlns:xlink="http://www.w3.org/1999/xlink">
<g id="graph0" class="graph" transform="scale(1 1) rotate(0) translate(4 211)">
<title>gr::KdTree&lt; _Scalar, _Index &gt;::KdNode</title>
<polygon fill="white" stroke="none" points="-4,4 -4,-211 329,-211 329,4 -4,4"/>
<!-- Node1 -->
<g id="node1" class="node"><title>Node1</title>
<polygon fill="#bfbfbf" stroke="black" points="105.5,-0.5 105.5,-68.5 218.5,-68.5 218.5,-0.5 105.5,-0.5"/>
<text text-anchor="start" x="113.5" y="-56.5" font-family="Helvetica,sans-Serif" font-size="10.00">gr::KdTree&lt; _Scalar,</text>
<text text-anchor="middle" x="162" y="-45.5" font-family="Helvetica,sans-Serif" font-size="10.00"> _Index &gt;::KdNode</text>
<polyline fill="none" stroke="black" points="105.5,-38.5 218.5,-38.5 "/>
<text text-anchor="middle" x="162" y="-26.5" font-family="Helvetica,sans-Serif" font-size="10.00"> </text>
<polyline fill="none" stroke="black" points="105.5,-19.5 218.5,-19.5 "/>
<text text-anchor="middle" x="162" y="-7.5" font-family="Helvetica,sans-Serif" font-size="10.00"> </text>
</g>
<!-- Node2 -->
<g id="node2" class="node"><title>Node2</title>
<polygon fill="white" stroke="#bfbfbf" points="0,-149.5 0,-206.5 38,-206.5 38,-149.5 0,-149.5"/>
<text text-anchor="middle" x="19" y="-194.5" font-family="Helvetica,sans-Serif" font-size="10.00">float</text>
<polyline fill="none" stroke="#bfbfbf" points="0,-187.5 38,-187.5 "/>
<text text-anchor="middle" x="19" y="-175.5" font-family="Helvetica,sans-Serif" font-size="10.00"> </text>
<polyline fill="none" stroke="#bfbfbf" points="0,-168.5 38,-168.5 "/>
<text text-anchor="middle" x="19" y="-156.5" font-family="Helvetica,sans-Serif" font-size="10.00"> </text>
</g>
<!-- Node2&#45;&gt;Node1 -->
<g id="edge1" class="edge"><title>Node2&#45;&gt;Node1</title>
<path fill="none" stroke="#404040" d="M27.6468,-149.482C34.8593,-130.108 46.7596,-104.592 64,-87 72.8184,-78.0017 83.5461,-70.2349 94.6273,-63.659"/>
<polygon fill="none" stroke="#404040" points="94.822,-63.5507 98.1212,-57.1386 105.309,-57.7178 102.01,-64.1299 94.822,-63.5507"/>
<text text-anchor="middle" x="93" y="-106.5" font-family="Helvetica,sans-Serif" font-size="10.00"> +splitValue</text>
</g>
<!-- Node3 -->
<g id="node3" class="node"><title>Node3</title>
<polygon fill="white" stroke="#bfbfbf" points="56,-149.5 56,-206.5 156,-206.5 156,-149.5 56,-149.5"/>
<text text-anchor="middle" x="106" y="-194.5" font-family="Helvetica,sans-Serif" font-size="10.00">anonymous:+@1</text>
<polyline fill="none" stroke="#bfbfbf" points="56,-187.5 156,-187.5 "/>
<text text-anchor="middle" x="106" y="-175.5" font-family="Helvetica,sans-Serif" font-size="10.00"> </text>
<polyline fill="none" stroke="#bfbfbf" points="56,-168.5 156,-168.5 "/>
<text text-anchor="middle" x="106" y="-156.5" font-family="Helvetica,sans-Serif" font-size="10.00"> </text>
</g>
<!-- Node3&#45;&gt;Node1 -->
<g id="edge2" class="edge"><title>Node3&#45;&gt;Node1</title>
<path fill="none" stroke="#404040" d="M116.93,-149.381C124.737,-129.657 135.405,-102.699 144.403,-79.963"/>
<polygon fill="none" stroke="#404040" points="144.516,-79.6772 143.005,-72.6262 148.932,-68.5192 150.444,-75.5701 144.516,-79.6772"/>
<text text-anchor="middle" x="155" y="-106.5" font-family="Helvetica,sans-Serif" font-size="10.00"> +@1</text>
</g>
<!-- Node4 -->
<g id="node4" class="node"><title>Node4</title>
<polygon fill="white" stroke="#bfbfbf" points="174,-149.5 174,-206.5 262,-206.5 262,-149.5 174,-149.5"/>
<text text-anchor="middle" x="218" y="-194.5" font-family="Helvetica,sans-Serif" font-size="10.00">unsigned short</text>
<polyline fill="none" stroke="#bfbfbf" points="174,-187.5 262,-187.5 "/>
<text text-anchor="middle" x="218" y="-175.5" font-family="Helvetica,sans-Serif" font-size="10.00"> </text>
<polyline fill="none" stroke="#bfbfbf" points="174,-168.5 262,-168.5 "/>
<text text-anchor="middle" x="218" y="-156.5" font-family="Helvetica,sans-Serif" font-size="10.00"> </text>
</g>
<!-- Node4&#45;&gt;Node1 -->
<g id="edge3" class="edge"><title>Node4&#45;&gt;Node1</title>
<path fill="none" stroke="#404040" d="M207.07,-149.381C199.263,-129.657 188.595,-102.699 179.597,-79.963"/>
<polygon fill="none" stroke="#404040" points="179.484,-79.6772 173.556,-75.5701 175.068,-68.5192 180.995,-72.6262 179.484,-79.6772"/>
<text text-anchor="middle" x="214.5" y="-106.5" font-family="Helvetica,sans-Serif" font-size="10.00"> +size</text>
</g>
<!-- Node5 -->
<g id="node5" class="node"><title>Node5</title>
<g id="a_node5"><a xlink:href="a00109.html" target="_top" xlink:title="{int\n||}">
<polygon fill="white" stroke="black" points="280.5,-149.5 280.5,-206.5 309.5,-206.5 309.5,-149.5 280.5,-149.5"/>
<text text-anchor="middle" x="295" y="-194.5" font-family="Helvetica,sans-Serif" font-size="10.00">int</text>
<polyline fill="none" stroke="black" points="280.5,-187.5 309.5,-187.5 "/>
<text text-anchor="middle" x="295" y="-175.5" font-family="Helvetica,sans-Serif" font-size="10.00"> </text>
<polyline fill="none" stroke="black" points="280.5,-168.5 309.5,-168.5 "/>
<text text-anchor="middle" x="295" y="-156.5" font-family="Helvetica,sans-Serif" font-size="10.00"> </text>
</a>
</g>
</g>
<!-- Node5&#45;&gt;Node1 -->
<g id="edge4" class="edge"><title>Node5&#45;&gt;Node1</title>
<path fill="none" stroke="#404040" d="M280.379,-150.368C269.198,-131.423 252.58,-106.056 234,-87 230.439,-83.3482 226.592,-79.7777 222.592,-76.3288"/>
<polygon fill="none" stroke="#404040" points="222.333,-76.1177 215.156,-75.4159 213.044,-68.5211 220.221,-69.2229 222.333,-76.1177"/>
<text text-anchor="middle" x="296" y="-123" font-family="Helvetica,sans-Serif" font-size="10.00"> +start</text>
<text text-anchor="middle" x="296" y="-112" font-family="Helvetica,sans-Serif" font-size="10.00">+leaf</text>
<text text-anchor="middle" x="296" y="-101" font-family="Helvetica,sans-Serif" font-size="10.00">+dim</text>
<text text-anchor="middle" x="296" y="-90" font-family="Helvetica,sans-Serif" font-size="10.00">+firstChildId</text>
</g>
</g>
</svg>
