<?xml version="1.0" encoding="UTF-8" standalone="no"?>
<!DOCTYPE svg PUBLIC "-//W3C//DTD SVG 1.1//EN"
 "http://www.w3.org/Graphics/SVG/1.1/DTD/svg11.dtd">
<!-- Generated by graphviz version 2.38.0 (20140413.2041)
 -->
<!-- Title: gr::MatchBase&lt; _TransformVisitor, OptExts &gt; Pages: 1 -->
<svg width="1665pt" height="1372pt"
 viewBox="0.00 0.00 1665.00 1372.00" xmlns="http://www.w3.org/2000/svg" xmlns:xlink="http://www.w3.org/1999/xlink">
<g id="graph0" class="graph" transform="scale(1 1) rotate(0) translate(4 1368)">
<title>gr::MatchBase&lt; _TransformVisitor, OptExts &gt;</title>
<polygon fill="white" stroke="none" points="-4,4 -4,-1368 1661,-1368 1661,4 -4,4"/>
<!-- Node1 -->
<g id="node1" class="node"><title>Node1</title>
<polygon fill="#bfbfbf" stroke="black" points="981.5,-0.5 981.5,-178.5 1154.5,-178.5 1154.5,-0.5 981.5,-0.5"/>
<text text-anchor="start" x="989.5" y="-166.5" font-family="Helvetica,sans-Serif" font-size="10.00">gr::MatchBase&lt; _Transform</text>
<text text-anchor="middle" x="1068" y="-155.5" font-family="Helvetica,sans-Serif" font-size="10.00">Visitor, OptExts &gt;</text>
<polyline fill="none" stroke="black" points="981.5,-148.5 1154.5,-148.5 "/>
<text text-anchor="middle" x="1068" y="-136.5" font-family="Helvetica,sans-Serif" font-size="10.00"> </text>
<polyline fill="none" stroke="black" points="981.5,-129.5 1154.5,-129.5 "/>
<text text-anchor="start" x="989.5" y="-117.5" font-family="Helvetica,sans-Serif" font-size="10.00">+ MatchBase()</text>
<text text-anchor="start" x="989.5" y="-106.5" font-family="Helvetica,sans-Serif" font-size="10.00">+ ~MatchBase()</text>
<text text-anchor="start" x="989.5" y="-95.5" font-family="Helvetica,sans-Serif" font-size="10.00">+ getFirstSampled()</text>
<text text-anchor="start" x="989.5" y="-84.5" font-family="Helvetica,sans-Serif" font-size="10.00">+ getSecondSampled()</text>
<text text-anchor="start" x="989.5" y="-73.5" font-family="Helvetica,sans-Serif" font-size="10.00">+ ComputeTransformation()</text>
<text text-anchor="start" x="989.5" y="-62.5" font-family="Helvetica,sans-Serif" font-size="10.00"># Log()</text>
<text text-anchor="start" x="989.5" y="-51.5" font-family="Helvetica,sans-Serif" font-size="10.00"># MeanDistance()</text>
<text text-anchor="start" x="989.5" y="-40.5" font-family="Helvetica,sans-Serif" font-size="10.00"># SelectRandomTriangle()</text>
<text text-anchor="start" x="989.5" y="-29.5" font-family="Helvetica,sans-Serif" font-size="10.00"># ComputeRigidTransformation()</text>
<text text-anchor="start" x="989.5" y="-18.5" font-family="Helvetica,sans-Serif" font-size="10.00"># Initialize()</text>
<text text-anchor="start" x="989.5" y="-7.5" font-family="Helvetica,sans-Serif" font-size="10.00"># init()</text>
</g>
<!-- Node2 -->
<g id="node2" class="node"><title>Node2</title>
<g id="a_node2"><a xlink:href="a00031.html" target="_top" xlink:title="{gr::KdTree\&lt; Scalar \&gt;\n||+ _getNodes()\l+ _getPoints()\l+ _getIndices()\l+ KdTree()\l+ KdTree()\l+ add()\l+ add()\l+ finalize()\l+ aabb()\l+ ~KdTree()\l+ doQueryDist()\l+ doQueryDistIndices()\l+ doQueryDistProcessIndices()\l+ doQueryRestrictedClosest\lIndex()\l+ invalidIndex()\l# split()\l# createTree()\l# _doQueryDistIndicesWithFunctor()\l}">
<polygon fill="white" stroke="black" points="453,-259.5 453,-514.5 641,-514.5 641,-259.5 453,-259.5"/>
<text text-anchor="middle" x="547" y="-502.5" font-family="Helvetica,sans-Serif" font-size="10.00">gr::KdTree&lt; Scalar &gt;</text>
<polyline fill="none" stroke="black" points="453,-495.5 641,-495.5 "/>
<text text-anchor="middle" x="547" y="-483.5" font-family="Helvetica,sans-Serif" font-size="10.00"> </text>
<polyline fill="none" stroke="black" points="453,-476.5 641,-476.5 "/>
<text text-anchor="start" x="461" y="-464.5" font-family="Helvetica,sans-Serif" font-size="10.00">+ _getNodes()</text>
<text text-anchor="start" x="461" y="-453.5" font-family="Helvetica,sans-Serif" font-size="10.00">+ _getPoints()</text>
<text text-anchor="start" x="461" y="-442.5" font-family="Helvetica,sans-Serif" font-size="10.00">+ _getIndices()</text>
<text text-anchor="start" x="461" y="-431.5" font-family="Helvetica,sans-Serif" font-size="10.00">+ KdTree()</text>
<text text-anchor="start" x="461" y="-420.5" font-family="Helvetica,sans-Serif" font-size="10.00">+ KdTree()</text>
<text text-anchor="start" x="461" y="-409.5" font-family="Helvetica,sans-Serif" font-size="10.00">+ add()</text>
<text text-anchor="start" x="461" y="-398.5" font-family="Helvetica,sans-Serif" font-size="10.00">+ add()</text>
<text text-anchor="start" x="461" y="-387.5" font-family="Helvetica,sans-Serif" font-size="10.00">+ finalize()</text>
<text text-anchor="start" x="461" y="-376.5" font-family="Helvetica,sans-Serif" font-size="10.00">+ aabb()</text>
<text text-anchor="start" x="461" y="-365.5" font-family="Helvetica,sans-Serif" font-size="10.00">+ ~KdTree()</text>
<text text-anchor="start" x="461" y="-354.5" font-family="Helvetica,sans-Serif" font-size="10.00">+ doQueryDist()</text>
<text text-anchor="start" x="461" y="-343.5" font-family="Helvetica,sans-Serif" font-size="10.00">+ doQueryDistIndices()</text>
<text text-anchor="start" x="461" y="-332.5" font-family="Helvetica,sans-Serif" font-size="10.00">+ doQueryDistProcessIndices()</text>
<text text-anchor="start" x="461" y="-321.5" font-family="Helvetica,sans-Serif" font-size="10.00">+ doQueryRestrictedClosest</text>
<text text-anchor="start" x="461" y="-310.5" font-family="Helvetica,sans-Serif" font-size="10.00">Index()</text>
<text text-anchor="start" x="461" y="-299.5" font-family="Helvetica,sans-Serif" font-size="10.00">+ invalidIndex()</text>
<text text-anchor="start" x="461" y="-288.5" font-family="Helvetica,sans-Serif" font-size="10.00"># split()</text>
<text text-anchor="start" x="461" y="-277.5" font-family="Helvetica,sans-Serif" font-size="10.00"># createTree()</text>
<text text-anchor="start" x="461" y="-266.5" font-family="Helvetica,sans-Serif" font-size="10.00"># _doQueryDistIndicesWithFunctor()</text>
</a>
</g>
</g>
<!-- Node2&#45;&gt;Node1 -->
<g id="edge1" class="edge"><title>Node2&#45;&gt;Node1</title>
<path fill="none" stroke="#404040" d="M641.143,-288.065C676.12,-255.75 717.648,-221.777 760,-197 825.492,-158.686 906.89,-131.287 969.556,-113.883"/>
<polygon fill="none" stroke="#404040" points="969.854,-113.802 974.589,-108.363 981.43,-110.642 976.695,-116.081 969.854,-113.802"/>
<text text-anchor="middle" x="786.5" y="-216.5" font-family="Helvetica,sans-Serif" font-size="10.00"> #kd_tree_</text>
</g>
<!-- Node3 -->
<g id="node3" class="node"><title>Node3</title>
<polygon fill="white" stroke="#bfbfbf" points="40,-904 40,-961 182,-961 182,-904 40,-904"/>
<text text-anchor="middle" x="111" y="-949" font-family="Helvetica,sans-Serif" font-size="10.00">std::vector&lt; VectorType &gt;</text>
<polyline fill="none" stroke="#bfbfbf" points="40,-942 182,-942 "/>
<text text-anchor="middle" x="111" y="-930" font-family="Helvetica,sans-Serif" font-size="10.00"> </text>
<polyline fill="none" stroke="#bfbfbf" points="40,-923 182,-923 "/>
<text text-anchor="middle" x="111" y="-911" font-family="Helvetica,sans-Serif" font-size="10.00"> </text>
</g>
<!-- Node3&#45;&gt;Node2 -->
<g id="edge2" class="edge"><title>Node3&#45;&gt;Node2</title>
<path fill="none" stroke="#404040" d="M102.919,-903.782C85.8909,-839.285 53.4119,-676.761 124,-573 195.484,-467.922 340.683,-422.039 440.864,-402.334"/>
<polygon fill="none" stroke="#404040" points="441.061,-402.297 446.209,-397.248 452.85,-400.058 447.701,-405.107 441.061,-402.297"/>
<text text-anchor="middle" x="149.5" y="-704" font-family="Helvetica,sans-Serif" font-size="10.00"> #mPoints</text>
</g>
<!-- Node13 -->
<g id="node13" class="node"><title>Node13</title>
<g id="a_node13"><a xlink:href="a00031.html" target="_top" xlink:title="3D Kdtree with reentrant queries ">
<polygon fill="white" stroke="black" points="274,-573.5 274,-839.5 462,-839.5 462,-573.5 274,-573.5"/>
<text text-anchor="start" x="282" y="-827.5" font-family="Helvetica,sans-Serif" font-size="10.00">gr::KdTree&lt; _Scalar,</text>
<text text-anchor="middle" x="368" y="-816.5" font-family="Helvetica,sans-Serif" font-size="10.00"> _Index &gt;</text>
<polyline fill="none" stroke="black" points="274,-809.5 462,-809.5 "/>
<text text-anchor="middle" x="368" y="-797.5" font-family="Helvetica,sans-Serif" font-size="10.00"> </text>
<polyline fill="none" stroke="black" points="274,-790.5 462,-790.5 "/>
<text text-anchor="start" x="282" y="-778.5" font-family="Helvetica,sans-Serif" font-size="10.00">+ _getNodes()</text>
<text text-anchor="start" x="282" y="-767.5" font-family="Helvetica,sans-Serif" font-size="10.00">+ _getPoints()</text>
<text text-anchor="start" x="282" y="-756.5" font-family="Helvetica,sans-Serif" font-size="10.00">+ _getIndices()</text>
<text text-anchor="start" x="282" y="-745.5" font-family="Helvetica,sans-Serif" font-size="10.00">+ KdTree()</text>
<text text-anchor="start" x="282" y="-734.5" font-family="Helvetica,sans-Serif" font-size="10.00">+ KdTree()</text>
<text text-anchor="start" x="282" y="-723.5" font-family="Helvetica,sans-Serif" font-size="10.00">+ add()</text>
<text text-anchor="start" x="282" y="-712.5" font-family="Helvetica,sans-Serif" font-size="10.00">+ add()</text>
<text text-anchor="start" x="282" y="-701.5" font-family="Helvetica,sans-Serif" font-size="10.00">+ finalize()</text>
<text text-anchor="start" x="282" y="-690.5" font-family="Helvetica,sans-Serif" font-size="10.00">+ aabb()</text>
<text text-anchor="start" x="282" y="-679.5" font-family="Helvetica,sans-Serif" font-size="10.00">+ ~KdTree()</text>
<text text-anchor="start" x="282" y="-668.5" font-family="Helvetica,sans-Serif" font-size="10.00">+ doQueryDist()</text>
<text text-anchor="start" x="282" y="-657.5" font-family="Helvetica,sans-Serif" font-size="10.00">+ doQueryDistIndices()</text>
<text text-anchor="start" x="282" y="-646.5" font-family="Helvetica,sans-Serif" font-size="10.00">+ doQueryDistProcessIndices()</text>
<text text-anchor="start" x="282" y="-635.5" font-family="Helvetica,sans-Serif" font-size="10.00">+ doQueryRestrictedClosest</text>
<text text-anchor="start" x="282" y="-624.5" font-family="Helvetica,sans-Serif" font-size="10.00">Index()</text>
<text text-anchor="start" x="282" y="-613.5" font-family="Helvetica,sans-Serif" font-size="10.00">+ invalidIndex()</text>
<text text-anchor="start" x="282" y="-602.5" font-family="Helvetica,sans-Serif" font-size="10.00"># split()</text>
<text text-anchor="start" x="282" y="-591.5" font-family="Helvetica,sans-Serif" font-size="10.00"># createTree()</text>
<text text-anchor="start" x="282" y="-580.5" font-family="Helvetica,sans-Serif" font-size="10.00"># _doQueryDistIndicesWithFunctor()</text>
</a>
</g>
</g>
<!-- Node3&#45;&gt;Node13 -->
<g id="edge16" class="edge"><title>Node3&#45;&gt;Node13</title>
<path fill="none" stroke="#404040" d="M157.754,-903.86C198.052,-879.861 251.119,-847.771 260,-840 261.612,-838.589 263.219,-837.153 264.821,-835.693"/>
<polygon fill="none" stroke="#404040" points="265.196,-835.339 266.81,-828.31 273.918,-827.097 272.304,-834.125 265.196,-835.339"/>
<text text-anchor="middle" x="258.5" y="-866.5" font-family="Helvetica,sans-Serif" font-size="10.00"> #mPoints</text>
</g>
<!-- Node4 -->
<g id="node4" class="node"><title>Node4</title>
<g id="a_node4"><a xlink:href="a00122.html" target="_top" xlink:title="{VectorType\n||}">
<polygon fill="white" stroke="black" points="0,-1108 0,-1165 68,-1165 68,-1108 0,-1108"/>
<text text-anchor="middle" x="34" y="-1153" font-family="Helvetica,sans-Serif" font-size="10.00">VectorType</text>
<polyline fill="none" stroke="black" points="0,-1146 68,-1146 "/>
<text text-anchor="middle" x="34" y="-1134" font-family="Helvetica,sans-Serif" font-size="10.00"> </text>
<polyline fill="none" stroke="black" points="0,-1127 68,-1127 "/>
<text text-anchor="middle" x="34" y="-1115" font-family="Helvetica,sans-Serif" font-size="10.00"> </text>
</a>
</g>
</g>
<!-- Node4&#45;&gt;Node1 -->
<g id="edge32" class="edge"><title>Node4&#45;&gt;Node1</title>
<path fill="none" stroke="#404040" d="M28.1651,-1107.87C20.4994,-1069.1 8,-996.262 8,-933.5 8,-933.5 8,-933.5 8,-386 8,-187.597 705.77,-116.619 969.051,-96.8993"/>
<polygon fill="none" stroke="#404040" points="969.288,-96.8819 974.978,-92.4511 981.256,-95.9987 975.566,-100.429 969.288,-96.8819"/>
<text text-anchor="middle" x="41.5" y="-720.5" font-family="Helvetica,sans-Serif" font-size="10.00"> #centroid_P_</text>
<text text-anchor="middle" x="41.5" y="-709.5" font-family="Helvetica,sans-Serif" font-size="10.00">#centroid_Q_</text>
<text text-anchor="middle" x="41.5" y="-698.5" font-family="Helvetica,sans-Serif" font-size="10.00">#qcentroid1_</text>
<text text-anchor="middle" x="41.5" y="-687.5" font-family="Helvetica,sans-Serif" font-size="10.00">#qcentroid2_</text>
</g>
<!-- Node4&#45;&gt;Node3 -->
<g id="edge3" class="edge"><title>Node4&#45;&gt;Node3</title>
<path fill="none" stroke="#404040" d="M44.5451,-1107.84C57.8995,-1072.8 80.9898,-1012.23 96.13,-972.51"/>
<polygon fill="none" stroke="#404040" points="96.1847,-972.366 94.5842,-965.335 100.459,-961.153 102.06,-968.184 96.1847,-972.366"/>
<text text-anchor="middle" x="119.5" y="-988" font-family="Helvetica,sans-Serif" font-size="10.00"> +elements</text>
</g>
<!-- Node5 -->
<g id="node5" class="node"><title>Node5</title>
<g id="a_node5"><a xlink:title="STL class. ">
<polygon fill="white" stroke="#bfbfbf" points="377.5,-1108 377.5,-1165 472.5,-1165 472.5,-1108 377.5,-1108"/>
<text text-anchor="middle" x="425" y="-1153" font-family="Helvetica,sans-Serif" font-size="10.00">std::vector&lt; T &gt;</text>
<polyline fill="none" stroke="#bfbfbf" points="377.5,-1146 472.5,-1146 "/>
<text text-anchor="middle" x="425" y="-1134" font-family="Helvetica,sans-Serif" font-size="10.00"> </text>
<polyline fill="none" stroke="#bfbfbf" points="377.5,-1127 472.5,-1127 "/>
<text text-anchor="middle" x="425" y="-1115" font-family="Helvetica,sans-Serif" font-size="10.00"> </text>
</a>
</g>
</g>
<!-- Node5&#45;&gt;Node3 -->
<g id="edge4" class="edge"><title>Node5&#45;&gt;Node3</title>
<path fill="none" stroke="orange" d="M395.108,-1099.92C364.373,-1065.58 313.431,-1014.57 259,-985 231.528,-970.077 220.6,-977.062 191,-967 185.725,-965.207 180.304,-963.232 174.889,-961.166"/>
<polygon fill="orange" stroke="orange" points="392.858,-1102.66 402.102,-1107.84 398.105,-1098.03 392.858,-1102.66"/>
<text text-anchor="middle" x="314" y="-988" font-family="Helvetica,sans-Serif" font-size="10.00"> &lt; VectorType &gt;</text>
</g>
<!-- Node8 -->
<g id="node8" class="node"><title>Node8</title>
<polygon fill="white" stroke="#bfbfbf" points="200,-904 200,-961 328,-961 328,-904 200,-904"/>
<text text-anchor="middle" x="264" y="-949" font-family="Helvetica,sans-Serif" font-size="10.00">std::vector&lt; KdNode &gt;</text>
<polyline fill="none" stroke="#bfbfbf" points="200,-942 328,-942 "/>
<text text-anchor="middle" x="264" y="-930" font-family="Helvetica,sans-Serif" font-size="10.00"> </text>
<polyline fill="none" stroke="#bfbfbf" points="200,-923 328,-923 "/>
<text text-anchor="middle" x="264" y="-911" font-family="Helvetica,sans-Serif" font-size="10.00"> </text>
</g>
<!-- Node5&#45;&gt;Node8 -->
<g id="edge9" class="edge"><title>Node5&#45;&gt;Node8</title>
<path fill="none" stroke="orange" d="M416.318,-1097.98C407.063,-1064.94 389.578,-1017.2 360,-985 353.89,-978.349 338.979,-969.494 322.683,-961.004"/>
<polygon fill="orange" stroke="orange" points="412.961,-1098.98 418.931,-1107.73 419.723,-1097.17 412.961,-1098.98"/>
<text text-anchor="middle" x="401" y="-988" font-family="Helvetica,sans-Serif" font-size="10.00"> &lt; KdNode &gt;</text>
</g>
<!-- Node11 -->
<g id="node11" class="node"><title>Node11</title>
<polygon fill="white" stroke="#bfbfbf" points="551,-904 551,-961 667,-961 667,-904 551,-904"/>
<text text-anchor="middle" x="609" y="-949" font-family="Helvetica,sans-Serif" font-size="10.00">std::vector&lt; Index &gt;</text>
<polyline fill="none" stroke="#bfbfbf" points="551,-942 667,-942 "/>
<text text-anchor="middle" x="609" y="-930" font-family="Helvetica,sans-Serif" font-size="10.00"> </text>
<polyline fill="none" stroke="#bfbfbf" points="551,-923 667,-923 "/>
<text text-anchor="middle" x="609" y="-911" font-family="Helvetica,sans-Serif" font-size="10.00"> </text>
</g>
<!-- Node5&#45;&gt;Node11 -->
<g id="edge13" class="edge"><title>Node5&#45;&gt;Node11</title>
<path fill="none" stroke="orange" d="M427.035,-1097.65C430.783,-1064.06 441.216,-1015.7 470,-985 481.618,-972.61 518.211,-959.305 550.934,-949.323"/>
<polygon fill="orange" stroke="orange" points="423.514,-1097.7 426.039,-1107.99 430.482,-1098.38 423.514,-1097.7"/>
<text text-anchor="middle" x="496" y="-988" font-family="Helvetica,sans-Serif" font-size="10.00"> &lt; Index &gt;</text>
</g>
<!-- Node16 -->
<g id="node16" class="node"><title>Node16</title>
<polygon fill="white" stroke="#bfbfbf" points="863.5,-904 863.5,-961 1006.5,-961 1006.5,-904 863.5,-904"/>
<text text-anchor="middle" x="935" y="-949" font-family="Helvetica,sans-Serif" font-size="10.00">std::vector&lt; gr::Point3D &gt;</text>
<polyline fill="none" stroke="#bfbfbf" points="863.5,-942 1006.5,-942 "/>
<text text-anchor="middle" x="935" y="-930" font-family="Helvetica,sans-Serif" font-size="10.00"> </text>
<polyline fill="none" stroke="#bfbfbf" points="863.5,-923 1006.5,-923 "/>
<text text-anchor="middle" x="935" y="-911" font-family="Helvetica,sans-Serif" font-size="10.00"> </text>
</g>
<!-- Node5&#45;&gt;Node16 -->
<g id="edge23" class="edge"><title>Node5&#45;&gt;Node16</title>
<path fill="none" stroke="orange" d="M442.005,-1098.51C460.706,-1062.59 494.408,-1009.93 541,-985 592.455,-957.464 745.373,-976.215 803,-967 822.728,-963.845 843.814,-959.123 863.212,-954.212"/>
<polygon fill="orange" stroke="orange" points="438.743,-1097.21 437.352,-1107.71 444.989,-1100.37 438.743,-1097.21"/>
<text text-anchor="middle" x="580.5" y="-988" font-family="Helvetica,sans-Serif" font-size="10.00"> &lt; gr::Point3D &gt;</text>
</g>
<!-- Node6 -->
<g id="node6" class="node"><title>Node6</title>
<polygon fill="white" stroke="#bfbfbf" points="410.5,-1306.5 410.5,-1363.5 439.5,-1363.5 439.5,-1306.5 410.5,-1306.5"/>
<text text-anchor="middle" x="425" y="-1351.5" font-family="Helvetica,sans-Serif" font-size="10.00">T</text>
<polyline fill="none" stroke="#bfbfbf" points="410.5,-1344.5 439.5,-1344.5 "/>
<text text-anchor="middle" x="425" y="-1332.5" font-family="Helvetica,sans-Serif" font-size="10.00"> </text>
<polyline fill="none" stroke="#bfbfbf" points="410.5,-1325.5 439.5,-1325.5 "/>
<text text-anchor="middle" x="425" y="-1313.5" font-family="Helvetica,sans-Serif" font-size="10.00"> </text>
</g>
<!-- Node6&#45;&gt;Node5 -->
<g id="edge5" class="edge"><title>Node6&#45;&gt;Node5</title>
<path fill="none" stroke="#404040" d="M425,-1306.26C425,-1272.62 425,-1215.65 425,-1177.32"/>
<polygon fill="none" stroke="#404040" points="425,-1177.1 421,-1171.1 425,-1165.1 429,-1171.1 425,-1177.1"/>
<text text-anchor="middle" x="453.5" y="-1280" font-family="Helvetica,sans-Serif" font-size="10.00"> +elements</text>
</g>
<!-- Node7 -->
<g id="node7" class="node"><title>Node7</title>
<g id="a_node7"><a xlink:href="a00120.html" target="_top" xlink:title="{unsigned int\n||}">
<polygon fill="white" stroke="black" points="632.5,-678 632.5,-735 707.5,-735 707.5,-678 632.5,-678"/>
<text text-anchor="middle" x="670" y="-723" font-family="Helvetica,sans-Serif" font-size="10.00">unsigned int</text>
<polyline fill="none" stroke="black" points="632.5,-716 707.5,-716 "/>
<text text-anchor="middle" x="670" y="-704" font-family="Helvetica,sans-Serif" font-size="10.00"> </text>
<polyline fill="none" stroke="black" points="632.5,-697 707.5,-697 "/>
<text text-anchor="middle" x="670" y="-685" font-family="Helvetica,sans-Serif" font-size="10.00"> </text>
</a>
</g>
</g>
<!-- Node7&#45;&gt;Node2 -->
<g id="edge6" class="edge"><title>Node7&#45;&gt;Node2</title>
<path fill="none" stroke="#404040" d="M660.668,-677.95C651.452,-651.049 636.777,-609.019 623,-573 617.16,-557.733 610.899,-541.826 604.567,-526.029"/>
<polygon fill="none" stroke="#404040" points="604.431,-525.689 598.48,-521.617 599.95,-514.557 605.901,-518.63 604.431,-525.689"/>
<text text-anchor="middle" x="663" y="-547" font-family="Helvetica,sans-Serif" font-size="10.00"> #_nofPointsPerCell</text>
<text text-anchor="middle" x="663" y="-536" font-family="Helvetica,sans-Serif" font-size="10.00">#_maxDepth</text>
</g>
<!-- Node8&#45;&gt;Node2 -->
<g id="edge7" class="edge"><title>Node8&#45;&gt;Node2</title>
<path fill="none" stroke="#404040" d="M243.682,-903.851C232.206,-886.478 218.992,-863.058 213,-840 183.154,-725.148 152.756,-675.237 213,-573 261.894,-490.025 362.873,-441.644 441.066,-415.317"/>
<polygon fill="none" stroke="#404040" points="441.514,-415.17 445.971,-409.501 452.918,-411.435 448.461,-417.104 441.514,-415.17"/>
<text text-anchor="middle" x="239" y="-704" font-family="Helvetica,sans-Serif" font-size="10.00"> #mNodes</text>
</g>
<!-- Node8&#45;&gt;Node13 -->
<g id="edge18" class="edge"><title>Node8&#45;&gt;Node13</title>
<path fill="none" stroke="#404040" d="M276.961,-903.583C283.608,-889.268 292.26,-870.633 301.583,-850.553"/>
<polygon fill="none" stroke="#404040" points="301.613,-850.487 300.512,-843.36 306.667,-839.603 307.768,-846.729 301.613,-850.487"/>
<text text-anchor="middle" x="324" y="-866.5" font-family="Helvetica,sans-Serif" font-size="10.00"> #mNodes</text>
</g>
<!-- Node9 -->
<g id="node9" class="node"><title>Node9</title>
<g id="a_node9"><a xlink:href="a00116.html" target="_top" xlink:title="{KdNode\n||}">
<polygon fill="white" stroke="black" points="174,-1108 174,-1165 228,-1165 228,-1108 174,-1108"/>
<text text-anchor="middle" x="201" y="-1153" font-family="Helvetica,sans-Serif" font-size="10.00">KdNode</text>
<polyline fill="none" stroke="black" points="174,-1146 228,-1146 "/>
<text text-anchor="middle" x="201" y="-1134" font-family="Helvetica,sans-Serif" font-size="10.00"> </text>
<polyline fill="none" stroke="black" points="174,-1127 228,-1127 "/>
<text text-anchor="middle" x="201" y="-1115" font-family="Helvetica,sans-Serif" font-size="10.00"> </text>
</a>
</g>
</g>
<!-- Node9&#45;&gt;Node8 -->
<g id="edge8" class="edge"><title>Node9&#45;&gt;Node8</title>
<path fill="none" stroke="#404040" d="M194.509,-1107.88C188.592,-1076.47 183.329,-1024.44 202,-985 204.524,-979.668 207.898,-974.696 211.774,-970.11"/>
<polygon fill="none" stroke="#404040" points="211.992,-969.883 213.277,-962.787 220.322,-961.245 219.036,-968.341 211.992,-969.883"/>
<text text-anchor="middle" x="230.5" y="-988" font-family="Helvetica,sans-Serif" font-size="10.00"> +elements</text>
</g>
<!-- Node10 -->
<g id="node10" class="node"><title>Node10</title>
<g id="a_node10"><a xlink:href="a00111.html" target="_top" xlink:title="{AlignedBox\&lt; Scalar, 3 \&gt;\n||}">
<polygon fill="white" stroke="black" points="480,-678 480,-735 614,-735 614,-678 480,-678"/>
<text text-anchor="middle" x="547" y="-723" font-family="Helvetica,sans-Serif" font-size="10.00">AlignedBox&lt; Scalar, 3 &gt;</text>
<polyline fill="none" stroke="black" points="480,-716 614,-716 "/>
<text text-anchor="middle" x="547" y="-704" font-family="Helvetica,sans-Serif" font-size="10.00"> </text>
<polyline fill="none" stroke="black" points="480,-697 614,-697 "/>
<text text-anchor="middle" x="547" y="-685" font-family="Helvetica,sans-Serif" font-size="10.00"> </text>
</a>
</g>
</g>
<!-- Node10&#45;&gt;Node2 -->
<g id="edge10" class="edge"><title>Node10&#45;&gt;Node2</title>
<path fill="none" stroke="#404040" d="M547,-677.879C547,-643.864 547,-583.594 547,-526.789"/>
<polygon fill="none" stroke="#404040" points="547,-526.731 543,-520.731 547,-514.731 551,-520.731 547,-526.731"/>
<text text-anchor="middle" x="571.5" y="-541.5" font-family="Helvetica,sans-Serif" font-size="10.00"> #mAABB</text>
</g>
<!-- Node11&#45;&gt;Node2 -->
<g id="edge11" class="edge"><title>Node11&#45;&gt;Node2</title>
<path fill="none" stroke="#404040" d="M642.569,-903.946C673.184,-878.641 713.968,-844.412 716,-840 744.544,-778.034 743.852,-594.346 714,-533 699.486,-503.173 675.749,-476.964 650.668,-455.328"/>
<polygon fill="none" stroke="#404040" points="650.589,-455.262 643.42,-454.483 641.381,-447.566 648.55,-448.345 650.589,-455.262"/>
<text text-anchor="middle" x="764.5" y="-704" font-family="Helvetica,sans-Serif" font-size="10.00"> #mIndices</text>
</g>
<!-- Node11&#45;&gt;Node13 -->
<g id="edge19" class="edge"><title>Node11&#45;&gt;Node13</title>
<path fill="none" stroke="#404040" d="M559.256,-903.928C531.671,-887.359 497.663,-864.727 471,-840 470.907,-839.913 470.813,-839.827 470.72,-839.74"/>
<polygon fill="none" stroke="#404040" points="470.729,-839.749 463.634,-838.463 462.092,-831.419 469.187,-832.704 470.729,-839.749"/>
<text text-anchor="middle" x="548.5" y="-866.5" font-family="Helvetica,sans-Serif" font-size="10.00"> #mIndices</text>
</g>
<!-- Node12 -->
<g id="node12" class="node"><title>Node12</title>
<g id="a_node12"><a xlink:href="a00113.html" target="_top" xlink:title="{Index\n||}">
<polygon fill="white" stroke="black" points="625,-1108 625,-1165 667,-1165 667,-1108 625,-1108"/>
<text text-anchor="middle" x="646" y="-1153" font-family="Helvetica,sans-Serif" font-size="10.00">Index</text>
<polyline fill="none" stroke="black" points="625,-1146 667,-1146 "/>
<text text-anchor="middle" x="646" y="-1134" font-family="Helvetica,sans-Serif" font-size="10.00"> </text>
<polyline fill="none" stroke="black" points="625,-1127 667,-1127 "/>
<text text-anchor="middle" x="646" y="-1115" font-family="Helvetica,sans-Serif" font-size="10.00"> </text>
</a>
</g>
</g>
<!-- Node12&#45;&gt;Node11 -->
<g id="edge12" class="edge"><title>Node12&#45;&gt;Node11</title>
<path fill="none" stroke="#404040" d="M643.118,-1107.83C639.687,-1077.48 633.237,-1027.44 624,-985 623.148,-981.087 622.16,-977.036 621.104,-973.003"/>
<polygon fill="none" stroke="#404040" points="621.014,-972.679 615.556,-967.967 617.806,-961.116 623.265,-965.828 621.014,-972.679"/>
<text text-anchor="middle" x="654.5" y="-988" font-family="Helvetica,sans-Serif" font-size="10.00"> +elements</text>
</g>
<!-- Node13&#45;&gt;Node2 -->
<g id="edge14" class="edge"><title>Node13&#45;&gt;Node2</title>
<path fill="none" stroke="orange" d="M447.762,-564.023C457.056,-547.538 466.491,-530.803 475.661,-514.538"/>
<polygon fill="orange" stroke="orange" points="444.478,-562.721 442.616,-573.15 450.576,-566.158 444.478,-562.721"/>
<text text-anchor="middle" x="491" y="-541.5" font-family="Helvetica,sans-Serif" font-size="10.00"> &lt; Scalar &gt;</text>
</g>
<!-- Node14 -->
<g id="node14" class="node"><title>Node14</title>
<polygon fill="white" stroke="#bfbfbf" points="346,-904 346,-961 486,-961 486,-904 346,-904"/>
<text text-anchor="middle" x="416" y="-949" font-family="Helvetica,sans-Serif" font-size="10.00">AlignedBox&lt; _Scalar, 3 &gt;</text>
<polyline fill="none" stroke="#bfbfbf" points="346,-942 486,-942 "/>
<text text-anchor="middle" x="416" y="-930" font-family="Helvetica,sans-Serif" font-size="10.00"> </text>
<polyline fill="none" stroke="#bfbfbf" points="346,-923 486,-923 "/>
<text text-anchor="middle" x="416" y="-911" font-family="Helvetica,sans-Serif" font-size="10.00"> </text>
</g>
<!-- Node14&#45;&gt;Node13 -->
<g id="edge15" class="edge"><title>Node14&#45;&gt;Node13</title>
<path fill="none" stroke="#404040" d="M410.018,-903.583C406.993,-889.466 403.067,-871.148 398.833,-851.385"/>
<polygon fill="none" stroke="#404040" points="398.822,-851.336 393.654,-846.308 396.308,-839.603 401.476,-844.632 398.822,-851.336"/>
<text text-anchor="middle" x="429.5" y="-866.5" font-family="Helvetica,sans-Serif" font-size="10.00"> #mAABB</text>
</g>
<!-- Node15 -->
<g id="node15" class="node"><title>Node15</title>
<g id="a_node15"><a xlink:href="a00109.html" target="_top" xlink:title="{int\n||}">
<polygon fill="white" stroke="black" points="765.5,-904 765.5,-961 794.5,-961 794.5,-904 765.5,-904"/>
<text text-anchor="middle" x="780" y="-949" font-family="Helvetica,sans-Serif" font-size="10.00">int</text>
<polyline fill="none" stroke="black" points="765.5,-942 794.5,-942 "/>
<text text-anchor="middle" x="780" y="-930" font-family="Helvetica,sans-Serif" font-size="10.00"> </text>
<polyline fill="none" stroke="black" points="765.5,-923 794.5,-923 "/>
<text text-anchor="middle" x="780" y="-911" font-family="Helvetica,sans-Serif" font-size="10.00"> </text>
</a>
</g>
</g>
<!-- Node15&#45;&gt;Node1 -->
<g id="edge20" class="edge"><title>Node15&#45;&gt;Node1</title>
<path fill="none" stroke="#404040" d="M785.353,-903.954C788.742,-885.833 793.029,-861.567 796,-840 814.712,-704.144 788.436,-664.604 827,-533 865.399,-401.959 899.708,-378.38 966,-259 978.741,-236.056 993.009,-211.725 1006.75,-188.901"/>
<polygon fill="none" stroke="#404040" points="1006.81,-188.801 1006.48,-181.597 1013.01,-178.531 1013.33,-185.735 1006.81,-188.801"/>
<text text-anchor="middle" x="894.5" y="-541.5" font-family="Helvetica,sans-Serif" font-size="10.00"> #kNumberOfDiameterTrials</text>
</g>
<!-- Node15&#45;&gt;Node13 -->
<g id="edge17" class="edge"><title>Node15&#45;&gt;Node13</title>
<path fill="none" stroke="#404040" d="M765.256,-924.984C732.55,-910.775 651.18,-876.777 580,-858 535.954,-846.381 516.134,-862.441 472.745,-840.205"/>
<polygon fill="none" stroke="#404040" points="472.627,-840.139 465.438,-840.701 462.154,-834.281 469.343,-833.719 472.627,-840.139"/>
<text text-anchor="middle" x="695" y="-872" font-family="Helvetica,sans-Serif" font-size="10.00"> #_nofPointsPerCell</text>
<text text-anchor="middle" x="695" y="-861" font-family="Helvetica,sans-Serif" font-size="10.00">#_maxDepth</text>
</g>
<!-- Node16&#45;&gt;Node1 -->
<g id="edge21" class="edge"><title>Node16&#45;&gt;Node1</title>
<path fill="none" stroke="#404040" d="M936.866,-903.93C944.47,-793.765 974.137,-385.054 1004,-259 1009.38,-236.311 1017.04,-212.556 1025.21,-190.276"/>
<polygon fill="none" stroke="#404040" points="1025.31,-190.01 1023.67,-182.989 1029.52,-178.773 1031.16,-185.795 1025.31,-190.01"/>
<text text-anchor="middle" x="1011" y="-547" font-family="Helvetica,sans-Serif" font-size="10.00"> #sampled_P_3D_</text>
<text text-anchor="middle" x="1011" y="-536" font-family="Helvetica,sans-Serif" font-size="10.00">#sampled_Q_3D_</text>
</g>
<!-- Node17 -->
<g id="node17" class="node"><title>Node17</title>
<g id="a_node17"><a xlink:href="a00044.html" target="_top" xlink:title="The basic 3D point structure. A point potentially contains also directional information and color...">
<polygon fill="white" stroke="black" points="890.5,-1014.5 890.5,-1258.5 979.5,-1258.5 979.5,-1014.5 890.5,-1014.5"/>
<text text-anchor="middle" x="935" y="-1246.5" font-family="Helvetica,sans-Serif" font-size="10.00">gr::Point3D</text>
<polyline fill="none" stroke="black" points="890.5,-1239.5 979.5,-1239.5 "/>
<text text-anchor="middle" x="935" y="-1227.5" font-family="Helvetica,sans-Serif" font-size="10.00"> </text>
<polyline fill="none" stroke="black" points="890.5,-1220.5 979.5,-1220.5 "/>
<text text-anchor="start" x="898.5" y="-1208.5" font-family="Helvetica,sans-Serif" font-size="10.00">+ Point3D()</text>
<text text-anchor="start" x="898.5" y="-1197.5" font-family="Helvetica,sans-Serif" font-size="10.00">+ Point3D()</text>
<text text-anchor="start" x="898.5" y="-1186.5" font-family="Helvetica,sans-Serif" font-size="10.00">+ Point3D()</text>
<text text-anchor="start" x="898.5" y="-1175.5" font-family="Helvetica,sans-Serif" font-size="10.00">+ Point3D()</text>
<text text-anchor="start" x="898.5" y="-1164.5" font-family="Helvetica,sans-Serif" font-size="10.00">+ pos()</text>
<text text-anchor="start" x="898.5" y="-1153.5" font-family="Helvetica,sans-Serif" font-size="10.00">+ pos()</text>
<text text-anchor="start" x="898.5" y="-1142.5" font-family="Helvetica,sans-Serif" font-size="10.00">+ rgb()</text>
<text text-anchor="start" x="898.5" y="-1131.5" font-family="Helvetica,sans-Serif" font-size="10.00">+ normal()</text>
<text text-anchor="start" x="898.5" y="-1120.5" font-family="Helvetica,sans-Serif" font-size="10.00">+ set_rgb()</text>
<text text-anchor="start" x="898.5" y="-1109.5" font-family="Helvetica,sans-Serif" font-size="10.00">+ set_normal()</text>
<text text-anchor="start" x="898.5" y="-1098.5" font-family="Helvetica,sans-Serif" font-size="10.00">+ normalize()</text>
<text text-anchor="start" x="898.5" y="-1087.5" font-family="Helvetica,sans-Serif" font-size="10.00">+ hasColor()</text>
<text text-anchor="start" x="898.5" y="-1076.5" font-family="Helvetica,sans-Serif" font-size="10.00">+ x()</text>
<text text-anchor="start" x="898.5" y="-1065.5" font-family="Helvetica,sans-Serif" font-size="10.00">+ y()</text>
<text text-anchor="start" x="898.5" y="-1054.5" font-family="Helvetica,sans-Serif" font-size="10.00">+ z()</text>
<text text-anchor="start" x="898.5" y="-1043.5" font-family="Helvetica,sans-Serif" font-size="10.00">+ x()</text>
<text text-anchor="start" x="898.5" y="-1032.5" font-family="Helvetica,sans-Serif" font-size="10.00">+ y()</text>
<text text-anchor="start" x="898.5" y="-1021.5" font-family="Helvetica,sans-Serif" font-size="10.00">+ z()</text>
</a>
</g>
</g>
<!-- Node17&#45;&gt;Node16 -->
<g id="edge22" class="edge"><title>Node17&#45;&gt;Node16</title>
<path fill="none" stroke="#404040" d="M935,-1014.5C935,-999.655 935,-985.413 935,-973.124"/>
<polygon fill="none" stroke="#404040" points="935,-973.081 931,-967.081 935,-961.081 939,-967.081 935,-973.081"/>
<text text-anchor="middle" x="963.5" y="-988" font-family="Helvetica,sans-Serif" font-size="10.00"> +elements</text>
</g>
<!-- Node18 -->
<g id="node18" class="node"><title>Node18</title>
<g id="a_node18"><a xlink:href="a00032.html" target="_top" xlink:title="{gr::Utils::Logger\n||+ Logger()\l+ setLogLevel()\l+ logLevel()\l+ Log()\l# print_err_impl()\l# print_err_impl()\l# print_msg_impl()\l# print_msg_impl()\l# LOG()\l}">
<polygon fill="white" stroke="black" points="1013.5,-314.5 1013.5,-459.5 1122.5,-459.5 1122.5,-314.5 1013.5,-314.5"/>
<text text-anchor="middle" x="1068" y="-447.5" font-family="Helvetica,sans-Serif" font-size="10.00">gr::Utils::Logger</text>
<polyline fill="none" stroke="black" points="1013.5,-440.5 1122.5,-440.5 "/>
<text text-anchor="middle" x="1068" y="-428.5" font-family="Helvetica,sans-Serif" font-size="10.00"> </text>
<polyline fill="none" stroke="black" points="1013.5,-421.5 1122.5,-421.5 "/>
<text text-anchor="start" x="1021.5" y="-409.5" font-family="Helvetica,sans-Serif" font-size="10.00">+ Logger()</text>
<text text-anchor="start" x="1021.5" y="-398.5" font-family="Helvetica,sans-Serif" font-size="10.00">+ setLogLevel()</text>
<text text-anchor="start" x="1021.5" y="-387.5" font-family="Helvetica,sans-Serif" font-size="10.00">+ logLevel()</text>
<text text-anchor="start" x="1021.5" y="-376.5" font-family="Helvetica,sans-Serif" font-size="10.00">+ Log()</text>
<text text-anchor="start" x="1021.5" y="-365.5" font-family="Helvetica,sans-Serif" font-size="10.00"># print_err_impl()</text>
<text text-anchor="start" x="1021.5" y="-354.5" font-family="Helvetica,sans-Serif" font-size="10.00"># print_err_impl()</text>
<text text-anchor="start" x="1021.5" y="-343.5" font-family="Helvetica,sans-Serif" font-size="10.00"># print_msg_impl()</text>
<text text-anchor="start" x="1021.5" y="-332.5" font-family="Helvetica,sans-Serif" font-size="10.00"># print_msg_impl()</text>
<text text-anchor="start" x="1021.5" y="-321.5" font-family="Helvetica,sans-Serif" font-size="10.00"># LOG()</text>
</a>
</g>
</g>
<!-- Node18&#45;&gt;Node1 -->
<g id="edge24" class="edge"><title>Node18&#45;&gt;Node1</title>
<path fill="none" stroke="#404040" d="M1068,-314.468C1068,-277.314 1068,-231.306 1068,-190.673"/>
<polygon fill="none" stroke="#404040" points="1068,-190.531 1064,-184.531 1068,-178.531 1072,-184.531 1068,-190.531"/>
<text text-anchor="middle" x="1091.5" y="-216.5" font-family="Helvetica,sans-Serif" font-size="10.00"> #logger_</text>
</g>
<!-- Node19 -->
<g id="node19" class="node"><title>Node19</title>
<polygon fill="white" stroke="#bfbfbf" points="1141,-358.5 1141,-415.5 1201,-415.5 1201,-358.5 1141,-358.5"/>
<text text-anchor="middle" x="1171" y="-403.5" font-family="Helvetica,sans-Serif" font-size="10.00">mt19937</text>
<polyline fill="none" stroke="#bfbfbf" points="1141,-396.5 1201,-396.5 "/>
<text text-anchor="middle" x="1171" y="-384.5" font-family="Helvetica,sans-Serif" font-size="10.00"> </text>
<polyline fill="none" stroke="#bfbfbf" points="1141,-377.5 1201,-377.5 "/>
<text text-anchor="middle" x="1171" y="-365.5" font-family="Helvetica,sans-Serif" font-size="10.00"> </text>
</g>
<!-- Node19&#45;&gt;Node1 -->
<g id="edge25" class="edge"><title>Node19&#45;&gt;Node1</title>
<path fill="none" stroke="#404040" d="M1165.01,-358.285C1156.58,-321.012 1139.9,-252.949 1119,-197 1118.12,-194.637 1117.2,-192.255 1116.26,-189.862"/>
<polygon fill="none" stroke="#404040" points="1116.2,-189.712 1110.23,-185.67 1111.66,-178.603 1117.63,-182.645 1116.2,-189.712"/>
<text text-anchor="middle" x="1184.5" y="-216.5" font-family="Helvetica,sans-Serif" font-size="10.00"> #randomGenerator_</text>
</g>
<!-- Node20 -->
<g id="node20" class="node"><title>Node20</title>
<polygon fill="white" stroke="#bfbfbf" points="1219,-358.5 1219,-415.5 1341,-415.5 1341,-358.5 1219,-358.5"/>
<text text-anchor="middle" x="1280" y="-403.5" font-family="Helvetica,sans-Serif" font-size="10.00">Matrix&lt; Scalar, 4, 4 &gt;</text>
<polyline fill="none" stroke="#bfbfbf" points="1219,-396.5 1341,-396.5 "/>
<text text-anchor="middle" x="1280" y="-384.5" font-family="Helvetica,sans-Serif" font-size="10.00"> </text>
<polyline fill="none" stroke="#bfbfbf" points="1219,-377.5 1341,-377.5 "/>
<text text-anchor="middle" x="1280" y="-365.5" font-family="Helvetica,sans-Serif" font-size="10.00"> </text>
</g>
<!-- Node20&#45;&gt;Node1 -->
<g id="edge26" class="edge"><title>Node20&#45;&gt;Node1</title>
<path fill="none" stroke="#404040" d="M1280.69,-358.322C1280.32,-318.954 1274.51,-246.123 1240,-197 1221.2,-170.244 1193.32,-148.862 1165.46,-132.486"/>
<polygon fill="none" stroke="#404040" points="1165.25,-132.364 1158.05,-132.89 1154.8,-126.453 1161.99,-125.927 1165.25,-132.364"/>
<text text-anchor="middle" x="1294" y="-216.5" font-family="Helvetica,sans-Serif" font-size="10.00"> #transform_</text>
</g>
<!-- Node21 -->
<g id="node21" class="node"><title>Node21</title>
<polygon fill="white" stroke="#bfbfbf" points="1359.5,-358.5 1359.5,-415.5 1406.5,-415.5 1406.5,-358.5 1359.5,-358.5"/>
<text text-anchor="middle" x="1383" y="-403.5" font-family="Helvetica,sans-Serif" font-size="10.00">Scalar</text>
<polyline fill="none" stroke="#bfbfbf" points="1359.5,-396.5 1406.5,-396.5 "/>
<text text-anchor="middle" x="1383" y="-384.5" font-family="Helvetica,sans-Serif" font-size="10.00"> </text>
<polyline fill="none" stroke="#bfbfbf" points="1359.5,-377.5 1406.5,-377.5 "/>
<text text-anchor="middle" x="1383" y="-365.5" font-family="Helvetica,sans-Serif" font-size="10.00"> </text>
</g>
<!-- Node21&#45;&gt;Node1 -->
<g id="edge27" class="edge"><title>Node21&#45;&gt;Node1</title>
<path fill="none" stroke="#404040" d="M1382.83,-358.478C1381.09,-317.964 1371.97,-242.2 1330,-197 1287.12,-150.825 1221.39,-124.181 1166.5,-109.091"/>
<polygon fill="none" stroke="#404040" points="1166.21,-109.014 1159.38,-111.351 1154.6,-105.952 1161.42,-103.615 1166.21,-109.014"/>
<text text-anchor="middle" x="1413" y="-233" font-family="Helvetica,sans-Serif" font-size="10.00"> #P_diameter_</text>
<text text-anchor="start" x="1357" y="-222" font-family="Helvetica,sans-Serif" font-size="10.00">#P_mean_distance</text>
<text text-anchor="middle" x="1413" y="-211" font-family="Helvetica,sans-Serif" font-size="10.00">_</text>
<text text-anchor="middle" x="1413" y="-200" font-family="Helvetica,sans-Serif" font-size="10.00">#max_base_diameter_</text>
</g>
<!-- Node22 -->
<g id="node22" class="node"><title>Node22</title>
<g id="a_node22"><a xlink:href="a00018.html" target="_top" xlink:title="{gr::Utils::CRTP\&lt; OptExts...,\l Options \&gt;\n||}">
<polygon fill="white" stroke="black" points="1438.5,-353 1438.5,-421 1581.5,-421 1581.5,-353 1438.5,-353"/>
<text text-anchor="start" x="1446.5" y="-409" font-family="Helvetica,sans-Serif" font-size="10.00">gr::Utils::CRTP&lt; OptExts...,</text>
<text text-anchor="middle" x="1510" y="-398" font-family="Helvetica,sans-Serif" font-size="10.00"> Options &gt;</text>
<polyline fill="none" stroke="black" points="1438.5,-391 1581.5,-391 "/>
<text text-anchor="middle" x="1510" y="-379" font-family="Helvetica,sans-Serif" font-size="10.00"> </text>
<polyline fill="none" stroke="black" points="1438.5,-372 1581.5,-372 "/>
<text text-anchor="middle" x="1510" y="-360" font-family="Helvetica,sans-Serif" font-size="10.00"> </text>
</a>
</g>
</g>
<!-- Node22&#45;&gt;Node1 -->
<g id="edge28" class="edge"><title>Node22&#45;&gt;Node1</title>
<path fill="none" stroke="#404040" d="M1513.31,-352.947C1515.58,-311.081 1512.69,-239.307 1473,-197 1431.57,-152.837 1272.57,-121.055 1166.56,-104.24"/>
<polygon fill="none" stroke="#404040" points="1166.4,-104.215 1159.85,-107.241 1154.54,-102.362 1161.09,-99.3368 1166.4,-104.215"/>
<text text-anchor="middle" x="1526" y="-216.5" font-family="Helvetica,sans-Serif" font-size="10.00"> #options_</text>
</g>
<!-- Node23 -->
<g id="node23" class="node"><title>Node23</title>
<polygon fill="white" stroke="#bfbfbf" points="1507,-667 1507,-746 1657,-746 1657,-667 1507,-667"/>
<text text-anchor="start" x="1515" y="-734" font-family="Helvetica,sans-Serif" font-size="10.00">crtp::make_base&lt; CRTP</text>
<text text-anchor="start" x="1515" y="-723" font-family="Helvetica,sans-Serif" font-size="10.00">&lt; OptExts... ... &gt;, OptExts...</text>
<text text-anchor="middle" x="1582" y="-712" font-family="Helvetica,sans-Serif" font-size="10.00"> ... &gt;::type</text>
<polyline fill="none" stroke="#bfbfbf" points="1507,-705 1657,-705 "/>
<text text-anchor="middle" x="1582" y="-693" font-family="Helvetica,sans-Serif" font-size="10.00"> </text>
<polyline fill="none" stroke="#bfbfbf" points="1507,-686 1657,-686 "/>
<text text-anchor="middle" x="1582" y="-674" font-family="Helvetica,sans-Serif" font-size="10.00"> </text>
</g>
<!-- Node23&#45;&gt;Node22 -->
<g id="edge29" class="edge"><title>Node23&#45;&gt;Node22</title>
<path fill="none" stroke="midnightblue" d="M1576.7,-656.456C1572.43,-621.719 1565.57,-574.17 1556,-533 1546.94,-494.028 1532.49,-450.401 1522.21,-421.277"/>
<polygon fill="none" stroke="midnightblue" points="1573.27,-657.291 1577.94,-666.804 1580.22,-656.459 1573.27,-657.291"/>
</g>
<!-- Node24 -->
<g id="node24" class="node"><title>Node24</title>
<g id="a_node24"><a xlink:href="a00018.html" target="_top" xlink:title="CRTP class designed by Gael Guennebaud Source: http://disq.us/p/1tf4a7l https://www.onlinegdb.com/rJEhwUc&#45;m. ">
<polygon fill="white" stroke="black" points="1355,-678 1355,-735 1489,-735 1489,-678 1355,-678"/>
<text text-anchor="middle" x="1422" y="-723" font-family="Helvetica,sans-Serif" font-size="10.00">gr::Utils::CRTP&lt; Bases &gt;</text>
<polyline fill="none" stroke="black" points="1355,-716 1489,-716 "/>
<text text-anchor="middle" x="1422" y="-704" font-family="Helvetica,sans-Serif" font-size="10.00"> </text>
<polyline fill="none" stroke="black" points="1355,-697 1489,-697 "/>
<text text-anchor="middle" x="1422" y="-685" font-family="Helvetica,sans-Serif" font-size="10.00"> </text>
</a>
</g>
</g>
<!-- Node24&#45;&gt;Node22 -->
<g id="edge30" class="edge"><title>Node24&#45;&gt;Node22</title>
<path fill="none" stroke="orange" d="M1421.22,-667.356C1421.45,-631.899 1424.24,-577.946 1437,-533 1448.54,-492.331 1471.62,-449.539 1488.75,-421.075"/>
<polygon fill="orange" stroke="orange" points="1417.72,-667.736 1421.22,-677.735 1424.72,-667.734 1417.72,-667.736"/>
<text text-anchor="middle" x="1494.5" y="-541.5" font-family="Helvetica,sans-Serif" font-size="10.00"> &lt; OptExts..., Options &gt;</text>
</g>
<!-- Node25 -->
<g id="node25" class="node"><title>Node25</title>
<polygon fill="white" stroke="#bfbfbf" points="1338.5,-898.5 1338.5,-966.5 1505.5,-966.5 1505.5,-898.5 1338.5,-898.5"/>
<text text-anchor="start" x="1346.5" y="-954.5" font-family="Helvetica,sans-Serif" font-size="10.00">crtp::make_base::type</text>
<text text-anchor="middle" x="1422" y="-943.5" font-family="Helvetica,sans-Serif" font-size="10.00">&lt; CRTP&lt; Bases... &gt;, Bases... &gt;</text>
<polyline fill="none" stroke="#bfbfbf" points="1338.5,-936.5 1505.5,-936.5 "/>
<text text-anchor="middle" x="1422" y="-924.5" font-family="Helvetica,sans-Serif" font-size="10.00"> </text>
<polyline fill="none" stroke="#bfbfbf" points="1338.5,-917.5 1505.5,-917.5 "/>
<text text-anchor="middle" x="1422" y="-905.5" font-family="Helvetica,sans-Serif" font-size="10.00"> </text>
</g>
<!-- Node25&#45;&gt;Node24 -->
<g id="edge31" class="edge"><title>Node25&#45;&gt;Node24</title>
<path fill="none" stroke="midnightblue" d="M1422,-888.346C1422,-843.093 1422,-773.343 1422,-735.037"/>
<polygon fill="none" stroke="midnightblue" points="1418.5,-888.448 1422,-898.448 1425.5,-888.448 1418.5,-888.448"/>
</g>
</g>
</svg>
