<?xml version="1.0" encoding="UTF-8" standalone="no"?>
<!DOCTYPE svg PUBLIC "-//W3C//DTD SVG 1.1//EN"
 "http://www.w3.org/Graphics/SVG/1.1/DTD/svg11.dtd">
<!-- Generated by graphviz version 2.38.0 (20140413.2041)
 -->
<!-- Title: gr::KdTree&lt; _Scalar, _Index &gt; Pages: 1 -->
<!--zoomable 601 -->
<svg id="main" version="1.1" xmlns="http://www.w3.org/2000/svg" xmlns:xlink="http://www.w3.org/1999/xlink" xml:space="preserve" onload="init(evt)">
<style type="text/css"><![CDATA[
.edge:hover path { stroke: red; }
.edge:hover polygon { stroke: red; fill: red; }
]]></style>
<script type="text/javascript"><![CDATA[
var edges = document.getElementsByTagName('g');
if (edges && edges.length) {
  for (var i=0;i<edges.length;i++) {
    if (edges[i].id.substr(0,4)=='edge') {
      edges[i].setAttribute('class','edge');
    }
  }
}
]]></script>
        <defs>
                <circle id="rim" cx="0" cy="0" r="7"/>
                <circle id="rim2" cx="0" cy="0" r="3.5"/>
                <g id="zoomPlus">
                        <use xlink:href="#rim" fill="#404040">
                                <set attributeName="fill" to="#808080" begin="zoomplus.mouseover" end="zoomplus.mouseout"/>
                        </use>
                        <path d="M-4,0h8M0,-4v8" fill="none" stroke="white" stroke-width="1.5" pointer-events="none"/>
                </g>
                <g id="zoomMin">
                        <use xlink:href="#rim" fill="#404040">
                                <set attributeName="fill" to="#808080" begin="zoomminus.mouseover" end="zoomminus.mouseout"/>
                        </use>
                        <path d="M-4,0h8" fill="none" stroke="white" stroke-width="1.5" pointer-events="none"/>
                </g>
                <g id="dirArrow">
                        <path fill="none" stroke="white" stroke-width="1.5" d="M0,-3.0v7 M-2.5,-0.5L0,-3.0L2.5,-0.5"/>
                </g>
               <g id="resetDef">
                       <use xlink:href="#rim2" fill="#404040">
                               <set attributeName="fill" to="#808080" begin="reset.mouseover" end="reset.mouseout"/>
                       </use>
               </g>
        </defs>

<script type="text/javascript">
var viewWidth = 668;
var viewHeight = 601;
var sectionId = 'dynsection-1';
</script>
<script xlink:href="svgpan.js"/>
<svg id="graph" class="graph">
<g id="viewport">
<title>gr::KdTree&lt; _Scalar, _Index &gt;</title>
<polygon fill="white" stroke="none" points="-4,4 -4,-597 664,-597 664,4 -4,4"/>
<!-- Node1 -->
<g id="node1" class="node"><title>Node1</title>
<polygon fill="#bfbfbf" stroke="black" points="226,-0.5 226,-266.5 414,-266.5 414,-0.5 226,-0.5"/>
<text text-anchor="start" x="234" y="-254.5" font-family="Helvetica,sans-Serif" font-size="10.00">gr::KdTree&lt; _Scalar,</text>
<text text-anchor="middle" x="320" y="-243.5" font-family="Helvetica,sans-Serif" font-size="10.00"> _Index &gt;</text>
<polyline fill="none" stroke="black" points="226,-236.5 414,-236.5 "/>
<text text-anchor="middle" x="320" y="-224.5" font-family="Helvetica,sans-Serif" font-size="10.00"> </text>
<polyline fill="none" stroke="black" points="226,-217.5 414,-217.5 "/>
<text text-anchor="start" x="234" y="-205.5" font-family="Helvetica,sans-Serif" font-size="10.00">+ _getNodes()</text>
<text text-anchor="start" x="234" y="-194.5" font-family="Helvetica,sans-Serif" font-size="10.00">+ _getPoints()</text>
<text text-anchor="start" x="234" y="-183.5" font-family="Helvetica,sans-Serif" font-size="10.00">+ _getIndices()</text>
<text text-anchor="start" x="234" y="-172.5" font-family="Helvetica,sans-Serif" font-size="10.00">+ KdTree()</text>
<text text-anchor="start" x="234" y="-161.5" font-family="Helvetica,sans-Serif" font-size="10.00">+ KdTree()</text>
<text text-anchor="start" x="234" y="-150.5" font-family="Helvetica,sans-Serif" font-size="10.00">+ add()</text>
<text text-anchor="start" x="234" y="-139.5" font-family="Helvetica,sans-Serif" font-size="10.00">+ add()</text>
<text text-anchor="start" x="234" y="-128.5" font-family="Helvetica,sans-Serif" font-size="10.00">+ finalize()</text>
<text text-anchor="start" x="234" y="-117.5" font-family="Helvetica,sans-Serif" font-size="10.00">+ aabb()</text>
<text text-anchor="start" x="234" y="-106.5" font-family="Helvetica,sans-Serif" font-size="10.00">+ ~KdTree()</text>
<text text-anchor="start" x="234" y="-95.5" font-family="Helvetica,sans-Serif" font-size="10.00">+ doQueryDist()</text>
<text text-anchor="start" x="234" y="-84.5" font-family="Helvetica,sans-Serif" font-size="10.00">+ doQueryDistIndices()</text>
<text text-anchor="start" x="234" y="-73.5" font-family="Helvetica,sans-Serif" font-size="10.00">+ doQueryDistProcessIndices()</text>
<text text-anchor="start" x="234" y="-62.5" font-family="Helvetica,sans-Serif" font-size="10.00">+ doQueryRestrictedClosest</text>
<text text-anchor="start" x="234" y="-51.5" font-family="Helvetica,sans-Serif" font-size="10.00">Index()</text>
<text text-anchor="start" x="234" y="-40.5" font-family="Helvetica,sans-Serif" font-size="10.00">+ invalidIndex()</text>
<text text-anchor="start" x="234" y="-29.5" font-family="Helvetica,sans-Serif" font-size="10.00"># split()</text>
<text text-anchor="start" x="234" y="-18.5" font-family="Helvetica,sans-Serif" font-size="10.00"># createTree()</text>
<text text-anchor="start" x="234" y="-7.5" font-family="Helvetica,sans-Serif" font-size="10.00"># _doQueryDistIndicesWithFunctor()</text>
</g>
<!-- Node2 -->
<g id="node2" class="node"><title>Node2</title>
<polygon fill="white" stroke="#bfbfbf" points="0,-325.5 0,-382.5 140,-382.5 140,-325.5 0,-325.5"/>
<text text-anchor="middle" x="70" y="-370.5" font-family="Helvetica,sans-Serif" font-size="10.00">AlignedBox&lt; _Scalar, 3 &gt;</text>
<polyline fill="none" stroke="#bfbfbf" points="0,-363.5 140,-363.5 "/>
<text text-anchor="middle" x="70" y="-351.5" font-family="Helvetica,sans-Serif" font-size="10.00"> </text>
<polyline fill="none" stroke="#bfbfbf" points="0,-344.5 140,-344.5 "/>
<text text-anchor="middle" x="70" y="-332.5" font-family="Helvetica,sans-Serif" font-size="10.00"> </text>
</g>
<!-- Node2&#45;&gt;Node1 -->
<g id="edge1" class="edge"><title>Node2&#45;&gt;Node1</title>
<path fill="none" stroke="#404040" d="M101.663,-325.327C130.735,-299.918 175.456,-260.832 216.871,-224.635"/>
<polygon fill="none" stroke="#404040" points="216.891,-224.617 218.777,-217.657 225.927,-216.72 224.041,-223.68 216.891,-224.617"/>
<text text-anchor="middle" x="168.5" y="-293.5" font-family="Helvetica,sans-Serif" font-size="10.00"> #mAABB</text>
</g>
<!-- Node3 -->
<g id="node3" class="node"><title>Node3</title>
<polygon fill="white" stroke="#bfbfbf" points="158,-325.5 158,-382.5 300,-382.5 300,-325.5 158,-325.5"/>
<text text-anchor="middle" x="229" y="-370.5" font-family="Helvetica,sans-Serif" font-size="10.00">std::vector&lt; VectorType &gt;</text>
<polyline fill="none" stroke="#bfbfbf" points="158,-363.5 300,-363.5 "/>
<text text-anchor="middle" x="229" y="-351.5" font-family="Helvetica,sans-Serif" font-size="10.00"> </text>
<polyline fill="none" stroke="#bfbfbf" points="158,-344.5 300,-344.5 "/>
<text text-anchor="middle" x="229" y="-332.5" font-family="Helvetica,sans-Serif" font-size="10.00"> </text>
</g>
<!-- Node3&#45;&gt;Node1 -->
<g id="edge2" class="edge"><title>Node3&#45;&gt;Node1</title>
<path fill="none" stroke="#404040" d="M240.525,-325.327C245.912,-312.394 252.774,-295.917 260.202,-278.081"/>
<polygon fill="none" stroke="#404040" points="260.278,-277.897 258.893,-270.82 264.892,-266.819 266.278,-273.896 260.278,-277.897"/>
<text text-anchor="middle" x="281.5" y="-293.5" font-family="Helvetica,sans-Serif" font-size="10.00"> #mPoints</text>
</g>
<!-- Node4 -->
<g id="node4" class="node"><title>Node4</title>
<g id="a_node4"><a xlink:href="a00122.html" target="_top" xlink:title="{VectorType\n||}">
<polygon fill="white" stroke="black" points="162,-430.5 162,-487.5 230,-487.5 230,-430.5 162,-430.5"/>
<text text-anchor="middle" x="196" y="-475.5" font-family="Helvetica,sans-Serif" font-size="10.00">VectorType</text>
<polyline fill="none" stroke="black" points="162,-468.5 230,-468.5 "/>
<text text-anchor="middle" x="196" y="-456.5" font-family="Helvetica,sans-Serif" font-size="10.00"> </text>
<polyline fill="none" stroke="black" points="162,-449.5 230,-449.5 "/>
<text text-anchor="middle" x="196" y="-437.5" font-family="Helvetica,sans-Serif" font-size="10.00"> </text>
</a>
</g>
</g>
<!-- Node4&#45;&gt;Node3 -->
<g id="edge3" class="edge"><title>Node4&#45;&gt;Node3</title>
<path fill="none" stroke="#404040" d="M193.263,-430.211C193.171,-420.745 194.016,-410.229 197,-401 197.839,-398.405 198.878,-395.827 200.063,-393.293"/>
<polygon fill="none" stroke="#404040" points="200.201,-393.043 199.617,-385.856 206.026,-382.552 206.611,-389.739 200.201,-393.043"/>
<text text-anchor="middle" x="225.5" y="-404" font-family="Helvetica,sans-Serif" font-size="10.00"> +elements</text>
</g>
<!-- Node5 -->
<g id="node5" class="node"><title>Node5</title>
<g id="a_node5"><a xlink:title="STL class. ">
<polygon fill="white" stroke="#bfbfbf" points="409.5,-430.5 409.5,-487.5 504.5,-487.5 504.5,-430.5 409.5,-430.5"/>
<text text-anchor="middle" x="457" y="-475.5" font-family="Helvetica,sans-Serif" font-size="10.00">std::vector&lt; T &gt;</text>
<polyline fill="none" stroke="#bfbfbf" points="409.5,-468.5 504.5,-468.5 "/>
<text text-anchor="middle" x="457" y="-456.5" font-family="Helvetica,sans-Serif" font-size="10.00"> </text>
<polyline fill="none" stroke="#bfbfbf" points="409.5,-449.5 504.5,-449.5 "/>
<text text-anchor="middle" x="457" y="-437.5" font-family="Helvetica,sans-Serif" font-size="10.00"> </text>
</a>
</g>
</g>
<!-- Node5&#45;&gt;Node3 -->
<g id="edge4" class="edge"><title>Node5&#45;&gt;Node3</title>
<path fill="none" stroke="orange" d="M399.928,-431.412C374.196,-419.453 346.756,-406.749 334,-401 320.573,-394.949 306.135,-388.552 292.393,-382.516"/>
<polygon fill="orange" stroke="orange" points="398.757,-434.728 409.3,-435.77 401.708,-428.38 398.757,-434.728"/>
<text text-anchor="middle" x="397" y="-404" font-family="Helvetica,sans-Serif" font-size="10.00"> &lt; VectorType &gt;</text>
</g>
<!-- Node8 -->
<g id="node8" class="node"><title>Node8</title>
<polygon fill="white" stroke="#bfbfbf" points="500,-325.5 500,-382.5 628,-382.5 628,-325.5 500,-325.5"/>
<text text-anchor="middle" x="564" y="-370.5" font-family="Helvetica,sans-Serif" font-size="10.00">std::vector&lt; KdNode &gt;</text>
<polyline fill="none" stroke="#bfbfbf" points="500,-363.5 628,-363.5 "/>
<text text-anchor="middle" x="564" y="-351.5" font-family="Helvetica,sans-Serif" font-size="10.00"> </text>
<polyline fill="none" stroke="#bfbfbf" points="500,-344.5 628,-344.5 "/>
<text text-anchor="middle" x="564" y="-332.5" font-family="Helvetica,sans-Serif" font-size="10.00"> </text>
</g>
<!-- Node5&#45;&gt;Node8 -->
<g id="edge9" class="edge"><title>Node5&#45;&gt;Node8</title>
<path fill="none" stroke="orange" d="M493.1,-423.249C506.834,-410.029 522.283,-395.157 535.247,-382.678"/>
<polygon fill="orange" stroke="orange" points="490.451,-420.941 485.674,-430.398 495.306,-425.984 490.451,-420.941"/>
<text text-anchor="middle" x="546" y="-404" font-family="Helvetica,sans-Serif" font-size="10.00"> &lt; KdNode &gt;</text>
</g>
<!-- Node10 -->
<g id="node10" class="node"><title>Node10</title>
<polygon fill="white" stroke="#bfbfbf" points="366,-325.5 366,-382.5 482,-382.5 482,-325.5 366,-325.5"/>
<text text-anchor="middle" x="424" y="-370.5" font-family="Helvetica,sans-Serif" font-size="10.00">std::vector&lt; Index &gt;</text>
<polyline fill="none" stroke="#bfbfbf" points="366,-363.5 482,-363.5 "/>
<text text-anchor="middle" x="424" y="-351.5" font-family="Helvetica,sans-Serif" font-size="10.00"> </text>
<polyline fill="none" stroke="#bfbfbf" points="366,-344.5 482,-344.5 "/>
<text text-anchor="middle" x="424" y="-332.5" font-family="Helvetica,sans-Serif" font-size="10.00"> </text>
</g>
<!-- Node5&#45;&gt;Node10 -->
<g id="edge12" class="edge"><title>Node5&#45;&gt;Node10</title>
<path fill="none" stroke="orange" d="M445.036,-420.659C441.016,-408.112 436.607,-394.348 432.868,-382.678"/>
<polygon fill="orange" stroke="orange" points="441.772,-421.943 448.157,-430.398 448.439,-419.807 441.772,-421.943"/>
<text text-anchor="middle" x="468" y="-404" font-family="Helvetica,sans-Serif" font-size="10.00"> &lt; Index &gt;</text>
</g>
<!-- Node6 -->
<g id="node6" class="node"><title>Node6</title>
<polygon fill="white" stroke="#bfbfbf" points="442.5,-535.5 442.5,-592.5 471.5,-592.5 471.5,-535.5 442.5,-535.5"/>
<text text-anchor="middle" x="457" y="-580.5" font-family="Helvetica,sans-Serif" font-size="10.00">T</text>
<polyline fill="none" stroke="#bfbfbf" points="442.5,-573.5 471.5,-573.5 "/>
<text text-anchor="middle" x="457" y="-561.5" font-family="Helvetica,sans-Serif" font-size="10.00"> </text>
<polyline fill="none" stroke="#bfbfbf" points="442.5,-554.5 471.5,-554.5 "/>
<text text-anchor="middle" x="457" y="-542.5" font-family="Helvetica,sans-Serif" font-size="10.00"> </text>
</g>
<!-- Node6&#45;&gt;Node5 -->
<g id="edge5" class="edge"><title>Node6&#45;&gt;Node5</title>
<path fill="none" stroke="#404040" d="M457,-535.398C457,-524.545 457,-511.873 457,-500.049"/>
<polygon fill="none" stroke="#404040" points="457,-499.678 453,-493.678 457,-487.678 461,-493.678 457,-499.678"/>
<text text-anchor="middle" x="485.5" y="-509" font-family="Helvetica,sans-Serif" font-size="10.00"> +elements</text>
</g>
<!-- Node7 -->
<g id="node7" class="node"><title>Node7</title>
<g id="a_node7"><a xlink:href="a00109.html" target="_top" xlink:title="{int\n||}">
<polygon fill="white" stroke="black" points="318.5,-325.5 318.5,-382.5 347.5,-382.5 347.5,-325.5 318.5,-325.5"/>
<text text-anchor="middle" x="333" y="-370.5" font-family="Helvetica,sans-Serif" font-size="10.00">int</text>
<polyline fill="none" stroke="black" points="318.5,-363.5 347.5,-363.5 "/>
<text text-anchor="middle" x="333" y="-351.5" font-family="Helvetica,sans-Serif" font-size="10.00"> </text>
<polyline fill="none" stroke="black" points="318.5,-344.5 347.5,-344.5 "/>
<text text-anchor="middle" x="333" y="-332.5" font-family="Helvetica,sans-Serif" font-size="10.00"> </text>
</a>
</g>
</g>
<!-- Node7&#45;&gt;Node1 -->
<g id="edge6" class="edge"><title>Node7&#45;&gt;Node1</title>
<path fill="none" stroke="#404040" d="M324.633,-325.491C323.133,-319.454 321.795,-313.056 321,-307 319.794,-297.813 318.866,-288.328 318.164,-278.75"/>
<polygon fill="none" stroke="#404040" points="318.152,-278.56 313.781,-272.825 317.394,-266.584 321.765,-272.319 318.152,-278.56"/>
<text text-anchor="middle" x="368" y="-299" font-family="Helvetica,sans-Serif" font-size="10.00"> #_nofPointsPerCell</text>
<text text-anchor="middle" x="368" y="-288" font-family="Helvetica,sans-Serif" font-size="10.00">#_maxDepth</text>
</g>
<!-- Node8&#45;&gt;Node1 -->
<g id="edge7" class="edge"><title>Node8&#45;&gt;Node1</title>
<path fill="none" stroke="#404040" d="M533.097,-325.327C505.319,-300.452 462.902,-262.467 423.205,-226.919"/>
<polygon fill="none" stroke="#404040" points="423.192,-226.907 416.054,-225.885 414.252,-218.902 421.39,-219.925 423.192,-226.907"/>
<text text-anchor="middle" x="538" y="-293.5" font-family="Helvetica,sans-Serif" font-size="10.00"> #mNodes</text>
</g>
<!-- Node9 -->
<g id="node9" class="node"><title>Node9</title>
<g id="a_node9"><a xlink:href="a00116.html" target="_top" xlink:title="{KdNode\n||}">
<polygon fill="white" stroke="black" points="592,-430.5 592,-487.5 646,-487.5 646,-430.5 592,-430.5"/>
<text text-anchor="middle" x="619" y="-475.5" font-family="Helvetica,sans-Serif" font-size="10.00">KdNode</text>
<polyline fill="none" stroke="black" points="592,-468.5 646,-468.5 "/>
<text text-anchor="middle" x="619" y="-456.5" font-family="Helvetica,sans-Serif" font-size="10.00"> </text>
<polyline fill="none" stroke="black" points="592,-449.5 646,-449.5 "/>
<text text-anchor="middle" x="619" y="-437.5" font-family="Helvetica,sans-Serif" font-size="10.00"> </text>
</a>
</g>
</g>
<!-- Node9&#45;&gt;Node8 -->
<g id="edge8" class="edge"><title>Node9&#45;&gt;Node8</title>
<path fill="none" stroke="#404040" d="M609.958,-430.405C606.412,-420.857 601.991,-410.239 597,-401 595.569,-398.352 594.009,-395.679 592.37,-393.025"/>
<polygon fill="none" stroke="#404040" points="592.357,-393.006 585.72,-390.188 585.768,-382.977 592.406,-385.795 592.357,-393.006"/>
<text text-anchor="middle" x="631.5" y="-404" font-family="Helvetica,sans-Serif" font-size="10.00"> +elements</text>
</g>
<!-- Node10&#45;&gt;Node1 -->
<g id="edge10" class="edge"><title>Node10&#45;&gt;Node1</title>
<path fill="none" stroke="#404040" d="M423.03,-325.227C421.911,-312.646 419.621,-297.765 415,-285 414.137,-282.617 413.232,-280.232 412.289,-277.847"/>
<polygon fill="none" stroke="#404040" points="412.255,-277.766 406.242,-273.785 407.604,-266.704 413.616,-270.685 412.255,-277.766"/>
<text text-anchor="middle" x="448.5" y="-293.5" font-family="Helvetica,sans-Serif" font-size="10.00"> #mIndices</text>
</g>
<!-- Node11 -->
<g id="node11" class="node"><title>Node11</title>
<g id="a_node11"><a xlink:href="a00113.html" target="_top" xlink:title="{Index\n||}">
<polygon fill="white" stroke="black" points="255,-430.5 255,-487.5 297,-487.5 297,-430.5 255,-430.5"/>
<text text-anchor="middle" x="276" y="-475.5" font-family="Helvetica,sans-Serif" font-size="10.00">Index</text>
<polyline fill="none" stroke="black" points="255,-468.5 297,-468.5 "/>
<text text-anchor="middle" x="276" y="-456.5" font-family="Helvetica,sans-Serif" font-size="10.00"> </text>
<polyline fill="none" stroke="black" points="255,-449.5 297,-449.5 "/>
<text text-anchor="middle" x="276" y="-437.5" font-family="Helvetica,sans-Serif" font-size="10.00"> </text>
</a>
</g>
</g>
<!-- Node11&#45;&gt;Node10 -->
<g id="edge11" class="edge"><title>Node11&#45;&gt;Node10</title>
<path fill="none" stroke="#404040" d="M269.795,-430.321C269.102,-420.105 270.448,-409.067 277,-401 297.575,-375.668 317.55,-390.414 354.102,-382.784"/>
<polygon fill="none" stroke="#404040" points="354.398,-382.705 359.172,-377.3 365.997,-379.628 361.223,-385.033 354.398,-382.705"/>
<text text-anchor="middle" x="305.5" y="-404" font-family="Helvetica,sans-Serif" font-size="10.00"> +elements</text>
</g>
</g>
</svg>
        <g id="navigator" transform="translate(0 0)" fill="#404254">
                <rect fill="#f2f5e9" fill-opacity="0.5" stroke="#606060" stroke-width=".5" x="0" y="0" width="60" height="60"/>
                <use id="zoomplus" xlink:href="#zoomPlus" x="17" y="9" onmousedown="handleZoom(evt,'in')"/>
                <use id="zoomminus" xlink:href="#zoomMin" x="42" y="9" onmousedown="handleZoom(evt,'out')"/>
                <use id="reset" xlink:href="#resetDef" x="30" y="36" onmousedown="handleReset()"/>
                <g id="arrowUp" xlink:href="#dirArrow" transform="translate(30 24)" onmousedown="handlePan(0,-1)">
                  <use xlink:href="#rim" fill="#404040">
                        <set attributeName="fill" to="#808080" begin="arrowUp.mouseover" end="arrowUp.mouseout"/>
                  </use>
                  <path fill="none" stroke="white" stroke-width="1.5" d="M0,-3.0v7 M-2.5,-0.5L0,-3.0L2.5,-0.5"/>
                </g>
                <g id="arrowRight" xlink:href="#dirArrow" transform="rotate(90) translate(36 -43)" onmousedown="handlePan(1,0)">
                  <use xlink:href="#rim" fill="#404040">
                        <set attributeName="fill" to="#808080" begin="arrowRight.mouseover" end="arrowRight.mouseout"/>
                  </use>
                  <path fill="none" stroke="white" stroke-width="1.5" d="M0,-3.0v7 M-2.5,-0.5L0,-3.0L2.5,-0.5"/>
                </g>
                <g id="arrowDown" xlink:href="#dirArrow" transform="rotate(180) translate(-30 -48)" onmousedown="handlePan(0,1)">
                  <use xlink:href="#rim" fill="#404040">
                        <set attributeName="fill" to="#808080" begin="arrowDown.mouseover" end="arrowDown.mouseout"/>
                  </use>
                  <path fill="none" stroke="white" stroke-width="1.5" d="M0,-3.0v7 M-2.5,-0.5L0,-3.0L2.5,-0.5"/>
                </g>
                <g id="arrowLeft" xlink:href="#dirArrow" transform="rotate(270) translate(-36 17)" onmousedown="handlePan(-1,0)">
                  <use xlink:href="#rim" fill="#404040">
                        <set attributeName="fill" to="#808080" begin="arrowLeft.mouseover" end="arrowLeft.mouseout"/>
                  </use>
                  <path fill="none" stroke="white" stroke-width="1.5" d="M0,-3.0v7 M-2.5,-0.5L0,-3.0L2.5,-0.5"/>
                </g>
        </g>
        <svg viewBox="0 0 15 15" width="100%" height="30px" preserveAspectRatio="xMaxYMin meet">
         <g id="arrow_out" transform="scale(0.3 0.3)">
          <a xlink:href="a00157_org.svg" target="_base">
           <rect id="button" ry="5" rx="5" y="6" x="6" height="38" width="38"
                fill="#f2f5e9" fill-opacity="0.5" stroke="#606060" stroke-width="1.0"/>
           <path id="arrow"
             d="M 11.500037,31.436501 C 11.940474,20.09759 22.043105,11.32322 32.158766,21.979434 L 37.068811,17.246167 C 37.068811,17.246167 37.088388,32 37.088388,32 L 22.160133,31.978069 C 22.160133,31.978069 26.997745,27.140456 26.997745,27.140456 C 18.528582,18.264221 13.291696,25.230495 11.500037,31.436501 z"
             style="fill:#404040;"/>
          </a>
         </g>
        </svg>
</svg>
