<?xml version="1.0" encoding="UTF-8" standalone="no"?>
<!DOCTYPE svg PUBLIC "-//W3C//DTD SVG 1.1//EN"
 "http://www.w3.org/Graphics/SVG/1.1/DTD/svg11.dtd">
<!-- Generated by graphviz version 2.38.0 (20140413.2041)
 -->
<!-- Title: gr::AdaptivePointFilter::Options&lt; Derived, TBase &gt; Pages: 1 -->
<svg width="226pt" height="193pt"
 viewBox="0.00 0.00 226.00 193.00" xmlns="http://www.w3.org/2000/svg" xmlns:xlink="http://www.w3.org/1999/xlink">
<g id="graph0" class="graph" transform="scale(1 1) rotate(0) translate(4 189)">
<title>gr::AdaptivePointFilter::Options&lt; Derived, TBase &gt;</title>
<polygon fill="white" stroke="none" points="-4,4 -4,-189 222,-189 222,4 -4,4"/>
<!-- Node1 -->
<g id="node1" class="node"><title>Node1</title>
<polygon fill="#bfbfbf" stroke="black" points="0,-0.5 0,-68.5 154,-68.5 154,-0.5 0,-0.5"/>
<text text-anchor="start" x="8" y="-56.5" font-family="Helvetica,sans-Serif" font-size="10.00">gr::AdaptivePointFilter</text>
<text text-anchor="middle" x="77" y="-45.5" font-family="Helvetica,sans-Serif" font-size="10.00">::Options&lt; Derived, TBase &gt;</text>
<polyline fill="none" stroke="black" points="0,-38.5 154,-38.5 "/>
<text text-anchor="middle" x="77" y="-26.5" font-family="Helvetica,sans-Serif" font-size="10.00"> </text>
<polyline fill="none" stroke="black" points="0,-19.5 154,-19.5 "/>
<text text-anchor="middle" x="77" y="-7.5" font-family="Helvetica,sans-Serif" font-size="10.00"> </text>
</g>
<!-- Node2 -->
<g id="node2" class="node"><title>Node2</title>
<g id="a_node2"><a xlink:href="a00048.html" target="_top" xlink:title="{TBase\n||}">
<polygon fill="white" stroke="black" points="22,-127.5 22,-184.5 68,-184.5 68,-127.5 22,-127.5"/>
<text text-anchor="middle" x="45" y="-172.5" font-family="Helvetica,sans-Serif" font-size="10.00">TBase</text>
<polyline fill="none" stroke="black" points="22,-165.5 68,-165.5 "/>
<text text-anchor="middle" x="45" y="-153.5" font-family="Helvetica,sans-Serif" font-size="10.00"> </text>
<polyline fill="none" stroke="black" points="22,-146.5 68,-146.5 "/>
<text text-anchor="middle" x="45" y="-134.5" font-family="Helvetica,sans-Serif" font-size="10.00"> </text>
</a>
</g>
</g>
<!-- Node2&#45;&gt;Node1 -->
<g id="edge1" class="edge"><title>Node2&#45;&gt;Node1</title>
<path fill="none" stroke="midnightblue" d="M55.0704,-117.393C59.2616,-101.742 64.0851,-83.729 68.1393,-68.5891"/>
<polygon fill="none" stroke="midnightblue" points="51.6278,-116.719 52.4219,-127.284 58.3895,-118.53 51.6278,-116.719"/>
</g>
<!-- Node3 -->
<g id="node3" class="node"><title>Node3</title>
<polygon fill="white" stroke="#bfbfbf" points="86.5,-127.5 86.5,-184.5 133.5,-184.5 133.5,-127.5 86.5,-127.5"/>
<text text-anchor="middle" x="110" y="-172.5" font-family="Helvetica,sans-Serif" font-size="10.00">Scalar</text>
<polyline fill="none" stroke="#bfbfbf" points="86.5,-165.5 133.5,-165.5 "/>
<text text-anchor="middle" x="110" y="-153.5" font-family="Helvetica,sans-Serif" font-size="10.00"> </text>
<polyline fill="none" stroke="#bfbfbf" points="86.5,-146.5 133.5,-146.5 "/>
<text text-anchor="middle" x="110" y="-134.5" font-family="Helvetica,sans-Serif" font-size="10.00"> </text>
</g>
<!-- Node3&#45;&gt;Node1 -->
<g id="edge2" class="edge"><title>Node3&#45;&gt;Node1</title>
<path fill="none" stroke="#404040" d="M102.346,-127.284C98.4924,-113.328 93.7244,-96.0626 89.3674,-80.2849"/>
<polygon fill="none" stroke="#404040" points="89.3319,-80.1561 83.879,-75.4374 86.1376,-68.5891 91.5904,-73.3078 89.3319,-80.1561"/>
<text text-anchor="middle" x="157.5" y="-101" font-family="Helvetica,sans-Serif" font-size="10.00"> +max_color_distance</text>
<text text-anchor="middle" x="157.5" y="-90" font-family="Helvetica,sans-Serif" font-size="10.00">+max_normal_difference</text>
</g>
</g>
</svg>
