<?xml version="1.0" encoding="UTF-8" standalone="no"?>
<!DOCTYPE svg PUBLIC "-//W3C//DTD SVG 1.1//EN"
 "http://www.w3.org/Graphics/SVG/1.1/DTD/svg11.dtd">
<!-- Generated by graphviz version 2.38.0 (20140413.2041)
 -->
<!-- Title: gr::MatchBase&lt; _TransformVisitor, OptExts &gt;::Options&lt; Derived, TBase &gt; Pages: 1 -->
<svg width="392pt" height="226pt"
 viewBox="0.00 0.00 392.00 226.00" xmlns="http://www.w3.org/2000/svg" xmlns:xlink="http://www.w3.org/1999/xlink">
<g id="graph0" class="graph" transform="scale(1 1) rotate(0) translate(4 222)">
<title>gr::MatchBase&lt; _TransformVisitor, OptExts &gt;::Options&lt; Derived, TBase &gt;</title>
<polygon fill="white" stroke="none" points="-4,4 -4,-222 388,-222 388,4 -4,4"/>
<!-- Node1 -->
<g id="node1" class="node"><title>Node1</title>
<polygon fill="#bfbfbf" stroke="black" points="62.5,-0.5 62.5,-79.5 211.5,-79.5 211.5,-0.5 62.5,-0.5"/>
<text text-anchor="start" x="70.5" y="-67.5" font-family="Helvetica,sans-Serif" font-size="10.00">gr::MatchBase&lt; _Transform</text>
<text text-anchor="start" x="70.5" y="-56.5" font-family="Helvetica,sans-Serif" font-size="10.00">Visitor, OptExts &gt;::Options</text>
<text text-anchor="middle" x="137" y="-45.5" font-family="Helvetica,sans-Serif" font-size="10.00">&lt; Derived, TBase &gt;</text>
<polyline fill="none" stroke="black" points="62.5,-38.5 211.5,-38.5 "/>
<text text-anchor="middle" x="137" y="-26.5" font-family="Helvetica,sans-Serif" font-size="10.00"> </text>
<polyline fill="none" stroke="black" points="62.5,-19.5 211.5,-19.5 "/>
<text text-anchor="middle" x="137" y="-7.5" font-family="Helvetica,sans-Serif" font-size="10.00"> </text>
</g>
<!-- Node2 -->
<g id="node2" class="node"><title>Node2</title>
<g id="a_node2"><a xlink:href="a00048.html" target="_top" xlink:title="{TBase\n||}">
<polygon fill="white" stroke="black" points="0,-160.5 0,-217.5 46,-217.5 46,-160.5 0,-160.5"/>
<text text-anchor="middle" x="23" y="-205.5" font-family="Helvetica,sans-Serif" font-size="10.00">TBase</text>
<polyline fill="none" stroke="black" points="0,-198.5 46,-198.5 "/>
<text text-anchor="middle" x="23" y="-186.5" font-family="Helvetica,sans-Serif" font-size="10.00"> </text>
<polyline fill="none" stroke="black" points="0,-179.5 46,-179.5 "/>
<text text-anchor="middle" x="23" y="-167.5" font-family="Helvetica,sans-Serif" font-size="10.00"> </text>
</a>
</g>
</g>
<!-- Node2&#45;&gt;Node1 -->
<g id="edge1" class="edge"><title>Node2&#45;&gt;Node1</title>
<path fill="none" stroke="midnightblue" d="M40.4821,-151.099C49.3636,-134.122 61.0199,-114.201 74,-98 79.0723,-91.6689 84.873,-85.4272 90.855,-79.5287"/>
<polygon fill="none" stroke="midnightblue" points="37.2728,-149.688 35.8426,-160.186 43.5072,-152.871 37.2728,-149.688"/>
</g>
<!-- Node3 -->
<g id="node3" class="node"><title>Node3</title>
<polygon fill="white" stroke="#bfbfbf" points="64,-160.5 64,-217.5 102,-217.5 102,-160.5 64,-160.5"/>
<text text-anchor="middle" x="83" y="-205.5" font-family="Helvetica,sans-Serif" font-size="10.00">float</text>
<polyline fill="none" stroke="#bfbfbf" points="64,-198.5 102,-198.5 "/>
<text text-anchor="middle" x="83" y="-186.5" font-family="Helvetica,sans-Serif" font-size="10.00"> </text>
<polyline fill="none" stroke="#bfbfbf" points="64,-179.5 102,-179.5 "/>
<text text-anchor="middle" x="83" y="-167.5" font-family="Helvetica,sans-Serif" font-size="10.00"> </text>
</g>
<!-- Node3&#45;&gt;Node1 -->
<g id="edge2" class="edge"><title>Node3&#45;&gt;Node1</title>
<path fill="none" stroke="#404040" d="M78.2561,-160.222C76.3264,-141.902 76.1159,-117.735 84,-98 85.0786,-95.3001 86.3503,-92.6515 87.775,-90.0645"/>
<polygon fill="none" stroke="#404040" points="87.8882,-89.8888 87.7776,-82.6785 94.3908,-79.8033 94.5013,-87.0136 87.8882,-89.8888"/>
<text text-anchor="middle" x="127" y="-134" font-family="Helvetica,sans-Serif" font-size="10.00"> +max_angle</text>
<text text-anchor="middle" x="127" y="-123" font-family="Helvetica,sans-Serif" font-size="10.00">+delta</text>
<text text-anchor="start" x="84" y="-112" font-family="Helvetica,sans-Serif" font-size="10.00">+max_translation</text>
<text text-anchor="middle" x="127" y="-101" font-family="Helvetica,sans-Serif" font-size="10.00">_distance</text>
</g>
<!-- Node4 -->
<g id="node4" class="node"><title>Node4</title>
<polygon fill="white" stroke="#bfbfbf" points="170,-160.5 170,-217.5 214,-217.5 214,-160.5 170,-160.5"/>
<text text-anchor="middle" x="192" y="-205.5" font-family="Helvetica,sans-Serif" font-size="10.00">size_t</text>
<polyline fill="none" stroke="#bfbfbf" points="170,-198.5 214,-198.5 "/>
<text text-anchor="middle" x="192" y="-186.5" font-family="Helvetica,sans-Serif" font-size="10.00"> </text>
<polyline fill="none" stroke="#bfbfbf" points="170,-179.5 214,-179.5 "/>
<text text-anchor="middle" x="192" y="-167.5" font-family="Helvetica,sans-Serif" font-size="10.00"> </text>
</g>
<!-- Node4&#45;&gt;Node1 -->
<g id="edge3" class="edge"><title>Node4&#45;&gt;Node1</title>
<path fill="none" stroke="#404040" d="M187.33,-160.191C183.775,-142.074 178.1,-118.147 170,-98 168.995,-95.5002 167.895,-92.9777 166.727,-90.4578"/>
<polygon fill="none" stroke="#404040" points="166.616,-90.2365 160.354,-86.661 161.246,-79.5053 167.508,-83.0808 166.616,-90.2365"/>
<text text-anchor="middle" x="218.5" y="-117.5" font-family="Helvetica,sans-Serif" font-size="10.00"> +sample_size</text>
</g>
<!-- Node5 -->
<g id="node5" class="node"><title>Node5</title>
<g id="a_node5"><a xlink:href="a00109.html" target="_top" xlink:title="{int\n||}">
<polygon fill="white" stroke="black" points="271.5,-160.5 271.5,-217.5 300.5,-217.5 300.5,-160.5 271.5,-160.5"/>
<text text-anchor="middle" x="286" y="-205.5" font-family="Helvetica,sans-Serif" font-size="10.00">int</text>
<polyline fill="none" stroke="black" points="271.5,-198.5 300.5,-198.5 "/>
<text text-anchor="middle" x="286" y="-186.5" font-family="Helvetica,sans-Serif" font-size="10.00"> </text>
<polyline fill="none" stroke="black" points="271.5,-179.5 300.5,-179.5 "/>
<text text-anchor="middle" x="286" y="-167.5" font-family="Helvetica,sans-Serif" font-size="10.00"> </text>
</a>
</g>
</g>
<!-- Node5&#45;&gt;Node1 -->
<g id="edge4" class="edge"><title>Node5&#45;&gt;Node1</title>
<path fill="none" stroke="#404040" d="M283.295,-160.369C280.102,-140.94 273.146,-115.406 258,-98 248.197,-86.7347 235.684,-77.5323 222.44,-70.0672"/>
<polygon fill="none" stroke="#404040" points="222.333,-70.0109 215.162,-70.7728 211.701,-64.4466 218.872,-63.6848 222.333,-70.0109"/>
<text text-anchor="middle" x="331.5" y="-123" font-family="Helvetica,sans-Serif" font-size="10.00"> +max_time_seconds</text>
<text text-anchor="middle" x="331.5" y="-112" font-family="Helvetica,sans-Serif" font-size="10.00">+randomSeed</text>
</g>
</g>
</svg>
