<?xml version="1.0" encoding="UTF-8" standalone="no"?>
<!DOCTYPE svg PUBLIC "-//W3C//DTD SVG 1.1//EN"
 "http://www.w3.org/Graphics/SVG/1.1/DTD/svg11.dtd">
<!-- Generated by graphviz version 2.38.0 (20140413.2041)
 -->
<!-- Title: gr::Accelerators::PairExtraction::NdNode&lt; Point, _dim, Scalar, _PointContainer, _IdContainer &gt; Pages: 1 -->
<svg width="354pt" height="325pt"
 viewBox="0.00 0.00 353.50 325.00" xmlns="http://www.w3.org/2000/svg" xmlns:xlink="http://www.w3.org/1999/xlink">
<g id="graph0" class="graph" transform="scale(1 1) rotate(0) translate(4 321)">
<title>gr::Accelerators::PairExtraction::NdNode&lt; Point, _dim, Scalar, _PointContainer, _IdContainer &gt;</title>
<polygon fill="white" stroke="none" points="-4,4 -4,-321 349.5,-321 349.5,4 -4,4"/>
<!-- Node1 -->
<g id="node1" class="node"><title>Node1</title>
<polygon fill="#bfbfbf" stroke="black" points="105.5,-0.5 105.5,-200.5 278.5,-200.5 278.5,-0.5 105.5,-0.5"/>
<text text-anchor="start" x="113.5" y="-188.5" font-family="Helvetica,sans-Serif" font-size="10.00">gr::Accelerators::PairExtraction</text>
<text text-anchor="start" x="113.5" y="-177.5" font-family="Helvetica,sans-Serif" font-size="10.00">::NdNode&lt; Point, _dim, Scalar,</text>
<text text-anchor="middle" x="192" y="-166.5" font-family="Helvetica,sans-Serif" font-size="10.00"> _PointContainer, _IdContainer &gt;</text>
<polyline fill="none" stroke="black" points="105.5,-159.5 278.5,-159.5 "/>
<text text-anchor="middle" x="192" y="-147.5" font-family="Helvetica,sans-Serif" font-size="10.00"> </text>
<polyline fill="none" stroke="black" points="105.5,-140.5 278.5,-140.5 "/>
<text text-anchor="start" x="113.5" y="-128.5" font-family="Helvetica,sans-Serif" font-size="10.00">+ NdNode()</text>
<text text-anchor="start" x="113.5" y="-117.5" font-family="Helvetica,sans-Serif" font-size="10.00">+ NdNode()</text>
<text text-anchor="start" x="113.5" y="-106.5" font-family="Helvetica,sans-Serif" font-size="10.00">+ operator=()</text>
<text text-anchor="start" x="113.5" y="-95.5" font-family="Helvetica,sans-Serif" font-size="10.00">+ ~NdNode()</text>
<text text-anchor="start" x="113.5" y="-84.5" font-family="Helvetica,sans-Serif" font-size="10.00">+ rangeLength()</text>
<text text-anchor="start" x="113.5" y="-73.5" font-family="Helvetica,sans-Serif" font-size="10.00">+ rangeBegin()</text>
<text text-anchor="start" x="113.5" y="-62.5" font-family="Helvetica,sans-Serif" font-size="10.00">+ rangeEnd()</text>
<text text-anchor="start" x="113.5" y="-51.5" font-family="Helvetica,sans-Serif" font-size="10.00">+ pointInRange()</text>
<text text-anchor="start" x="113.5" y="-40.5" font-family="Helvetica,sans-Serif" font-size="10.00">+ idInRange()</text>
<text text-anchor="start" x="113.5" y="-29.5" font-family="Helvetica,sans-Serif" font-size="10.00">+ center()</text>
<text text-anchor="start" x="113.5" y="-18.5" font-family="Helvetica,sans-Serif" font-size="10.00">+ split()</text>
<text text-anchor="start" x="113.5" y="-7.5" font-family="Helvetica,sans-Serif" font-size="10.00">+ buildUnitRootNode()</text>
</g>
<!-- Node2 -->
<g id="node2" class="node"><title>Node2</title>
<polygon fill="white" stroke="#bfbfbf" points="0,-259.5 0,-316.5 128,-316.5 128,-259.5 0,-259.5"/>
<text text-anchor="middle" x="64" y="-304.5" font-family="Helvetica,sans-Serif" font-size="10.00">const PointContainer &amp;</text>
<polyline fill="none" stroke="#bfbfbf" points="0,-297.5 128,-297.5 "/>
<text text-anchor="middle" x="64" y="-285.5" font-family="Helvetica,sans-Serif" font-size="10.00"> </text>
<polyline fill="none" stroke="#bfbfbf" points="0,-278.5 128,-278.5 "/>
<text text-anchor="middle" x="64" y="-266.5" font-family="Helvetica,sans-Serif" font-size="10.00"> </text>
</g>
<!-- Node2&#45;&gt;Node1 -->
<g id="edge1" class="edge"><title>Node2&#45;&gt;Node1</title>
<path fill="none" stroke="#404040" d="M83.1629,-259.229C92.4603,-245.755 104.295,-228.604 116.715,-210.605"/>
<polygon fill="none" stroke="#404040" points="116.847,-210.413 116.963,-203.202 123.663,-200.536 123.547,-207.746 116.847,-210.413"/>
<text text-anchor="middle" x="133" y="-227.5" font-family="Helvetica,sans-Serif" font-size="10.00"> #_points</text>
</g>
<!-- Node3 -->
<g id="node3" class="node"><title>Node3</title>
<g id="a_node3"><a xlink:href="a00109.html" target="_top" xlink:title="{int\n||}">
<polygon fill="white" stroke="black" points="146.5,-259.5 146.5,-316.5 175.5,-316.5 175.5,-259.5 146.5,-259.5"/>
<text text-anchor="middle" x="161" y="-304.5" font-family="Helvetica,sans-Serif" font-size="10.00">int</text>
<polyline fill="none" stroke="black" points="146.5,-297.5 175.5,-297.5 "/>
<text text-anchor="middle" x="161" y="-285.5" font-family="Helvetica,sans-Serif" font-size="10.00"> </text>
<polyline fill="none" stroke="black" points="146.5,-278.5 175.5,-278.5 "/>
<text text-anchor="middle" x="161" y="-266.5" font-family="Helvetica,sans-Serif" font-size="10.00"> </text>
</a>
</g>
</g>
<!-- Node3&#45;&gt;Node1 -->
<g id="edge2" class="edge"><title>Node3&#45;&gt;Node1</title>
<path fill="none" stroke="#404040" d="M159.94,-259.431C159.838,-247.024 160.239,-232.225 162,-219 162.29,-216.825 162.605,-214.632 162.944,-212.427"/>
<polygon fill="none" stroke="#404040" points="162.954,-212.372 160.018,-205.786 164.968,-200.542 167.904,-207.128 162.954,-212.372"/>
<text text-anchor="middle" x="182" y="-233" font-family="Helvetica,sans-Serif" font-size="10.00"> #_end</text>
<text text-anchor="middle" x="182" y="-222" font-family="Helvetica,sans-Serif" font-size="10.00">#_begin</text>
</g>
<!-- Node4 -->
<g id="node4" class="node"><title>Node4</title>
<polygon fill="white" stroke="#bfbfbf" points="203.5,-259.5 203.5,-316.5 244.5,-316.5 244.5,-259.5 203.5,-259.5"/>
<text text-anchor="middle" x="224" y="-304.5" font-family="Helvetica,sans-Serif" font-size="10.00">Point</text>
<polyline fill="none" stroke="#bfbfbf" points="203.5,-297.5 244.5,-297.5 "/>
<text text-anchor="middle" x="224" y="-285.5" font-family="Helvetica,sans-Serif" font-size="10.00"> </text>
<polyline fill="none" stroke="#bfbfbf" points="203.5,-278.5 244.5,-278.5 "/>
<text text-anchor="middle" x="224" y="-266.5" font-family="Helvetica,sans-Serif" font-size="10.00"> </text>
</g>
<!-- Node4&#45;&gt;Node1 -->
<g id="edge3" class="edge"><title>Node4&#45;&gt;Node1</title>
<path fill="none" stroke="#404040" d="M219.209,-259.229C216.971,-246.254 214.145,-229.869 211.166,-212.601"/>
<polygon fill="none" stroke="#404040" points="211.124,-212.361 206.163,-207.128 209.084,-200.536 214.046,-205.768 211.124,-212.361"/>
<text text-anchor="middle" x="240" y="-227.5" font-family="Helvetica,sans-Serif" font-size="10.00"> #_center</text>
</g>
<!-- Node5 -->
<g id="node5" class="node"><title>Node5</title>
<polygon fill="white" stroke="#bfbfbf" points="262.5,-259.5 262.5,-316.5 345.5,-316.5 345.5,-259.5 262.5,-259.5"/>
<text text-anchor="middle" x="304" y="-304.5" font-family="Helvetica,sans-Serif" font-size="10.00">IdContainer &amp;</text>
<polyline fill="none" stroke="#bfbfbf" points="262.5,-297.5 345.5,-297.5 "/>
<text text-anchor="middle" x="304" y="-285.5" font-family="Helvetica,sans-Serif" font-size="10.00"> </text>
<polyline fill="none" stroke="#bfbfbf" points="262.5,-278.5 345.5,-278.5 "/>
<text text-anchor="middle" x="304" y="-266.5" font-family="Helvetica,sans-Serif" font-size="10.00"> </text>
</g>
<!-- Node5&#45;&gt;Node1 -->
<g id="edge4" class="edge"><title>Node5&#45;&gt;Node1</title>
<path fill="none" stroke="#404040" d="M290,-259.238C283.547,-246.794 275.637,-232.02 268,-219 266.467,-216.387 264.904,-213.75 263.316,-211.097"/>
<polygon fill="none" stroke="#404040" points="263.299,-211.071 256.77,-208.01 257.084,-200.806 263.613,-203.866 263.299,-211.071"/>
<text text-anchor="middle" x="295.5" y="-227.5" font-family="Helvetica,sans-Serif" font-size="10.00"> #_ids</text>
</g>
</g>
</svg>
