<?xml version="1.0" encoding="UTF-8" standalone="no"?>
<!DOCTYPE svg PUBLIC "-//W3C//DTD SVG 1.1//EN"
 "http://www.w3.org/Graphics/SVG/1.1/DTD/svg11.dtd">
<!-- Generated by graphviz version 2.38.0 (20140413.2041)
 -->
<!-- Title: gr::Utils::CRTP&lt; Bases &gt; Pages: 1 -->
<!--zoomable 299 -->
<svg id="main" version="1.1" xmlns="http://www.w3.org/2000/svg" xmlns:xlink="http://www.w3.org/1999/xlink" xml:space="preserve" onload="init(evt)">
<style type="text/css"><![CDATA[
.edge:hover path { stroke: red; }
.edge:hover polygon { stroke: red; fill: red; }
]]></style>
<script type="text/javascript"><![CDATA[
var edges = document.getElementsByTagName('g');
if (edges && edges.length) {
  for (var i=0;i<edges.length;i++) {
    if (edges[i].id.substr(0,4)=='edge') {
      edges[i].setAttribute('class','edge');
    }
  }
}
]]></script>
        <defs>
                <circle id="rim" cx="0" cy="0" r="7"/>
                <circle id="rim2" cx="0" cy="0" r="3.5"/>
                <g id="zoomPlus">
                        <use xlink:href="#rim" fill="#404040">
                                <set attributeName="fill" to="#808080" begin="zoomplus.mouseover" end="zoomplus.mouseout"/>
                        </use>
                        <path d="M-4,0h8M0,-4v8" fill="none" stroke="white" stroke-width="1.5" pointer-events="none"/>
                </g>
                <g id="zoomMin">
                        <use xlink:href="#rim" fill="#404040">
                                <set attributeName="fill" to="#808080" begin="zoomminus.mouseover" end="zoomminus.mouseout"/>
                        </use>
                        <path d="M-4,0h8" fill="none" stroke="white" stroke-width="1.5" pointer-events="none"/>
                </g>
                <g id="dirArrow">
                        <path fill="none" stroke="white" stroke-width="1.5" d="M0,-3.0v7 M-2.5,-0.5L0,-3.0L2.5,-0.5"/>
                </g>
               <g id="resetDef">
                       <use xlink:href="#rim2" fill="#404040">
                               <set attributeName="fill" to="#808080" begin="reset.mouseover" end="reset.mouseout"/>
                       </use>
               </g>
        </defs>

<script type="text/javascript">
var viewWidth = 516;
var viewHeight = 299;
var sectionId = 'dynsection-0';
</script>
<script xlink:href="svgpan.js"/>
<svg id="graph" class="graph">
<g id="viewport">
<title>gr::Utils::CRTP&lt; Bases &gt;</title>
<polygon fill="white" stroke="none" points="-4,4 -4,-295 511.5,-295 511.5,4 -4,4"/>
<!-- Node1 -->
<g id="node1" class="node"><title>Node1</title>
<polygon fill="#bfbfbf" stroke="black" points="168.5,-127.5 168.5,-184.5 302.5,-184.5 302.5,-127.5 168.5,-127.5"/>
<text text-anchor="middle" x="235.5" y="-172.5" font-family="Helvetica,sans-Serif" font-size="10.00">gr::Utils::CRTP&lt; Bases &gt;</text>
<polyline fill="none" stroke="black" points="168.5,-165.5 302.5,-165.5 "/>
<text text-anchor="middle" x="235.5" y="-153.5" font-family="Helvetica,sans-Serif" font-size="10.00"> </text>
<polyline fill="none" stroke="black" points="168.5,-146.5 302.5,-146.5 "/>
<text text-anchor="middle" x="235.5" y="-134.5" font-family="Helvetica,sans-Serif" font-size="10.00"> </text>
</g>
<!-- Node3 -->
<g id="node3" class="node"><title>Node3</title>
<g id="a_node3"><a xlink:href="a00018.html" target="_top" xlink:title="{gr::Utils::CRTP\&lt; OptExts...,\l Options \&gt;\n||}">
<polygon fill="white" stroke="black" points="0,-0.5 0,-68.5 143,-68.5 143,-0.5 0,-0.5"/>
<text text-anchor="start" x="8" y="-56.5" font-family="Helvetica,sans-Serif" font-size="10.00">gr::Utils::CRTP&lt; OptExts...,</text>
<text text-anchor="middle" x="71.5" y="-45.5" font-family="Helvetica,sans-Serif" font-size="10.00"> Options &gt;</text>
<polyline fill="none" stroke="black" points="0,-38.5 143,-38.5 "/>
<text text-anchor="middle" x="71.5" y="-26.5" font-family="Helvetica,sans-Serif" font-size="10.00"> </text>
<polyline fill="none" stroke="black" points="0,-19.5 143,-19.5 "/>
<text text-anchor="middle" x="71.5" y="-7.5" font-family="Helvetica,sans-Serif" font-size="10.00"> </text>
</a>
</g>
</g>
<!-- Node1&#45;&gt;Node3 -->
<g id="edge2" class="edge"><title>Node1&#45;&gt;Node3</title>
<path fill="none" stroke="orange" d="M158.969,-133.931C143.878,-127.519 128.896,-119.339 116.5,-109 103.516,-98.1711 93.2266,-82.5814 85.7829,-68.5436"/>
<polygon fill="orange" stroke="orange" points="157.773,-137.223 168.357,-137.699 160.38,-130.726 157.773,-137.223"/>
<text text-anchor="middle" x="174" y="-95.5" font-family="Helvetica,sans-Serif" font-size="10.00"> &lt; OptExts..., Options &gt;</text>
</g>
<!-- Node4 -->
<g id="node4" class="node"><title>Node4</title>
<g id="a_node4"><a xlink:href="a00018.html" target="_top" xlink:title="{gr::Utils::CRTP\&lt; PairFiltering\lOptions......, Options \&gt;\n||}">
<polygon fill="white" stroke="black" points="161.5,-0.5 161.5,-68.5 309.5,-68.5 309.5,-0.5 161.5,-0.5"/>
<text text-anchor="start" x="169.5" y="-56.5" font-family="Helvetica,sans-Serif" font-size="10.00">gr::Utils::CRTP&lt; PairFiltering</text>
<text text-anchor="middle" x="235.5" y="-45.5" font-family="Helvetica,sans-Serif" font-size="10.00">Options......, Options &gt;</text>
<polyline fill="none" stroke="black" points="161.5,-38.5 309.5,-38.5 "/>
<text text-anchor="middle" x="235.5" y="-26.5" font-family="Helvetica,sans-Serif" font-size="10.00"> </text>
<polyline fill="none" stroke="black" points="161.5,-19.5 309.5,-19.5 "/>
<text text-anchor="middle" x="235.5" y="-7.5" font-family="Helvetica,sans-Serif" font-size="10.00"> </text>
</a>
</g>
</g>
<!-- Node1&#45;&gt;Node4 -->
<g id="edge3" class="edge"><title>Node1&#45;&gt;Node4</title>
<path fill="none" stroke="orange" d="M235.5,-116.946C235.5,-101.399 235.5,-83.5848 235.5,-68.5891"/>
<polygon fill="orange" stroke="orange" points="232,-117.284 235.5,-127.284 239,-117.284 232,-117.284"/>
<text text-anchor="start" x="235.5" y="-101" font-family="Helvetica,sans-Serif" font-size="10.00"> &lt; PairFilteringOptions......,</text>
<text text-anchor="middle" x="299" y="-90" font-family="Helvetica,sans-Serif" font-size="10.00"> Options &gt;</text>
</g>
<!-- Node5 -->
<g id="node5" class="node"><title>Node5</title>
<g id="a_node5"><a xlink:href="a00018.html" target="_top" xlink:title="{gr::Utils::CRTP\&lt; OptExts......,\l Options \&gt;\n||}">
<polygon fill="white" stroke="black" points="327.5,-0.5 327.5,-68.5 479.5,-68.5 479.5,-0.5 327.5,-0.5"/>
<text text-anchor="start" x="335.5" y="-56.5" font-family="Helvetica,sans-Serif" font-size="10.00">gr::Utils::CRTP&lt; OptExts......,</text>
<text text-anchor="middle" x="403.5" y="-45.5" font-family="Helvetica,sans-Serif" font-size="10.00"> Options &gt;</text>
<polyline fill="none" stroke="black" points="327.5,-38.5 479.5,-38.5 "/>
<text text-anchor="middle" x="403.5" y="-26.5" font-family="Helvetica,sans-Serif" font-size="10.00"> </text>
<polyline fill="none" stroke="black" points="327.5,-19.5 479.5,-19.5 "/>
<text text-anchor="middle" x="403.5" y="-7.5" font-family="Helvetica,sans-Serif" font-size="10.00"> </text>
</a>
</g>
</g>
<!-- Node1&#45;&gt;Node5 -->
<g id="edge4" class="edge"><title>Node1&#45;&gt;Node5</title>
<path fill="none" stroke="orange" d="M312.376,-138.878C331.641,-132.072 351.167,-122.477 366.5,-109 378.625,-98.3425 387.255,-82.7729 393.113,-68.7041"/>
<polygon fill="orange" stroke="orange" points="311.049,-135.63 302.655,-142.093 313.248,-142.275 311.049,-135.63"/>
<text text-anchor="middle" x="445.5" y="-95.5" font-family="Helvetica,sans-Serif" font-size="10.00"> &lt; OptExts......, Options &gt;</text>
</g>
<!-- Node2 -->
<g id="node2" class="node"><title>Node2</title>
<polygon fill="white" stroke="#bfbfbf" points="152,-222.5 152,-290.5 319,-290.5 319,-222.5 152,-222.5"/>
<text text-anchor="start" x="160" y="-278.5" font-family="Helvetica,sans-Serif" font-size="10.00">crtp::make_base::type</text>
<text text-anchor="middle" x="235.5" y="-267.5" font-family="Helvetica,sans-Serif" font-size="10.00">&lt; CRTP&lt; Bases... &gt;, Bases... &gt;</text>
<polyline fill="none" stroke="#bfbfbf" points="152,-260.5 319,-260.5 "/>
<text text-anchor="middle" x="235.5" y="-248.5" font-family="Helvetica,sans-Serif" font-size="10.00"> </text>
<polyline fill="none" stroke="#bfbfbf" points="152,-241.5 319,-241.5 "/>
<text text-anchor="middle" x="235.5" y="-229.5" font-family="Helvetica,sans-Serif" font-size="10.00"> </text>
</g>
<!-- Node2&#45;&gt;Node1 -->
<g id="edge1" class="edge"><title>Node2&#45;&gt;Node1</title>
<path fill="none" stroke="midnightblue" d="M235.5,-212.375C235.5,-202.94 235.5,-193.201 235.5,-184.571"/>
<polygon fill="none" stroke="midnightblue" points="232,-212.427 235.5,-222.427 239,-212.427 232,-212.427"/>
</g>
</g>
</svg>
        <g id="navigator" transform="translate(0 0)" fill="#404254">
                <rect fill="#f2f5e9" fill-opacity="0.5" stroke="#606060" stroke-width=".5" x="0" y="0" width="60" height="60"/>
                <use id="zoomplus" xlink:href="#zoomPlus" x="17" y="9" onmousedown="handleZoom(evt,'in')"/>
                <use id="zoomminus" xlink:href="#zoomMin" x="42" y="9" onmousedown="handleZoom(evt,'out')"/>
                <use id="reset" xlink:href="#resetDef" x="30" y="36" onmousedown="handleReset()"/>
                <g id="arrowUp" xlink:href="#dirArrow" transform="translate(30 24)" onmousedown="handlePan(0,-1)">
                  <use xlink:href="#rim" fill="#404040">
                        <set attributeName="fill" to="#808080" begin="arrowUp.mouseover" end="arrowUp.mouseout"/>
                  </use>
                  <path fill="none" stroke="white" stroke-width="1.5" d="M0,-3.0v7 M-2.5,-0.5L0,-3.0L2.5,-0.5"/>
                </g>
                <g id="arrowRight" xlink:href="#dirArrow" transform="rotate(90) translate(36 -43)" onmousedown="handlePan(1,0)">
                  <use xlink:href="#rim" fill="#404040">
                        <set attributeName="fill" to="#808080" begin="arrowRight.mouseover" end="arrowRight.mouseout"/>
                  </use>
                  <path fill="none" stroke="white" stroke-width="1.5" d="M0,-3.0v7 M-2.5,-0.5L0,-3.0L2.5,-0.5"/>
                </g>
                <g id="arrowDown" xlink:href="#dirArrow" transform="rotate(180) translate(-30 -48)" onmousedown="handlePan(0,1)">
                  <use xlink:href="#rim" fill="#404040">
                        <set attributeName="fill" to="#808080" begin="arrowDown.mouseover" end="arrowDown.mouseout"/>
                  </use>
                  <path fill="none" stroke="white" stroke-width="1.5" d="M0,-3.0v7 M-2.5,-0.5L0,-3.0L2.5,-0.5"/>
                </g>
                <g id="arrowLeft" xlink:href="#dirArrow" transform="rotate(270) translate(-36 17)" onmousedown="handlePan(-1,0)">
                  <use xlink:href="#rim" fill="#404040">
                        <set attributeName="fill" to="#808080" begin="arrowLeft.mouseover" end="arrowLeft.mouseout"/>
                  </use>
                  <path fill="none" stroke="white" stroke-width="1.5" d="M0,-3.0v7 M-2.5,-0.5L0,-3.0L2.5,-0.5"/>
                </g>
        </g>
        <svg viewBox="0 0 15 15" width="100%" height="30px" preserveAspectRatio="xMaxYMin meet">
         <g id="arrow_out" transform="scale(0.3 0.3)">
          <a xlink:href="a00207_org.svg" target="_base">
           <rect id="button" ry="5" rx="5" y="6" x="6" height="38" width="38"
                fill="#f2f5e9" fill-opacity="0.5" stroke="#606060" stroke-width="1.0"/>
           <path id="arrow"
             d="M 11.500037,31.436501 C 11.940474,20.09759 22.043105,11.32322 32.158766,21.979434 L 37.068811,17.246167 C 37.068811,17.246167 37.088388,32 37.088388,32 L 22.160133,31.978069 C 22.160133,31.978069 26.997745,27.140456 26.997745,27.140456 C 18.528582,18.264221 13.291696,25.230495 11.500037,31.436501 z"
             style="fill:#404040;"/>
          </a>
         </g>
        </svg>
</svg>
