<?xml version="1.0" encoding="UTF-8" standalone="no"?>
<!DOCTYPE svg PUBLIC "-//W3C//DTD SVG 1.1//EN"
 "http://www.w3.org/Graphics/SVG/1.1/DTD/svg11.dtd">
<!-- Generated by graphviz version 2.38.0 (20140413.2041)
 -->
<!-- Title: gr::Utils::CRTP&lt; Bases &gt; Pages: 1 -->
<svg width="516pt" height="299pt"
 viewBox="0.00 0.00 515.50 299.00" xmlns="http://www.w3.org/2000/svg" xmlns:xlink="http://www.w3.org/1999/xlink">
<g id="graph0" class="graph" transform="scale(1 1) rotate(0) translate(4 295)">
<title>gr::Utils::CRTP&lt; Bases &gt;</title>
<polygon fill="white" stroke="none" points="-4,4 -4,-295 511.5,-295 511.5,4 -4,4"/>
<!-- Node1 -->
<g id="node1" class="node"><title>Node1</title>
<polygon fill="#bfbfbf" stroke="black" points="168.5,-127.5 168.5,-184.5 302.5,-184.5 302.5,-127.5 168.5,-127.5"/>
<text text-anchor="middle" x="235.5" y="-172.5" font-family="Helvetica,sans-Serif" font-size="10.00">gr::Utils::CRTP&lt; Bases &gt;</text>
<polyline fill="none" stroke="black" points="168.5,-165.5 302.5,-165.5 "/>
<text text-anchor="middle" x="235.5" y="-153.5" font-family="Helvetica,sans-Serif" font-size="10.00"> </text>
<polyline fill="none" stroke="black" points="168.5,-146.5 302.5,-146.5 "/>
<text text-anchor="middle" x="235.5" y="-134.5" font-family="Helvetica,sans-Serif" font-size="10.00"> </text>
</g>
<!-- Node3 -->
<g id="node3" class="node"><title>Node3</title>
<g id="a_node3"><a xlink:href="a00018.html" target="_top" xlink:title="{gr::Utils::CRTP\&lt; OptExts...,\l Options \&gt;\n||}">
<polygon fill="white" stroke="black" points="0,-0.5 0,-68.5 143,-68.5 143,-0.5 0,-0.5"/>
<text text-anchor="start" x="8" y="-56.5" font-family="Helvetica,sans-Serif" font-size="10.00">gr::Utils::CRTP&lt; OptExts...,</text>
<text text-anchor="middle" x="71.5" y="-45.5" font-family="Helvetica,sans-Serif" font-size="10.00"> Options &gt;</text>
<polyline fill="none" stroke="black" points="0,-38.5 143,-38.5 "/>
<text text-anchor="middle" x="71.5" y="-26.5" font-family="Helvetica,sans-Serif" font-size="10.00"> </text>
<polyline fill="none" stroke="black" points="0,-19.5 143,-19.5 "/>
<text text-anchor="middle" x="71.5" y="-7.5" font-family="Helvetica,sans-Serif" font-size="10.00"> </text>
</a>
</g>
</g>
<!-- Node1&#45;&gt;Node3 -->
<g id="edge2" class="edge"><title>Node1&#45;&gt;Node3</title>
<path fill="none" stroke="orange" d="M158.969,-133.931C143.878,-127.519 128.896,-119.339 116.5,-109 103.516,-98.1711 93.2266,-82.5814 85.7829,-68.5436"/>
<polygon fill="orange" stroke="orange" points="157.773,-137.223 168.357,-137.699 160.38,-130.726 157.773,-137.223"/>
<text text-anchor="middle" x="174" y="-95.5" font-family="Helvetica,sans-Serif" font-size="10.00"> &lt; OptExts..., Options &gt;</text>
</g>
<!-- Node4 -->
<g id="node4" class="node"><title>Node4</title>
<g id="a_node4"><a xlink:href="a00018.html" target="_top" xlink:title="{gr::Utils::CRTP\&lt; PairFiltering\lOptions......, Options \&gt;\n||}">
<polygon fill="white" stroke="black" points="161.5,-0.5 161.5,-68.5 309.5,-68.5 309.5,-0.5 161.5,-0.5"/>
<text text-anchor="start" x="169.5" y="-56.5" font-family="Helvetica,sans-Serif" font-size="10.00">gr::Utils::CRTP&lt; PairFiltering</text>
<text text-anchor="middle" x="235.5" y="-45.5" font-family="Helvetica,sans-Serif" font-size="10.00">Options......, Options &gt;</text>
<polyline fill="none" stroke="black" points="161.5,-38.5 309.5,-38.5 "/>
<text text-anchor="middle" x="235.5" y="-26.5" font-family="Helvetica,sans-Serif" font-size="10.00"> </text>
<polyline fill="none" stroke="black" points="161.5,-19.5 309.5,-19.5 "/>
<text text-anchor="middle" x="235.5" y="-7.5" font-family="Helvetica,sans-Serif" font-size="10.00"> </text>
</a>
</g>
</g>
<!-- Node1&#45;&gt;Node4 -->
<g id="edge3" class="edge"><title>Node1&#45;&gt;Node4</title>
<path fill="none" stroke="orange" d="M235.5,-116.946C235.5,-101.399 235.5,-83.5848 235.5,-68.5891"/>
<polygon fill="orange" stroke="orange" points="232,-117.284 235.5,-127.284 239,-117.284 232,-117.284"/>
<text text-anchor="start" x="235.5" y="-101" font-family="Helvetica,sans-Serif" font-size="10.00"> &lt; PairFilteringOptions......,</text>
<text text-anchor="middle" x="299" y="-90" font-family="Helvetica,sans-Serif" font-size="10.00"> Options &gt;</text>
</g>
<!-- Node5 -->
<g id="node5" class="node"><title>Node5</title>
<g id="a_node5"><a xlink:href="a00018.html" target="_top" xlink:title="{gr::Utils::CRTP\&lt; OptExts......,\l Options \&gt;\n||}">
<polygon fill="white" stroke="black" points="327.5,-0.5 327.5,-68.5 479.5,-68.5 479.5,-0.5 327.5,-0.5"/>
<text text-anchor="start" x="335.5" y="-56.5" font-family="Helvetica,sans-Serif" font-size="10.00">gr::Utils::CRTP&lt; OptExts......,</text>
<text text-anchor="middle" x="403.5" y="-45.5" font-family="Helvetica,sans-Serif" font-size="10.00"> Options &gt;</text>
<polyline fill="none" stroke="black" points="327.5,-38.5 479.5,-38.5 "/>
<text text-anchor="middle" x="403.5" y="-26.5" font-family="Helvetica,sans-Serif" font-size="10.00"> </text>
<polyline fill="none" stroke="black" points="327.5,-19.5 479.5,-19.5 "/>
<text text-anchor="middle" x="403.5" y="-7.5" font-family="Helvetica,sans-Serif" font-size="10.00"> </text>
</a>
</g>
</g>
<!-- Node1&#45;&gt;Node5 -->
<g id="edge4" class="edge"><title>Node1&#45;&gt;Node5</title>
<path fill="none" stroke="orange" d="M312.376,-138.878C331.641,-132.072 351.167,-122.477 366.5,-109 378.625,-98.3425 387.255,-82.7729 393.113,-68.7041"/>
<polygon fill="orange" stroke="orange" points="311.049,-135.63 302.655,-142.093 313.248,-142.275 311.049,-135.63"/>
<text text-anchor="middle" x="445.5" y="-95.5" font-family="Helvetica,sans-Serif" font-size="10.00"> &lt; OptExts......, Options &gt;</text>
</g>
<!-- Node2 -->
<g id="node2" class="node"><title>Node2</title>
<polygon fill="white" stroke="#bfbfbf" points="152,-222.5 152,-290.5 319,-290.5 319,-222.5 152,-222.5"/>
<text text-anchor="start" x="160" y="-278.5" font-family="Helvetica,sans-Serif" font-size="10.00">crtp::make_base::type</text>
<text text-anchor="middle" x="235.5" y="-267.5" font-family="Helvetica,sans-Serif" font-size="10.00">&lt; CRTP&lt; Bases... &gt;, Bases... &gt;</text>
<polyline fill="none" stroke="#bfbfbf" points="152,-260.5 319,-260.5 "/>
<text text-anchor="middle" x="235.5" y="-248.5" font-family="Helvetica,sans-Serif" font-size="10.00"> </text>
<polyline fill="none" stroke="#bfbfbf" points="152,-241.5 319,-241.5 "/>
<text text-anchor="middle" x="235.5" y="-229.5" font-family="Helvetica,sans-Serif" font-size="10.00"> </text>
</g>
<!-- Node2&#45;&gt;Node1 -->
<g id="edge1" class="edge"><title>Node2&#45;&gt;Node1</title>
<path fill="none" stroke="midnightblue" d="M235.5,-212.375C235.5,-202.94 235.5,-193.201 235.5,-184.571"/>
<polygon fill="none" stroke="midnightblue" points="232,-212.427 235.5,-222.427 239,-212.427 232,-212.427"/>
</g>
</g>
</svg>
