<?xml version="1.0" encoding="UTF-8" standalone="no"?>
<!DOCTYPE svg PUBLIC "-//W3C//DTD SVG 1.1//EN"
 "http://www.w3.org/Graphics/SVG/1.1/DTD/svg11.dtd">
<!-- Generated by graphviz version 2.38.0 (20140413.2041)
 -->
<!-- Title: Graphical Class Hierarchy Pages: 1 -->
<svg width="664pt" height="122pt"
 viewBox="0.00 0.00 664.00 121.50" xmlns="http://www.w3.org/2000/svg" xmlns:xlink="http://www.w3.org/1999/xlink">
<g id="graph0" class="graph" transform="scale(1 1) rotate(0) translate(4 117.5)">
<title>Graphical Class Hierarchy</title>
<polygon fill="white" stroke="none" points="-4,4 -4,-117.5 660,-117.5 660,4 -4,4"/>
<!-- Node1 -->
<g id="node1" class="node"><title>Node1</title>
<g id="a_node1"><a xlink:href="a00035.html" target="_top" xlink:title="gr::MatchBase\&lt; _Transform\lVisitor, PairFilteringOptions...,\l CongruentSetExplorationOptions \&gt;">
<polygon fill="white" stroke="black" points="0,-39 0,-80 188,-80 188,-39 0,-39"/>
<text text-anchor="start" x="8" y="-68" font-family="Helvetica,sans-Serif" font-size="10.00">gr::MatchBase&lt; _Transform</text>
<text text-anchor="start" x="8" y="-57" font-family="Helvetica,sans-Serif" font-size="10.00">Visitor, PairFilteringOptions...,</text>
<text text-anchor="middle" x="94" y="-46" font-family="Helvetica,sans-Serif" font-size="10.00"> CongruentSetExplorationOptions &gt;</text>
</a>
</g>
</g>
<!-- Node2 -->
<g id="node2" class="node"><title>Node2</title>
<g id="a_node2"><a xlink:href="a00016.html" target="_top" xlink:title="gr::CongruentSetExploration\lBase\&lt; Traits3pcs, _TransformVisitor,\l _PairFilteringFunctor, PairFilteringOptions \&gt;">
<polygon fill="white" stroke="black" points="224,-70 224,-111 446,-111 446,-70 224,-70"/>
<text text-anchor="start" x="232" y="-99" font-family="Helvetica,sans-Serif" font-size="10.00">gr::CongruentSetExploration</text>
<text text-anchor="start" x="232" y="-88" font-family="Helvetica,sans-Serif" font-size="10.00">Base&lt; Traits3pcs, _TransformVisitor,</text>
<text text-anchor="middle" x="335" y="-77" font-family="Helvetica,sans-Serif" font-size="10.00"> _PairFilteringFunctor, PairFilteringOptions &gt;</text>
</a>
</g>
</g>
<!-- Node1&#45;&gt;Node2 -->
<g id="edge1" class="edge"><title>Node1&#45;&gt;Node2</title>
<path fill="none" stroke="midnightblue" d="M198.281,-72.8963C206.691,-73.9871 215.211,-75.0922 223.668,-76.1892"/>
<polygon fill="midnightblue" stroke="midnightblue" points="198.455,-69.3896 188.088,-71.5742 197.555,-76.3315 198.455,-69.3896"/>
</g>
<!-- Node4 -->
<g id="node4" class="node"><title>Node4</title>
<g id="a_node4"><a xlink:href="a00016.html" target="_top" xlink:title="gr::CongruentSetExploration\lBase\&lt; Traits4pcs, _TransformVisitor,\l _PairFilteringFunctor, PairFilteringOptions \&gt;">
<polygon fill="white" stroke="black" points="224,-9 224,-50 446,-50 446,-9 224,-9"/>
<text text-anchor="start" x="232" y="-38" font-family="Helvetica,sans-Serif" font-size="10.00">gr::CongruentSetExploration</text>
<text text-anchor="start" x="232" y="-27" font-family="Helvetica,sans-Serif" font-size="10.00">Base&lt; Traits4pcs, _TransformVisitor,</text>
<text text-anchor="middle" x="335" y="-16" font-family="Helvetica,sans-Serif" font-size="10.00"> _PairFilteringFunctor, PairFilteringOptions &gt;</text>
</a>
</g>
</g>
<!-- Node1&#45;&gt;Node4 -->
<g id="edge3" class="edge"><title>Node1&#45;&gt;Node4</title>
<path fill="none" stroke="midnightblue" d="M198.281,-46.5359C206.691,-45.4802 215.211,-44.4108 223.668,-43.3492"/>
<polygon fill="midnightblue" stroke="midnightblue" points="197.574,-43.097 188.088,-47.8153 198.446,-50.0425 197.574,-43.097"/>
</g>
<!-- Node3 -->
<g id="node3" class="node"><title>Node3</title>
<g id="a_node3"><a xlink:href="a00033.html" target="_top" xlink:title="Class for the computation of the 3PCS algorithm. ">
<polygon fill="white" stroke="black" points="494,-72 494,-113 644,-113 644,-72 494,-72"/>
<text text-anchor="start" x="502" y="-101" font-family="Helvetica,sans-Serif" font-size="10.00">gr::Match3pcs&lt; _Transform</text>
<text text-anchor="start" x="502" y="-90" font-family="Helvetica,sans-Serif" font-size="10.00">Visitor, _PairFilteringFunctor,</text>
<text text-anchor="middle" x="569" y="-79" font-family="Helvetica,sans-Serif" font-size="10.00"> PairFilteringOptions &gt;</text>
</a>
</g>
</g>
<!-- Node2&#45;&gt;Node3 -->
<g id="edge2" class="edge"><title>Node2&#45;&gt;Node3</title>
<path fill="none" stroke="midnightblue" d="M456.443,-91.5383C469.179,-91.6481 481.844,-91.7573 493.822,-91.8605"/>
<polygon fill="midnightblue" stroke="midnightblue" points="456.255,-88.0366 446.225,-91.4502 456.194,-95.0364 456.255,-88.0366"/>
</g>
<!-- Node5 -->
<g id="node5" class="node"><title>Node5</title>
<g id="a_node5"><a xlink:href="a00034.html" target="_top" xlink:title="Class for the computation of the 4PCS algorithm. ">
<polygon fill="white" stroke="black" points="482,-0.5 482,-52.5 656,-52.5 656,-0.5 482,-0.5"/>
<text text-anchor="start" x="490" y="-40.5" font-family="Helvetica,sans-Serif" font-size="10.00">gr::Match4pcsBase&lt;</text>
<text text-anchor="start" x="490" y="-29.5" font-family="Helvetica,sans-Serif" font-size="10.00"> _Functor, _TransformVisitor,</text>
<text text-anchor="start" x="490" y="-18.5" font-family="Helvetica,sans-Serif" font-size="10.00"> _PairFilteringFunctor, PairFiltering</text>
<text text-anchor="middle" x="569" y="-7.5" font-family="Helvetica,sans-Serif" font-size="10.00">Options &gt;</text>
</a>
</g>
</g>
<!-- Node4&#45;&gt;Node5 -->
<g id="edge4" class="edge"><title>Node4&#45;&gt;Node5</title>
<path fill="none" stroke="midnightblue" d="M456.295,-27.9445C464.87,-27.8336 473.414,-27.7231 481.739,-27.6154"/>
<polygon fill="midnightblue" stroke="midnightblue" points="456.179,-24.4456 446.225,-28.0747 456.269,-31.445 456.179,-24.4456"/>
</g>
</g>
</svg>
