<?xml version="1.0" encoding="UTF-8" standalone="no"?>
<!DOCTYPE svg PUBLIC "-//W3C//DTD SVG 1.1//EN"
 "http://www.w3.org/Graphics/SVG/1.1/DTD/svg11.dtd">
<!-- Generated by graphviz version 2.38.0 (20140413.2041)
 -->
<!-- Title: Graphical Class Hierarchy Pages: 1 -->
<svg width="244pt" height="197pt"
 viewBox="0.00 0.00 244.00 196.50" xmlns="http://www.w3.org/2000/svg" xmlns:xlink="http://www.w3.org/1999/xlink">
<g id="graph0" class="graph" transform="scale(1 1) rotate(0) translate(4 192.5)">
<title>Graphical Class Hierarchy</title>
<polygon fill="white" stroke="none" points="-4,4 -4,-192.5 240,-192.5 240,4 -4,4"/>
<!-- Node1 -->
<g id="node1" class="node"><title>Node1</title>
<g id="a_node1"><a xlink:href="a00048.html" target="_top" xlink:title="TBase">
<polygon fill="white" stroke="black" points="0,-89.5 0,-108.5 46,-108.5 46,-89.5 0,-89.5"/>
<text text-anchor="middle" x="23" y="-96.5" font-family="Helvetica,sans-Serif" font-size="10.00">TBase</text>
</a>
</g>
</g>
<!-- Node2 -->
<g id="node2" class="node"><title>Node2</title>
<g id="a_node2"><a xlink:href="a00039.html" target="_top" xlink:title="gr::AdaptivePointFilter\l::Options\&lt; Derived, TBase \&gt;">
<polygon fill="white" stroke="black" points="82,-158 82,-188 236,-188 236,-158 82,-158"/>
<text text-anchor="start" x="90" y="-176" font-family="Helvetica,sans-Serif" font-size="10.00">gr::AdaptivePointFilter</text>
<text text-anchor="middle" x="159" y="-165" font-family="Helvetica,sans-Serif" font-size="10.00">::Options&lt; Derived, TBase &gt;</text>
</a>
</g>
</g>
<!-- Node1&#45;&gt;Node2 -->
<g id="edge1" class="edge"><title>Node1&#45;&gt;Node2</title>
<path fill="none" stroke="midnightblue" d="M40.0721,-116.048C51.0101,-126.795 66.3028,-140.247 82,-149 88.0424,-152.369 94.6237,-155.338 101.303,-157.934"/>
<polygon fill="midnightblue" stroke="midnightblue" points="42.4464,-113.471 32.9336,-108.807 37.4613,-118.385 42.4464,-113.471"/>
</g>
<!-- Node3 -->
<g id="node3" class="node"><title>Node3</title>
<g id="a_node3"><a xlink:href="a00017.html" target="_top" xlink:title="gr::CongruentSetExploration\lOptions\&lt; Derived, TBase \&gt;">
<polygon fill="white" stroke="black" points="83,-109 83,-139 235,-139 235,-109 83,-109"/>
<text text-anchor="start" x="91" y="-127" font-family="Helvetica,sans-Serif" font-size="10.00">gr::CongruentSetExploration</text>
<text text-anchor="middle" x="159" y="-116" font-family="Helvetica,sans-Serif" font-size="10.00">Options&lt; Derived, TBase &gt;</text>
</a>
</g>
</g>
<!-- Node1&#45;&gt;Node3 -->
<g id="edge2" class="edge"><title>Node1&#45;&gt;Node3</title>
<path fill="none" stroke="midnightblue" d="M55.9693,-104.964C64.1986,-106.5 73.409,-108.218 82.8383,-109.977"/>
<polygon fill="midnightblue" stroke="midnightblue" points="56.5997,-101.522 46.1274,-103.128 55.3158,-108.403 56.5997,-101.522"/>
</g>
<!-- Node4 -->
<g id="node4" class="node"><title>Node4</title>
<g id="a_node4"><a xlink:href="a00041.html" target="_top" xlink:title="gr::DummyPointFilter\l::Options\&lt; Derived, TBase \&gt;">
<polygon fill="white" stroke="black" points="82,-60 82,-90 236,-90 236,-60 82,-60"/>
<text text-anchor="start" x="90" y="-78" font-family="Helvetica,sans-Serif" font-size="10.00">gr::DummyPointFilter</text>
<text text-anchor="middle" x="159" y="-67" font-family="Helvetica,sans-Serif" font-size="10.00">::Options&lt; Derived, TBase &gt;</text>
</a>
</g>
</g>
<!-- Node1&#45;&gt;Node4 -->
<g id="edge3" class="edge"><title>Node1&#45;&gt;Node4</title>
<path fill="none" stroke="midnightblue" d="M56.0127,-93.2664C63.9783,-91.8397 72.8611,-90.2488 81.9707,-88.6172"/>
<polygon fill="midnightblue" stroke="midnightblue" points="55.3537,-89.8286 46.1274,-95.0369 56.5878,-96.719 55.3537,-89.8286"/>
</g>
<!-- Node5 -->
<g id="node5" class="node"><title>Node5</title>
<g id="a_node5"><a xlink:href="a00040.html" target="_top" xlink:title="gr::MatchBase\&lt; _Transform\lVisitor, OptExts \&gt;::Options\l\&lt; Derived, TBase \&gt;">
<polygon fill="white" stroke="black" points="84.5,-0.5 84.5,-41.5 233.5,-41.5 233.5,-0.5 84.5,-0.5"/>
<text text-anchor="start" x="92.5" y="-29.5" font-family="Helvetica,sans-Serif" font-size="10.00">gr::MatchBase&lt; _Transform</text>
<text text-anchor="start" x="92.5" y="-18.5" font-family="Helvetica,sans-Serif" font-size="10.00">Visitor, OptExts &gt;::Options</text>
<text text-anchor="middle" x="159" y="-7.5" font-family="Helvetica,sans-Serif" font-size="10.00">&lt; Derived, TBase &gt;</text>
</a>
</g>
</g>
<!-- Node1&#45;&gt;Node5 -->
<g id="edge4" class="edge"><title>Node1&#45;&gt;Node5</title>
<path fill="none" stroke="midnightblue" d="M41.1156,-82.366C52.1259,-72.317 67.1142,-59.795 82,-51 87.74,-47.6086 93.9341,-44.4513 100.222,-41.5564"/>
<polygon fill="midnightblue" stroke="midnightblue" points="38.4427,-80.0741 33.5389,-89.4658 43.2291,-85.182 38.4427,-80.0741"/>
</g>
</g>
</svg>
