<?xml version="1.0" encoding="UTF-8" standalone="no"?>
<!DOCTYPE svg PUBLIC "-//W3C//DTD SVG 1.1//EN"
 "http://www.w3.org/Graphics/SVG/1.1/DTD/svg11.dtd">
<!-- Generated by graphviz version 2.38.0 (20140413.2041)
 -->
<!-- Title: Graphical Class Hierarchy Pages: 1 -->
<svg width="234pt" height="176pt"
 viewBox="0.00 0.00 234.00 175.50" xmlns="http://www.w3.org/2000/svg" xmlns:xlink="http://www.w3.org/1999/xlink">
<g id="graph0" class="graph" transform="scale(1 1) rotate(0) translate(4 171.5)">
<title>Graphical Class Hierarchy</title>
<polygon fill="white" stroke="none" points="-4,4 -4,-171.5 230,-171.5 230,4 -4,4"/>
<!-- Node1 -->
<g id="node1" class="node"><title>Node1</title>
<polygon fill="white" stroke="#bfbfbf" points="0,-68.5 0,-87.5 38,-87.5 38,-68.5 0,-68.5"/>
<text text-anchor="middle" x="19" y="-75.5" font-family="Helvetica,sans-Serif" font-size="10.00">type</text>
</g>
<!-- Node2 -->
<g id="node2" class="node"><title>Node2</title>
<g id="a_node2"><a xlink:href="a00018.html" target="_top" xlink:title="gr::Utils::CRTP\&lt; OptExts...,\l Options \&gt;">
<polygon fill="white" stroke="black" points="78.5,-137 78.5,-167 221.5,-167 221.5,-137 78.5,-137"/>
<text text-anchor="start" x="86.5" y="-155" font-family="Helvetica,sans-Serif" font-size="10.00">gr::Utils::CRTP&lt; OptExts...,</text>
<text text-anchor="middle" x="150" y="-144" font-family="Helvetica,sans-Serif" font-size="10.00"> Options &gt;</text>
</a>
</g>
</g>
<!-- Node1&#45;&gt;Node2 -->
<g id="edge1" class="edge"><title>Node1&#45;&gt;Node2</title>
<path fill="none" stroke="midnightblue" d="M35.0567,-95.3933C45.1378,-106.1 59.2275,-119.378 74,-128 79.7855,-131.377 86.104,-134.34 92.5395,-136.925"/>
<polygon fill="midnightblue" stroke="midnightblue" points="37.4986,-92.876 28.1841,-87.827 32.317,-97.5826 37.4986,-92.876"/>
</g>
<!-- Node3 -->
<g id="node3" class="node"><title>Node3</title>
<g id="a_node3"><a xlink:href="a00018.html" target="_top" xlink:title="gr::Utils::CRTP\&lt; OptExts......,\l Options \&gt;">
<polygon fill="white" stroke="black" points="74,-88 74,-118 226,-118 226,-88 74,-88"/>
<text text-anchor="start" x="82" y="-106" font-family="Helvetica,sans-Serif" font-size="10.00">gr::Utils::CRTP&lt; OptExts......,</text>
<text text-anchor="middle" x="150" y="-95" font-family="Helvetica,sans-Serif" font-size="10.00"> Options &gt;</text>
</a>
</g>
</g>
<!-- Node1&#45;&gt;Node3 -->
<g id="edge2" class="edge"><title>Node1&#45;&gt;Node3</title>
<path fill="none" stroke="midnightblue" d="M48.1217,-83.4499C55.9233,-84.9619 64.7798,-86.6783 73.9281,-88.4512"/>
<polygon fill="midnightblue" stroke="midnightblue" points="48.6922,-79.9955 38.2089,-81.5289 47.3604,-86.8676 48.6922,-79.9955"/>
</g>
<!-- Node4 -->
<g id="node4" class="node"><title>Node4</title>
<g id="a_node4"><a xlink:href="a00018.html" target="_top" xlink:title="gr::Utils::CRTP\&lt; PairFiltering\lOptions......, Options \&gt;">
<polygon fill="white" stroke="black" points="76,-39 76,-69 224,-69 224,-39 76,-39"/>
<text text-anchor="start" x="84" y="-57" font-family="Helvetica,sans-Serif" font-size="10.00">gr::Utils::CRTP&lt; PairFiltering</text>
<text text-anchor="middle" x="150" y="-46" font-family="Helvetica,sans-Serif" font-size="10.00">Options......, Options &gt;</text>
</a>
</g>
</g>
<!-- Node1&#45;&gt;Node4 -->
<g id="edge3" class="edge"><title>Node1&#45;&gt;Node4</title>
<path fill="none" stroke="midnightblue" d="M48.0951,-72.773C56.4703,-71.2148 66.0632,-69.4301 75.9284,-67.5947"/>
<polygon fill="midnightblue" stroke="midnightblue" points="47.4,-69.3422 38.2089,-74.6123 48.6805,-76.2241 47.4,-69.3422"/>
</g>
<!-- Node5 -->
<g id="node5" class="node"><title>Node5</title>
<g id="a_node5"><a xlink:href="a00018.html" target="_top" xlink:title="CRTP class designed by Gael Guennebaud Source: http://disq.us/p/1tf4a7l https://www.onlinegdb.com/rJEhwUc&#45;m. ">
<polygon fill="white" stroke="black" points="83,-0.5 83,-19.5 217,-19.5 217,-0.5 83,-0.5"/>
<text text-anchor="middle" x="150" y="-7.5" font-family="Helvetica,sans-Serif" font-size="10.00">gr::Utils::CRTP&lt; Bases &gt;</text>
</a>
</g>
</g>
<!-- Node1&#45;&gt;Node5 -->
<g id="edge4" class="edge"><title>Node1&#45;&gt;Node5</title>
<path fill="none" stroke="midnightblue" d="M35.0463,-61.0834C45.1233,-50.7182 59.2123,-37.9565 74,-30 81.951,-25.722 90.8774,-22.3133 99.724,-19.6119"/>
<polygon fill="midnightblue" stroke="midnightblue" points="32.4549,-58.7303 28.1774,-68.4233 37.5659,-63.5134 32.4549,-58.7303"/>
</g>
</g>
</svg>
