<?xml version="1.0" encoding="UTF-8" standalone="no"?>
<!DOCTYPE svg PUBLIC "-//W3C//DTD SVG 1.1//EN"
 "http://www.w3.org/Graphics/SVG/1.1/DTD/svg11.dtd">
<!-- Generated by graphviz version 2.38.0 (20140413.2041)
 -->
<!-- Title: Graphical Class Hierarchy Pages: 1 -->
<svg width="277pt" height="66pt"
 viewBox="0.00 0.00 277.00 66.00" xmlns="http://www.w3.org/2000/svg" xmlns:xlink="http://www.w3.org/1999/xlink">
<g id="graph0" class="graph" transform="scale(1 1) rotate(0) translate(4 62)">
<title>Graphical Class Hierarchy</title>
<polygon fill="white" stroke="none" points="-4,4 -4,-62 273,-62 273,4 -4,4"/>
<!-- Node1 -->
<g id="node1" class="node"><title>Node1</title>
<g id="a_node1"><a xlink:href="a00043.html" target="_top" xlink:title="gr::PairFilterConcept">
<polygon fill="white" stroke="black" points="0,-19.5 0,-38.5 112,-38.5 112,-19.5 0,-19.5"/>
<text text-anchor="middle" x="56" y="-26.5" font-family="Helvetica,sans-Serif" font-size="10.00">gr::PairFilterConcept</text>
</a>
</g>
</g>
<!-- Node2 -->
<g id="node2" class="node"><title>Node2</title>
<g id="a_node2"><a xlink:href="a00014.html" target="_top" xlink:title="Functor used in n&#45;pcs algorithm to filters pairs of points according to the exploration basis...">
<polygon fill="white" stroke="black" points="148,-38.5 148,-57.5 269,-57.5 269,-38.5 148,-38.5"/>
<text text-anchor="middle" x="208.5" y="-45.5" font-family="Helvetica,sans-Serif" font-size="10.00">gr::AdaptivePointFilter</text>
</a>
</g>
</g>
<!-- Node1&#45;&gt;Node2 -->
<g id="edge1" class="edge"><title>Node1&#45;&gt;Node2</title>
<path fill="none" stroke="midnightblue" d="M122.368,-37.2524C130.807,-38.3179 139.416,-39.4046 147.758,-40.4579"/>
<polygon fill="midnightblue" stroke="midnightblue" points="122.546,-33.7472 112.186,-35.967 121.669,-40.6921 122.546,-33.7472"/>
</g>
<!-- Node3 -->
<g id="node3" class="node"><title>Node3</title>
<g id="a_node3"><a xlink:href="a00019.html" target="_top" xlink:title="Functor used in n&#45;pcs algorithm to filters pairs of points according to the exploration basis...">
<polygon fill="white" stroke="black" points="150,-0.5 150,-19.5 267,-19.5 267,-0.5 150,-0.5"/>
<text text-anchor="middle" x="208.5" y="-7.5" font-family="Helvetica,sans-Serif" font-size="10.00">gr::DummyPointFilter</text>
</a>
</g>
</g>
<!-- Node1&#45;&gt;Node3 -->
<g id="edge2" class="edge"><title>Node1&#45;&gt;Node3</title>
<path fill="none" stroke="midnightblue" d="M122.376,-20.7466C131.501,-19.5946 140.823,-18.4176 149.794,-17.2852"/>
<polygon fill="midnightblue" stroke="midnightblue" points="121.669,-17.3079 112.186,-22.033 122.546,-24.2528 121.669,-17.3079"/>
</g>
</g>
</svg>
